<mxfile>
    <diagram id="ftjVlmdrBaRBUuE6AmLa" name="Page-1">
        <mxGraphModel dx="1089" dy="1161" grid="1" gridSize="10" guides="1" tooltips="1" connect="1" arrows="1" fold="1" page="1" pageScale="1" pageWidth="827" pageHeight="1169" background="#ffffff" math="0" shadow="0">
            <root>
                <mxCell id="0"/>
                <mxCell id="1" parent="0"/>
                <mxCell id="16" value="" style="rounded=1;whiteSpace=wrap;html=1;dashed=1;strokeColor=#333333;fillColor=#FFFFFF;" parent="1" vertex="1">
                    <mxGeometry x="1180" y="310" width="210" height="120" as="geometry"/>
                </mxCell>
                <mxCell id="18" value="" style="rounded=1;whiteSpace=wrap;html=1;dashed=1;strokeColor=#333333;fillColor=#FFFFFF;" parent="1" vertex="1">
                    <mxGeometry x="1190" y="320" width="210" height="120" as="geometry"/>
                </mxCell>
                <mxCell id="31" style="edgeStyle=orthogonalEdgeStyle;rounded=0;orthogonalLoop=1;jettySize=auto;html=1;entryX=0.5;entryY=0;entryDx=0;entryDy=0;strokeColor=#333333;" parent="1" source="4" target="28" edge="1">
                    <mxGeometry relative="1" as="geometry"/>
                </mxCell>
                <mxCell id="4" value="&lt;font data-font-src=&quot;https://fonts.googleapis.com/css?family=Fira+Code&quot; style=&quot;font-size: 14px&quot; face=&quot;Lucida Console&quot; color=&quot;#333333&quot;&gt;Notify Anomaly Subscribers&lt;/font&gt;" style="rounded=1;whiteSpace=wrap;html=1;strokeWidth=1;fillColor=none;strokeColor=#333333;" parent="1" vertex="1">
                    <mxGeometry x="1180.0599999999997" y="725" width="250" height="40" as="geometry"/>
                </mxCell>
                <mxCell id="5" value="" style="shape=image;verticalLabelPosition=bottom;labelBackgroundColor=#ffffff;verticalAlign=top;aspect=fixed;imageAspect=0;image=data:image/png,iVBORw0KGgoAAAANSUhEUgAAAVQAAAFHCAYAAAD+0LSAAAAABGdBTUEAALGPC/xhBQAAACBjSFJNAAB6JgAAgIQAAPoAAACA6AAAdTAAAOpgAAA6mAAAF3CculE8AAAAomVYSWZNTQAqAAAACAAFARIAAwAAAAEAAQAAARoABQAAAAEAAABKARsABQAAAAEAAABSASgAAwAAAAEAAgAAh2kABAAAAAEAAABaAAAAAAAAAJAAAAABAAAAkAAAAAEABJKGAAcAAAASAAAAkKABAAMAAAABAAEAAKACAAQAAAABAAABVKADAAQAAAABAAABRwAAAABBU0NJSQAAAFNjcmVlbnNob3QR/WptAAAACXBIWXMAABYlAAAWJQFJUiTwAAACoWlUWHRYTUw6Y29tLmFkb2JlLnhtcAAAAAAAPHg6eG1wbWV0YSB4bWxuczp4PSJhZG9iZTpuczptZXRhLyIgeDp4bXB0az0iWE1QIENvcmUgNS40LjAiPgogICA8cmRmOlJERiB4bWxuczpyZGY9Imh0dHA6Ly93d3cudzMub3JnLzE5OTkvMDIvMjItcmRmLXN5bnRheC1ucyMiPgogICAgICA8cmRmOkRlc2NyaXB0aW9uIHJkZjphYm91dD0iIgogICAgICAgICAgICB4bWxuczpleGlmPSJodHRwOi8vbnMuYWRvYmUuY29tL2V4aWYvMS4wLyIKICAgICAgICAgICAgeG1sbnM6dGlmZj0iaHR0cDovL25zLmFkb2JlLmNvbS90aWZmLzEuMC8iPgogICAgICAgICA8ZXhpZjpQaXhlbFlEaW1lbnNpb24+MzQwPC9leGlmOlBpeGVsWURpbWVuc2lvbj4KICAgICAgICAgPGV4aWY6VXNlckNvbW1lbnQ+U2NyZWVuc2hvdDwvZXhpZjpVc2VyQ29tbWVudD4KICAgICAgICAgPGV4aWY6Q29sb3JTcGFjZT4xPC9leGlmOkNvbG9yU3BhY2U+CiAgICAgICAgIDxleGlmOlBpeGVsWERpbWVuc2lvbj4zNDI8L2V4aWY6UGl4ZWxYRGltZW5zaW9uPgogICAgICAgICA8dGlmZjpPcmllbnRhdGlvbj4xPC90aWZmOk9yaWVudGF0aW9uPgogICAgICAgICA8dGlmZjpSZXNvbHV0aW9uVW5pdD4yPC90aWZmOlJlc29sdXRpb25Vbml0PgogICAgICA8L3JkZjpEZXNjcmlwdGlvbj4KICAgPC9yZGY6UkRGPgo8L3g6eG1wbWV0YT4KXCr2FwAAQABJREFUeAHtXQecXEX9n927S+4uuVx6T+iEKiYBQg1VwQK2PypIKIJg+ctfqSotgKAIAjYEBSlBQBEVxEoPBAQpKigd0nu7JJe75O72/b/fmTe7b/e2zNt9u/ve7kw+udl588r8ynzfb37zm3kxYZPlQJk44MyeHd/8dHyvPpGYmugTO8RisUnCccbF47GRCcdpQ7nVcZzmWCw+wHESjfFYPI7jyETMSQhUx3B6ws0dHkCZeRwZ8jirBS6IJRJOAifGe3FgK87rRv1mHN+IitW4YBnKi+IN4p0GEX+59aDEv2KzZyfKRLa9bR1zIFbHtFvSA+DAhiMu3x8gODPmiKlOzNkxJmLjhHCGQLGaHSEaAWYo4pegqnlz9+FVqkdretGabrRvA8B2WcyJve3ExMsA4blDHr3k2QBYY29RhxyglttkOVCQA5uOvHxPINAxwkkcGBPxKY5IjIUlSAsTkOiCpbYgo1/GK8DZDIt3OSzeN2AKz2uMiT8MfuSSVwoyyp5Q1xywgFrX4s9O/PrDLp+OUfTJsOAOgYJsi7MG4388+9l1dZRugk3gy3zw5Ul4J+4Y+vglL9YVByyxeTlgATUve2q/0vngNYM29XbO6nPEx6AMe8G4HAWqGzlKl6NxFKgktpydH2BNLzwZq8CufzXExAODGwfNif3tvE4ct6kOOWABtc6E/sL0M5p2bJ9wCuZzZsHcej+G64MxvCV2pnk4bblYfnA+zdnUIMQ/Ma825+2OJbfv/eLPeupMzeqWXAuodSB6TBwdnEgk/heoORPgORogimly1+LCDzV7bsvSIg+aH3A6g98rcdu58Xj8x5jweqoOVK5uSbSAWoOiZ7jS+idj/wcr9DTMXO8M07NJjds9xOYyQfUptj67iVo6f3rA2jdhvd469BDnBzZ8SzO0NnILqLUhR/HWh746cOSWEechIvOkWLxhe8xONyRDlpTppU1Qm4eEH4gi6HMSfe868fidqweuuWanP/9oS42oY92SYQE1wqLnhFJHT+e3MIw/AcP2yZg5wkx8LtPSHs9ucoaELwirQAjaQrgH7m5vGnSVndiKZse0gBpBuXUcMftErAD6Ziwe28VJYKEQQBSg6vpCkdtytPmhwPV1rCj7Tvujs++KoIrWbZMtoEZE9BsOu2hKr2i4Dibo4ZhPavYKDuWsdqkmzdZHmj/diMZ4rFH0nT3k8W+/oWVq83BywNsvw9nCOm6VDHEaPO7bIh47GcPBMSnXn17TjkGsnK23ZfDH4zKuVX44K0Qidsfbm5ZdZEOxwgkMFlBDKJf1My/azok33gy4PAymZ2OyidrU1AdsWZme9ccPLCaIPR5L9J45dO6339Pk27z6HLCAWn0ZJFuw7rDZx4pE4hoRj+8E05OuUG2CyvkUHSepTDHU2fo65w+2pEkk3oK+nDfs8dkPJhXJ/qgaByygVo316sEyZvQJ5zJsWPcVWB3Dks2RYJkspZyA+pCtly8ZzY6kE1kfqDv+OOugPz8ZemjsUhvbqpWg8rkF1MrzXD5R+keHjP8pVjDNwmw99gP1zNLDFLVlyw+1gs0nHxLOVqzImvP2hqVfsn7WynduC6gV5jkD8Ed0D/s5BmufhQu0KRniBBNLhj7Z3PKBIXAl64HogdPo3jXN675gFwxUrpNbQK0Qrxft//WWQQPbbxMi8Sl0lsYkeGrLNFcnsvUqvtbyJzvIFtaPXmzdcH/nlo5TJz17fVeF1L1uH2MBtcyiJ5C2Dhh8F3aCPxYWaWrGvszPtbe3HPByAB29F0uxHty8ddOJFli9nAn2t900OFh+pt1t3aGX3DBowOAOrNn+JAwJBaZAVQ7nYHCpJPP0sq1P54eckfPwy/LHP3+of/DJfpL6uO7Q2TekKaotBMYBSMamoDmw9pCLv4xx6tUAzcHETgmeNrd84EshPHqwCTOfFwx/8oobg9b/er6fBdQApb/msEuOwtr62zG8HwuLwF25o2ZpNaimZu9tvY6r5Wy25Y8C20rrB9wAyxFlcsqIxy//a4BdoW5vZQE1ANEvx8qmAbH4Q7jVbrydnnDSt9aGSaqsZnFTZWW4pMq2Xg7rXYZY/lVEP/4bdxIftSuvdC8sLrc+1OL4lrxqzSEX3wYwfRsgmgamBFUmCa7SAPOUMe6z9R5+WP6k60N19GO3hIi/TX1OKrf94ZsD1kL1zTJ1wbqZs49NiL45GNcPSY5XJYiSpQQLm1s+RFQPHGdDXDTMGjbXLmf1Cw8WUH1yrGP/2cN7BiT+ChtzOoalMfq8pLMUIMphqi1bftSIPlCQLzZujR/V/uzstT67Sd2ebgHVh+hXH3LxlWDY+cDORmmA6mu1IWLLigOWH5lOzyiXe/EZ1++NfOqKC7V62zw3Byyg5uZNsmbd4Rdu09cbn4vJ6MnKIFWWqJqlVgaqNlRtPflh+aNm6+H0cA329DyS/FnY0JiYOeyxKxckO4b90Y8DFlD7sST9wJpDLroYFumlgIkGaXiRY9oC8+b6sK23/PHqhdaHmtAPpw/vystGPPntK9J7iS1pDlhA1ZzIyDceMHv01qa+ubA0piiLS1uiKq40ZXHYsuUPLc660o83BvQ0zGx7ZvbKjG5T90ULqFlUYPUhF3015sS+jz7SpKs9hgYOuRNQuhK5rVeGqWKJ5Y+coKxt/cBuVrFzRj55+Y88ZNb9TwuoHhXg1nrDNrfPA5hOV3GiCiZV59Agkco1jNp6WGjJl4zlj9aHutCPmPPiutaOA+0WgQpILKC6gLr6oItniLjzCDrB4OxOQG2D2tzyJ5uTtK71YhM+HnjkyKeveM5jn9TlT7tSCmJfM/PiK/AJkmcIpjKOlAN4OsV0XKktW35YfcjXH7AJkPOM7Ed1CaMpovlardvEIf5QDPFFQkxnCJROeoLBlhUHLD/warX6obtDcgJOH/DqB74S8OL6OnYB1K2Fuuqgi6cP62xfpcFUGiDQEK0ctpwOppYflh/kQKH+wf7EfsX+pThWX3897936IXzVzAvPhc/naozk42QAB/c62bLlh9UH3Rvo9CpSH/CBa8xJXDBq7pXXpu5W+7/qzkJddfCF9+Jzu9dIMIW2qNlpJWgO6/QuUDyiy1QqJl1WpVTZ1iuOWP5Y/Un2H2msxK6R/U13mDrINRbUPKn8bPO2g0a/hCHLHuqd6yVdz9pqNtiysk0sPxQHrD6Uog/YQujV+Z2rptXDZ629qKJ7T83lSw+4cJumuHgZJuYw7QRSa61JvttZvM4hmFq2HvGkNDkD4k/TXtvKPtm441gRa2uRYhgwdbukrsUGN4vGncYly7l+9L61TDibuvtV9y1bJxIr1guZL18vEjin7+3lOM/KVzK++vq9richpo5/prb3Aqh5QF1x8LeOahCxBwEPA5KdS3cymwNwPKBZIj+a3r8tAs9aAIxjReOO40R87FAjkOyHjgEeIPgShJl6/vkeABeg+84yHPOAbYl0W73SFnz+HGbK1j7hHDvmqatq9nMrNQ2omGk8G77xa2BpxbXFaXNleZbKh0ZYnE2wKBtgcdKyNLEuA8TJQG7V8zIBdp20ZHsAur3/mp8cmZTKH3t9Tj1LwL163qinr7guECGG7CY1C6irZl50LT6Ydzb4LWmUEyZ8gbrJlmFX+eAHh+eN799OMG/yDNU1P2slpzVLoKU1u+Wp15JkWX3xpy8F+OXgw4DXjZr77XOTDK6RHzUJqADTXwJMT9BCtbnqDH740IAh+8CDdxVNANFaBtBC/ZjguvWp/4qt/5wPSxb+W7yE/PDRnp+HX/HY3QDVzxWSQZTqaw5QEabxKJT48CgJISxtHXjQrmIAQRQWaMO4YWFpVmjaQX/slrn/TVqv2SbHQtPYiDQEL6fHRj115RERaW7BZtYUoK446MJ/w4TY0zs7rXdB0pzQvi3YbDiU2iWpXusHHLQLLNHdxMCZu2FCqVmzweYGHOj+00twC8B6ffr15NlWv9KjQ0z6H/rhK2OevvJ9SSZG+EdNAKpck7+x/U0Ib7KShQLLlFxsmS8PnTgL33z0NNH84WkWRDVTSsi15dr1m2fdiAKrb15908ZLisX9+YOJqoXr2zp2jvo2gKlelqI2Ur8Ipu0bh7wHy2Cc2jk+5+yijKvUFkS95WLQQNECAG057gA7nC+jhjNqoPvPL+P/SyKBeNh607MS6V3W0bZhuyiDaqQBNT+Y6omYVJB+urDro37AtO1hjU6V1mgZccTeOgsH6G+l1br1pXezvMzrQ/9yGzk56Y80qEYWUBWYtr2LCajxuYWWC0xr//hAgCgt0jDO0Mtge8yY68SZ9Gyz4bTw+patFY07jxexQc39ZtfjWHFF94VOjEgIY2Io1uZfPyO2/OVla7FC0IX7q1ja0bZx+yhaqpEEVK7Ln9w88j14YiaEsQNVq02cVOIE06DPH171YX0vAJOrkggm/O9s6hJ9EiDXlZ09XGQQd5eycuVWw7ihkh/VBly6A7oArF1wB9gIgfxqAGBasrB79XZRW/8fOUAlmE5qGfkuJuknJkVCKujn1qnOyrG2ZtEK32jrpw+s+CSTtja3vvSeAk8C6XKAZkjloVd1MedKr2qALHnWhQiBzl88qoC1zvQ1udq5UH+NicWLulZvHyVQjRSgOrNnx1c8vHU+Gj1Jy6Le8+YPTauoRUors+fld8VWDNO19Rl1GTDmlq4RtQpse9GAPQgqkQism389T7oDrMWaneN4Ly8a84EB28Zmz05kPyNcRyMFqCsO/NYrmFjaQ/pgYALJr0tqnwz4Kl/0yXJt1zd/aCqA9IiKDO25BHMrQFQuyXxzqfKB1TD/m+CzVQC7vVwtVu4uSzDddOujouu+Z1I+1hrmbxH999Ux867as9xyCOL+kQHUFQdiBZRwDk8HTRdEtfL1A9Xaqx8IS2rwWR8p62Yk7OAMWO+e+5q0RhPwf6pPI2e+tGqPv9n0i6vHGC1B/3Q5rVf6WDt/8RjcAS+6L6364K8O/qeXKBv/VX38sTHzwr+iKhKAuuKAb94JZs8qPDtYu7P33ApvyIX/I4elQbxJM++RAlGs/IFFmh5iVrt89Usnfa4tH5kmwbVcK8voStn4gz/KJa5+21fT5wsxZ8wz3zkpU3fDVA49oC4/8MIrhZP4Vr+YGc3FXDtV1Eg9N2PmhNPg08qz3JnDeVpEcmcluEuSfK4R/iXpydSTAOhjWNrAmbuXzS3AONaOq+4XzsaulFw0HQG0X95C3y8zD+3941eNnXflhbp5YctDDagY5n/RcRI3qvGPp7NnCr9Gy+ysbWd9OHA/KSeWugGiXVjR07d0bf/OWqP8zAmuJdLLl14z3AKDTjsycJcARw60VvnSK1f7I3ZfB9sbfxnD/5vCBqZsT2gBdeX+3zg6EYv9EW2suw8Jcta5DX5SblgSZOLMPGeVafnYVB4OUGYMX/N+3iWIJ3G11QZYq/Sz2iQS2DH+I6Of/e5fwsaLUALqkpkXTor3Jt5G4wYkHdXgHBtb62V2yHb4SoP0zzGQvOuPL8kJplrnX1joa0CM66DPHChaENYWVKK12vmreSp+tU76Qx55bk00xnecMPfKRUHxN4j7hA5QGbg/YeCIZWjYiDzMrDlw5coeTjo1B2iVEkg7EY7TC6umHl5GYdSXRow2uKvXoAAXXfBzLR3fvMvKVYg1S7asGRemwP/GIFA5yHtMGDD8OQmmOp60DvLmQ3YHmH4KyyVbAmElgXTTLY/Y3Y7gG632rHcvfNR8qXXe+7QY/NmDAlnNRpcv71vPUS+uXEcQL9BpghsGlNgDabiEJi074Ju/QGNORS9QDnjdshou01fKoWEQSQIpOm9yoknftIb5J0mMEH30jw/GggxGCBSbVp/8Q9ErP5Ht3iFC9JdDXjFH3Dr22e+cXiw/g7wuNIC6/IBvfgEwejPAFDHkaJZWkhrNGSA+9Luz5HryUgXKyaZNtz4il4PWOt9qhT7Kf8jXPirjWf3If+MPHhKd2GClVvgQEB0ADXHm2Ge+83M/vCzHuaEAVMzoT+0T4h8gsKE/kWwivWO5UvTq6ScdctH/lDzEZ/jTxhsewoqm/+RiDo5Hjz/pxNR2+wdM20HGGJtEBfDFufYrP0tnj5Uv+CHxoQ/gsQ9m/l/OYFBFi9TWqiZOQk0cMGJVQjjtSZ8QlEQuN9M+sBoqBzXE59rvTdytCBa8Whbq2WeyhvhVL/S1fuYA0YY41lzRHZzhX33Kj5Tv1Mo3Kz7EY7GOxVvWjKrmJFXVAXX5/t94GtvIHOhtCN83tVbmLP4wDPG5JryURCtl/bfvEwlPPGIt8qvW5G9CD8F06MXHZXUDdFz5G4S+Ibgfyco7Nz6Az/PGPvvdg0rpY6VcW9Wg+WX7f/PchKPAlK5SJq0syTIOUBmTZfxOK0egnvtuDv/xGSWBKS2U9d+YI9ZgyEcwTfIjAvSnySuC8qtU+ynjtRfMkXKmO0cnblSz+aF0MLXyV9whH7zyoXFGXNG8q3TOtlQlLd3v/F1FLP4KHp7Fb1qVJpXlobRIh333xJL8pd3oUB1XwCpFh7OpPjjAEc3g048UrR+eLlZ+8more39i78P+H3uO//v3XvN3WelnV8VC5UbReLE8DTRv8JpaEt09r96ol1s/Ml2M+PEXigZTWiwbMOm0DlZLAhtkRJ0ftv3osIb6TXlzwnHlJ1wwxXWWf8b8ayC+lA6P/u8gZeT/stKuWLrfBQ8jNOpIOb6Xt6LdjqYgUyn65UGfOUiGxWiK/OZcDUMgVWu3o8+PWpOvpScS/fWR8X//7gf89r1Szq84oC6dcQHGv7E51V7BUs7nD7voOOyZOb1ouXRiA5OO6/+APlv9lT7l5JOlL3zy5b67XC47YComT4kONHLcnCOmrfhiQx+/G8YRUwT0UyScWeOfu/quojujzwsrCqiL9v96S4MzAPvFiWa2U8lKS02XUxREsb4UMKWPlL5SHVcaRfq9CmXbTywKv37LfV3h66e/nyu5TFIPgLUbu5bxY4P81DeTknfq6pDIv7svtmX4pGevx6ay5U8VXcvf6Ax8DPGmzcm4SSib+ryBFoYuZ+bRqC8FTPUQvxfKWav86U+XlnM05FtL7WeI1iCMorjs2RREvXAkv7uFb2+1YeKMWwtu5Eo9fPlW9WctV51XVb7Njc6Ax9D2/b3tL9dvr0FRrmfI+y7b/4KTECJ1h35I6r2tjkS9XAqYbsbmwRuvf0j04dtNOkWdH7b9CkTCKM9mbFw+lCv1sDF2kIkjqw5MpNHvHzb5x2Pi5HHPXn1nkPRmuxfpLnta/r5zB/W1NKwGl5s5LpDzT3p8UAPlYQjGLtZnSgXc/Kun1eSvq4W1xh9LD8A1BPpOACWQcnezciVGJ3R8G4sQnsRy6HDpc3dDV9/Isf++trNctPO+FQmb6m1peEyDKZlM3dLMlmWPskWtnitbigXT9fCXdmaAadToj7r86qX9HKKP/u35ZQVTCSgA7WFXzxLtX/+oHuenvUyqqN/NEofYyDKmsgPq4v3OOwUWyr6SqwRTTxyeUmaaqKCQxyNWTzBlrKnfxMmnVSf9QHCoL/kRUfqT8rLtD7X+EkxH/ATx0AEP8fPpPcMG2T/CpN/EIeJRvnaXWseuULbkiNnxpTO6NsJR3coQC2WaMlMbeUS5POziTxcFpn3L14k1598p+KngKNNfa/KsVXqqAaZeQNmM/QfWXfFrGWIVEn3fPP65lraYmI1VqsGnslqoS/ftukeDqX5TaTDVlmpaWWJuatckkhvG+iFf+EBRYMqZ/JWzfiDBNMr06/jDsMrHtg+z6xjx0SIdjuF3JS3TTIjiCI79JUT9v3Xpfl33ZLYzqHLZLNRFM87bCWEmr+M/lplKr2nWNutQlKyVOBi2+taP7C04CeU3EUxXf/lmuYTUe23Y6PO2jb9t+1ToTyZfdDnM/Bl545liIGJLw5Co+1sQXpWZqsQ/BBw5u0x67pq3MttTarlsFioY9Uf8x9deU2BK5nmxVTIzQvXN2Ay4FDB1NmJzkxQ7FFhFiP6oy6+e2s8Xf6lgSl8/QZDGQKmJLrKGttaw6D+iqOQn6kslq9/1ZbFQF8447/NxEbu139MifIC+qJE/OcP38CmXZRphVtimh5wDHOKP+e0FvnWVZNHn2YV40m6GPWUk9gGCND822DDWbEWV9xYb8eHIDbc87D1U1d9YZHTa5Oeu+UWQjQgcUDkRtWTG5o0wvDARhabSIqNhijyq5fiQ4hRUgumXMMxHwH6U6Y+6/Oqt/fRZcgWTn9SFZaQd1z+IDzyuM+qvtIDbv34MdlKTq8iNHsUY1RVy96zQ9IfNE55rDXSCKvAhP8D0lwDRNDAlqHrBNGrloi1TF0yjRq9tb7T11e9XdLkRz9rz70iCqYn8N//xBbEa+u3HHUDLmdatyf0rhBetEq+MXgdmJwUKqNj8ZDh8pscpi4AoSss02vlQ7BzFoY6fRCVb9aWbXMs02vRHXX711n7OqvuZ1V8PMN0kF5f419Oet5a6em6+8blcBBMuXDiOuOWnf+c7N1BAFX0D7gOKNlCJUxNOKoRDldkUbxlCTCuHq57KOeije7NRxomO/LWX/0pwAkp25hDTZ9sXbv0rRj7Nh+xhrKv0lW66l8uedX/lpf76ZwJ6TuPBNHFrwEZ8EihE+NAg+hqBW8GkwHabmr/vudvFhXMoHL2KWRHPG3cehxn9T/vislwBBeXqfXMZqK8NPlg6yivHWFuzaMFmJcXs+JRNOVvwiXKTRF1dfzlxpHT6qO+czDJdNdgK0O/A9n8SVAN4fqn3wQT6ocSvbZ+/9j0T3uU7JzBAbXRiv0nEHGnx6rjTqOZU8hHfOzkf37LW0anPfSJ1iir9tt20XAk15c2bD9lNvrT9DNG1bpWab7r3KWwSvVneJgg610P3TQFVf/k3iOeSgFLvAyMwTvzCrfyvI5ccTP0JZMi/cJ9z9oHqTVXDBffmUhc5fIheuf1rx8hdy1NsKvyLvqhOfJkyivRK6iIsryi2v2knrK/HS7saYEp+dT3BsKjg+mdiQxfCrf4rRVHoj4yPDZm+oTlTF+7zjX0Ktb1QfSCAGhPxe6T9TvPdEyolhxMRKw8+Zm/fflMOd/jGjyK9UZdXVNs/FCFH1Urcr5QTSkHr65YX3zEmiaGIQT+/xPthxXJfyUtSSwbURfucdzTAdAdtmclczuIp3kapTIc5rVM/iTP6chLKtcSjRC/ptO0FEyqsr43jh4mB03fwo2aBntsLQJVyD1j+XndXoQY3wkJnCpn+7SDxrFDj89SXDKjAkRvJFGmIRjznJJSfIZichPriTVIpaoH+WpFj2OmIjwssSidP185dpT9JHjifcj+yX01Y+wvxrF9jfRwoCVAX7XfuDHhhtpXMcYf7dBBHsTz4+IN8Ww1rzkMwNBz7UaRXygkNj6q8ot5+H3008FNpNJSFfz5aWpbnB6DPxLNF08+d4YOUtFNLAlTRF/s5vaZkTsrBjSYly+7xZJnPDl99w7ihYsjp/j7fveHnD4vuF9/OoCec9KXkYdsXHv2jLKqZ0A9poqb1R7anhP7pi5wyPJ/klNJ+XC9ngeKxn/sixXNy0YDK7fnwfEQRK6GonHd2y66wkmV5PJz1wy/5jK+hPnfg6fjZ30CMsk1TeTjps+3TcgqRfNiUKqUmBNYnnZe6vwbQP5t9bBW45QVljIQRH4hrxLdixFM0oIqEcweYQU1FIogyeXJZ4ymHtL7t+IN9DfXpN1193u0Ko7z0hpQ+2axs7YyIfGq2/YqwqvzlkL9pCieFgu2fLYYf/2MfkrZIwM9Po6c0/Y4pfPMvnqIC+5cfcO7oLVvFDL0zOkNXpIMbP+QytoiUG4a0+h7qr7nsV3KT6CjSG3V51Ur7/XTTrQhvkvvoGlwkgZLWp0Fq++zBiE75dWD9ldv5me55wfCqsPcf7EA9gzg39plrVxqwM3lKUYDavVXcgR1ak5tHK+YQVFUcqrfMJ3nLKfBV51eznrGAfmb1+Wnc7idfTaOnmu1XPrDw8te2T1mAmfqfNMyoPAXS+u8/CF/9OzK+O3UfGHiu0aIv1+WJj19htKUe96ig20qHUKnri++/Iy79jG5KwTxFT3b+pOisan2cOAdiPlSQIM8Jvof83O8UYHqkBk/eK5cweDys9Vyt4WfjEw5TdLypl96w0hd1+dRy+9VwV/UNk79effOCTbb+1fXEqya3lOeMuvYUmfu5f7bnczGMn7jaLS/RQlXgzQaU+vxyXS9xDngnmWT4x9fJvOeifTovAy9g2XJ4r56i8miVh579MUMWqdNWn3u76MPyOqYo0ht1edVS+/1YqH71bXOWnfal0mb5wyH6CEzIlqLPA3CPoV8/Nsvdsx+iC2PrG1ylFQm8aCTeZack+1HfgJpwEl9Ut3LRNKkdKHMY4i3LEz3nhaSelikVwTTJoT5DpELS/qjz37bfVPN4nr/+s/mJV+Qw3vQJg2BdElTj2BDIr363HLqHGH3TF325zTbezSXaTB66dDmE/ctJ4p1sZME/vgB1wd7nHYitskYqZoB6yRRPLjHVUw5hPT8U1o5PRJgmDvXXXHYvTpfSxt9w02fbFxX5mGqghx7D/qVC+kzvLwRBdexdXxct2FbPRH+4RHvEJZ8Vo67xt7kL/bWdD72AhhFMPXTpsiF9Fb5+JHHPlJs+J6WcG5TvQ8/mRy9vwycYGsebL/3r+NlfMauvNotOzTJHj+6oy62W2q/AxKyLkm6e74d+glb7GR/0tWMa+wQBciu2n6QftvuFd0TP28vg5sJKQDgpGbs6YMoEgO7uohn7EPiZzNWUEuj90BGe/iZuAA1GO1EZAyo+E9DSt9WZlu4AdmcF8YbJehzKII+HpD6GD4ox7tQ0dcN5vvGep9T7Ey9UpQxZ8pDQZ9uXQw9DKB9THSy2/6y77gEA5Cmmj0meR1cY/7efkTwUyA9ORG36wz+y40QI5ZOBZ9OIf5OevV5NouThiPGQP7Gl4Xq8MRAqhfelBBfmfHOq96067pZDWj/0zA/6erNu+NnDkaIvKY+Q8t+2L9U/8vTJtKpi+9fmx18VG+WWkmm3q0pBLoaZ/asUXkRNPxEiSvwzYZ4xoDpx57O0gJhkJpkSnTL3XxyET9+apk0YNnXJ5XHRpJcuqijLq+bbb6qIJfS3tdc+IIfwPh5VllPXzL4XE2VrI62PxD8T5hgB6oJp50wHN9qlH5l3RWeVqMqcKQLlIVgZ4sfvQ99plOmNmnzqrr2q55j9LaF/rTjzp4KhStVKXFm4GYthakC+7RIHCzDSCFABLFdKdFEGKZjDu0LKESnHB7f48p3KFSRL10WGvqjJw7a3QK/MrC6hv3Hv0xVnAFQ93zrLvH25ygRT+k1rRt4SB/NzywhQIc+ZOr40OYx00TQK5SGYiDK1Tunv2SAnotTbIgr0UcRRlk89tj9/t0zVBqF/BNXlZ94oOMlaiSR9pgg1JJgG0X62OQz6TRwsxL+CgDp/7/M+DGJadHxactYRFiqJlBMNzGmxyrIinuUw1HMDFD8z+xvvnutuGh2O9oedv7Z9rp741P9CHVPXB8VfbrCy4owb3W0n9d2Dz2kJL8dzOv/wQij6f1D8c/GtZf7eZ384H9cKAqqT6LtYgqM7E6VmHaFE+KGP65xugLDVc1WUH+u0A4Cq6cnMw0ifVw62feHTv1zyydcpvXW5rvce13pqIv91N/9VLDvhOrnhivc5pf6mVUpX2dLjvy8/pV5s+8KGH146JH8T4uJ8vCoYh4odTzkhxXsp8z1iOYf7pmkDwDSxCaFmHO1HjE7b3ojpp6lSlkEPt7yxRLoAmqftIIZ8bqZoxQqpYpN0kaHfbLgHfYd7XZShvQS1sNxX4mEeZuUF1AXTzv0C1u43kRiCjDSfXeKiUG47dl/jVVFUDAbxazCNAn2VlAcn9gbuPAFs4dtGJWkZGZR7l68TvUvWRk5/yspfzcRCuftyL4c+8ssTK7E1YOOE4RJUm/feUa2CwgKYfIlLSPn5n64n/iM6H39Fgl052ldW/heJZ7Aqm96ddvYXtn/puqyfSckLqI5wN0Jx+5B8U5DTESn7ijuFA53L7GSKCH1ByIPLCJl0zuWFBE9+6tjPEl15E4M/XNLIxLjE3qXuf9lB1ZZusrJO+C9pNflTZn7wZcfRGf8zKR1QoMrfTFth1TJxL9N+qcztCxvewE/6RfCgGEAVu2uTTU4wSVNVsTNVJje9jvlw1PMTD817m3/7vOPuJ1XD3b9hp89v+8iPprHD0VnAl+k7lg0w05iYpZCSSX/ZKIBV1g+HpbSgEviqbBj1yy//U+dnYYrBoczrU+Xg+x/BU9/f+yFKjkh00vVRxYdS2g+OAxezp5wW6rvTvk7n40Blz/Nvipm8VaqsjqfK6kGpcnXq247ZVzXE4O+mh2CdMu7Uk6rd/lKfP3DKRAzjuJHFjhJETSfmPCyo+E9axPyfAl1YsrBiaRV1Y9VaNwCWZaZS+VPt6/0yN9VedWWqXJ3+VefPH7hg768duM0LN8zLlGNOQMUr6hxiqJzl4pp9/CMTk2X4UrWPQ+Yhqx+M2X3TtAF7NEaNvn5yAAWDDtlTtB66u2g9bE/jyAZTHlXrPALsYP4/Rm32Q0DdjN2Q6LujBZvkQ8j0L9ku3U887fPDS3c0XRP6GSX8yCc/4l1fX+w8yNEcUEH8wQQZoGaa0maCbBjrub+jqUXGuLktry9WLwdJb/pLJIz0JYWN9g7YZaJox5aEtQSi+QCHADvkhJnyPwPWCa4b4f+WH36LivzyEZilzivvKPS/9PZGDz+M2g98zCIqfsqkf3pj+jkjnURiWN43in7zhjBv+6j5cJ++0zRLO4T0ZGsfv+Ez7Iyj0obH/SVZ20f40qTlyv+0XDmpQnB1ELGR7BRhlKdPsWSTf6jp8xphYeR/MO0bRpyc8uL3V3vFmRVQm5y+C2iaUmj6jciLZDkzd90CYanP9MGxXbkSQ6Vo4WSlCxeFkX6GtgzD5sHMbUpxgHIffu7HxdAzjxIMXie4hlF+bLEexqdan/9XlPRT0kfcQAot/4NpX0zhpODQP5myr5RyYh+XZ0gkT56rhv+eohoOew7wfE+xGvWt+M6NaeL3d/SH9+Q1IWh/Lv7RGiNgjPvZly2Y5hEw+TQCfJr00EXSHeL2HXVF2OSbh46sVWFrP9vjVdh6a5+IK5z0CCs7oAqxjTwH3FJziO4VESi3uZMXHhpz/uz4JZeZelJI6WMsIIG0Hb5Dm8w4QIt1wt1ni7ZjPV+uCJt8zUhJnRW29tv2KJxMSUj0A9T5U7+2P+qb5IQUfiRzMI8pWXZt0WQ5BPXsRDoQWTY2zx+u9tDxdpKuELRftiODrwwhIpia0pWH5LqsGjX7eDEYoJocNmfwt1r6ay4Mt9+FVD+rxb/kc7U8q8OfJhcvk+Ls50NNiNiXKEI5IeXNXXO+33GcKc8PQb2f4X7HL59U7Q5R+zP53gTLdMz3P28csZCUapE/6FNOrohB3KdqjxBbEAnBGXVv4nl9OEYLX5+nc7a7AUNvb2rBJBrrm/DS44uPQ3M/n/L23svvb4Iq08YH8U0jLe/MvIL666/94elfSr5ue6rIv6ztqKD8vM8nXkKez2qZ9gNUvMkPjuqsop/hPuMYJRjgzRZGepvwobTxsEwJPEEnBsr3YFa8D//5mRda6z1L1gTGhx6A7dYMvnb9462s9yedTRNGSHAdCCCmJc7PFAedRpzzcbwsPCFyGe2jBVspPfBFG9uFCyrZvkrxoUaekxY+1Q9QIbsJcnhExIcwKc20sitcaF+o6uPY99R0WMzYU4IICAgtfWOvC84yJYASOLnaSH8ni/LT9CsT05VnheW79U2ALwBYbrJBeSDRgh2I+FruL9CCaIYgLFk5qXfOx8SyL/wkXZ+roN+S75JSgz9VaF9af7fPT9cXiCyDP2qzA1eUaYA6f9rXdu1LCOwupTtbdPJBPmb3Nz74vAsm4aSv7WPmu2Tl6pJ8aZBOAlXq5QF6mUIuX7aXcaUaZBthwVK+3D2sFHCV4AwLmLyRoFZNPihJFP4rx5fh1NOw61GF2tdE3Nz2pRteozDTALW3L3Yaok+VsrHWtRiikPuJy0xaaSGlj+vvi02diKvdAP9wkkbvjUJKbyH96oU7gj5v/ucopP1zhwg/7h0vC6RvNyx88DYs3++wtNe2Q0kpgw/ETVScy8q0Wf5YXBymBl3AUtbiDR6VsqmFSutHze6Hlz5O3PhNXRjWL8Zu6cu/fqsE06jJz7S93IVq1SV3i8WfvbaoD8+FRZ9N5RuW9prKpx7bG4s7h2l5pgEqLIXtOSgkU2QOJI5CmVaL6eQNh5Fhp4+g4Td1Y9JHTixFUH5+5RHDRB1foMUM//XLtNr6bSrfKPQ/v/KrtfMBKNtreaYN+SG8IQlQq1xLetYz/GX6xkxT52OZs/vho09vUWdKE88b9sWj5X/6TTfjpbGJUQwcYURQnrn0r3WfneS6ffpSi0kcnXBlXK77V4xfPhov5YfzORFSsfYBCOzzzPkdj4khWqRJQH1n6llHJBJwAZCZrGVnlLmnzAMhrPflP8WnG2QKMX0bAIpcPllMItjw/xhcTGtczu7DHUCrl50zjPJL6luW9g06bA850z8IWxJy9r+UtP6uJ8NDvykh3v6WhT9p8rT1VZFvAq5T4ucOL//w0SSgikT8ExSOx6RB4yhNSCnkOYPGTRL9jFGgh0H0G//wPCZeirPENC8IQvzPxHsSVAmwHPbSCmbAfpj4wdC3gTvhiwL77ChB1M/IQ9OcK+fHF8nTUNCbq5HZjsu3ICoi0A/DjhNlbR/xU4gUoCZiYh9sL6VE6hWefAV6QJVnhKieO9Ob+k/pZ5QpRO1Xr9T+/OWqnlIBVRGr/pJHBKhMkCLIEmwJtPxqJcGWqesl9+VTBvm34GubvC1HFpx1pw+cQf2mclQU+fvb+firoG+zuigM8jdufoZRw+vC0H5tZJVBP6JIXyIWk5tGpCxUx9mWCJ7ynWgfQrhz7+cyCukoLVS+MqKwQmMzwJ8+v3KsGvLyiUDGlAm0+hxt2eoyV1iZ+Hg5PPdGK2SW9f0qla/96Z8p+FDot7SUDAmXa9ZD0u4o9Jtq4RcUa1uKNAmoeA8Ok43BwSjlA3dJW6hAmnImghTojAx9BIHRl5+Qk55KVGjLVj8r+IWw+s7lyznU50tAvkzxmDDotym1UdLXMPC1ivyS66Vl2NTL7//aUChbk9w4gqNPKh3+R6E8AN+KN0ldmIyKAj1yNOfyXw5T4fuzqXgO0He69qd/CZ0+m1Lk1Yeo6W+dtbeJOCoBdbBwPkABq+GFAtOolPWQtZCCbnldfRqXbwu+LJjCTm8fPqEsl1+q5tq/RXCAM/t0UzCFTd5G5ERIX8PG30q3hzgqARWm+sEYByn5JtFGlzNzVw2S51evPpffL5ui6smWFJpmtluXw0MfW7L2Rvj+bCqKA7RO19/1hLo2qa/urZJlLXedV6jefUzBrF87K9S+fs+tMH8i+HziqPShxpzYHp5xvjLh5CwehNcvxzHytt9x91Wa9BfocmYe3PWm1imeKEOGVLuDe352PgR7/x5MTHEG3s/Lg/TaJACmTwru8ZouJ3AmDPprKqB+/Swk7e/XLt3P09vHULgW7E0h5zrAd+bxwfDE43RGlWzBbmM9S9aKbrjkmKdwSN8vM0+/f38cql49tkHZQ01KxcS20qEMJoU953LDIR+bIQHGD6Dy8yH8IqacmIoAnV45rMemIBZQ0VF8JGmdgm9ePoZlllqChiEtbD/PDyMdufg5ALuDsb+1YGVboT466HAVJ0120DXT+di/ZT/t1p92B/25nhPC49tKQHWcxPAY90lh40GYFJ6SIv66IJssV6e+de+dxHAsr2xB0HcxiSDM/xQaZ88Z56noDQd95HMu/m+CkvUuW4sQKrOVQrRomeoZhKV1irjTsOhvpnxNdTis7U/Rk+o/A2HscCcw9rNiEsPshp54qPzf9Y+3xdqb/ozRGUIdJS7l7h/hqU8MV0P+WLxVN4qOXClEb64tOtRUun7AlPFi1PmfDAwcKLQxV3xODP/Sh8Tqa34nCFbJN10V6JP8NODvhgeely8UI0WFUbP49B9JOTJOl2vgaSlwuGUKykbPKeNJfIGwU3VjoQE3xh557ieMX6a8dp30nbr6asDfSuu/KetM9aPS7ffiQAOG9cPx+W6CYVCJhtOEfb4q++eaa38vtvKLEiHun4r/8VbXQnVULp1LMJQycw47kPod1+eVqb79czMlmAYlJO99CKzjrj9NTlqsuQlhNVgtVGn6ks8z4B8Bgha6SaIyEkD1UlNtseprabnysyPkAc/LjDXV51UiJ/jRd8a2cvSwBUM9xozqmXm2ge31MzJZgzApLkjQicrOlOS31ludV6let69QHtb2k5+UDQ0U6lI50uDD3ycNghWX/BLg+op8RD85Vkl+yXaknt/Y+M6e/7tnn3IFqzcAKznuR9LDjUqX40NaxBgEtJOZ5U58q9LXs/i0HwFUu+XwotL0mjyPAMGdpEx3WiJdKy++Oys9BFj+zyZfjggIsA2QAZf1SsyBPpTiPtCAThroG2Pib37jSYJFAX1jhzVNBOMNDzwnT89Gn8nzTOTBBxR9f1NiMs4r+nkF+Fssve0Y2ldi4Qn1cdz1p8tJxlXf+23V8SkPv2KNvbGGqXINP5guEZfM5wu9SmWC6cRbvqpmBTMUqlxFWmmTf32+WPa1W9KiAcLADyk8Vx60Uk0BdTA2RVnV1iwtbz/ypKWoz9cWgS4n+e+2J5ByAX0b8vEZvqwfjjZ0e8Mmv2R7kowz/FHF/ujVv2T70R7KpRJg6uXQ0BMPwcu+WayAoVAtfMrFD92euEgkpsiCNltdCzU5zKhgmW+iibf8b0XBVAuMQ5aJt35VxAY3K2GFgB9sm7aomBPsJODpRufJyUtODnivz7xfFMqmbg7SQvdBx+//Hlr5JfnNH34SjZsQ6SPBlCPIaiTq9JgrTggVP7z4GY/FY9vyja6GE8jhwK9WmULi1y6rlQhCk35xloyTCwM/5LssQx4MoTJNQzHjWk15Zmu/n/a0HevPOl159W+jQa+pAPV5IemflGcz+me1wFSzg6A67MTDAKrVxatsz4+jVeO1uSr7rjyLmMr4L/fNKDG2vGV+6bMSPlMtlFw5h/8jvvyhitNvym9aYIyxNEm0uuV+qBWQn2n7kxazgX6N+JLZJBx5QT+t/LxNlfTXF/0mwvOeExL50a/OUVwY0qjzPwFwn6As1ZDwh3gZTwgxgkqedHiDW2p4oeLLyLxy13OLutEIjSolEWT0ZIt3hriYe9KyY6iR4kP56ffL3w530sWENj3sr6Z8/dLH82mB+Jk5XoPYYq+8OObylsNEv4ncvOcUw79y0M/wRY7iik10V+k+ytzUfZXredpSDgt/2A6GS7VJZYPFQCEAPhS4VrA8+oJPFSUoCoXgwu9EcSORzPbT4uX/IUV8g4gzy+8dfVlV+FFIHh1znhTDPnco2lY4cXJqwPgRYuvSNTi5OvItRE9mfUNbq/BrnXIFXFToKyy19DMy+VONMsPWiulHNG64yGLTY/9CKNw6EJaOL5xkajt8L8SFH+3rBUoO0T1Ig2EjYrQ5QgiD/OPoYq2qMWwiG8W/Kq9EOTkslU82+8M3G8OcFn3+hzJERoGparn6q9rPoP3lF90FYJwt34xmd1dnsV1D4Ibw3q8S/DB5HsGRH+EzTe2zDnFPrbx8TejJ1Dc1m2tuCdE6VSka9LmNNc4y+VONsp/JQU0YQ5zY99bd9bgbV9xfPgyf63jg7/K85Rf/0tidpZ8xAgt0qsEP9fz+9MRhpWJaG0nWcZikTq1UefiXPuw+0CwjkBBINz+vLBKT9vItuehUgC/iOP0kKawK88OEHtKwfs4TxqS0Y3KnUvI0bX+u9sSwccYwHytuNmOUIq3TKulv0fQaSq/o+wfID66wowvMNNH9tuC4qwGkT/rCE64GXIh+6scVoAyf8Oh3HCZqkxSaHA3qiSewjmVovZqYcss4Ma1cYn3T+GGi3bUC+bRCiUP8pf/3c/kp4GLat/zCu3yBKoXVvCsd32hZFfiTj/+bX3grbTVRPt7JECqEupCQIOWXr33FyIftGz7rUF/un1Xfuz+U8ilIfz6BeerS5FUl+Q3hC9kwEUxToJihbwbt5zabS876uS9LVboiQtI/4wnHaVBCA2qgUdLB6+bkYVo54HquUDJNtDKXAEzT2lNE+5ZdOMfX8J/KVC3+kDdp9GbwP7nXpwETh2GirdLyLdT+zHou6vBjnXLE0f3a4tDKJ5M+L/8NRCZPySf/fPfndUHV+4m+Wfnd++WHHkt5PuOJCaqmidaz/PZaRv8Iin4//R+TUjEO+5H0cL9yeQt2kDJNa278s7JMA2jniqvvF9ved4HRowcf9j6x6dF/G51bjpO4OQj9TNnks/73z8kQL7m/ZIGH04FPfnN4XC15F3ruqPP9TU6u/smfsvLF+xzS3cD9N0OUTD/bwyYnl/9Wqf1NE9I/tpivGXS/dGDYrlJpOLIZG+PwXqYj2NZ9dpYT1Nn6iVcfyl0PQHXifAhyvOnJBKJrZcptnr0QXSlkzWid0nEdVPv4ORRGB3AtcqFEhZp021mFTitbvfQXQ7myycfB8GojwN6EDjawHcP+zf94E78qI18/8vLr/qH8aMmQL/noYQRJKzbwiGoafUFp4YSVpFuNmPLLww++rP3pn4wBlVEIGx58rqL4lU2/AabsXYoJ2kyvRDmO0BjTmDbO1rOZQbaPW8NFJ+WWj9qmzowS+poUz3PfT92p8vUjvvwRMyLcszhiMdcHX7e2JxfBAfpONz76L/fKYPSHW/bRmDJJ3D3NXB+CaV+252GlFJurwcprpquHlqueK5JMEzfpUI0Prn0bksI3bUWVzisgny3wIXKoZZoYMO+Vd7nkq+Vlcv8mxMmaDu1IJ18i7GxJWyCf/vICm8rOgfSomxSemMjfq4+p4bnCH2VMFW6+wpPg8MGP/nrbH4cuSguVjlc1rPTkpC7bcXBJnl9qfWE+yTO6X1+knqefq/MSns/hciSSAf83cEMQw6SAKyD5lcB/r/5wqa9poiW0+sY/meuf6Y3teSVxQIU6uXoVQP/U+qHmDwo3rUGu4Ar++X7xz52QApRKSygjB1VZj4M+ebyE+kaEJJkmMjVrO0p4Pu/nx7IzbWvQ52WlGw/x8p/+RD9DI87aeq9nm7M+p0T+EvWy3lc/D/WcdDH1AbOda+98Qk7Smbaf19hUfg5klbOB/LNeh+Zq+er9c00pSLtfAM9Pu59ul86z3J8+VNl41KUpvyorlOVNg643ffOUs31xbtUXgWTCf72psgk5DE0qt3xN7+9n0oU6s3bO4x59NdNPE57Yc0rjQND4oPXHdJ6FrfeCn75eHy9X+zLvD0BVZjJ9Bnxopcp9+ICaaRqAmfZytI9bkYU/mclnvY9hv4zbwwihkvLOJr9B++7kawUOfacJ7NmgO4tp+8Mv4+i3kMBnKg8/8uPiGtNUjuf7xUMAqh6WMecb31smKd5ysPWmjFJ7pAbbPs4KRiOZ8Z/fZeLQ3zSN/PKH3Te62f2VHgQrfy7tNU20Ttfc+RhO97aXV3vL2dtn+gx7XvEc4CdyyoEfpkYPXV7leL6JfinLmHroiDg2FqAWImlldIuyzKPesroodX7x9SoeUt2p0F+1UiPY9rVV4HtVhegyqffD/w4E+psm8pRWhZ/7p0CVT1F6Uez1rYgb9LM+nBNRCf3NL0mk2fN1O035Ys8rjgMEvv6hS8Xjg5ab6WrKHnc3NQWqpMFMP4rV31z3525T7sP5yx1eysa45TLWm26CoDp/a6DtUyAtiQv1Hz/y4UvKdHKKs6JtR7wP9h2TellVUv60kE0TaVorN4Pxr5+mz7Dnlc4BTi7K4bxXn+Rti9MvLkRRs/eF27b5eb34hVrseV4Jz5f9wef1jbBPHUT84zt9VFZlgVYq5zJIk3hUMpWbZqx2g7lLbd/QT+xnbB1x6ef8T31XmvOlPrcS16/CcszxV55YWANxxkgMudf/LrUCrRLto54NOXIvY/6TEFqnxerngpN/UHG9LsTHQfvuLCYbrr5bcMoP5N4TxdJf6nWMxtnxb5cZ6dOwWYchCuNxbGyivh5ciA+F6qmfpqnzebUCsFR6S70+DgzF/ijpEx8s03TJdly+gQKqV0wwYxmFRfAt9fn8jAOXI5omxnhm40Ml+JPtuYXo50a+phEUHKJxYijbc8pJn5+vM9A6VaCfro/lbB/5Ufb7GyqglndmXvb2uf2/F0NptXl34QbT8Bl35SypT6W2j0aB6TwH9b0Lu6959bjU5xd7PeJQYwklLOiQZKLKaTV7y1LHAq6noEw7P4U1+fb/Ux/QQzuKaR/BdPJt/2c8jKAKbcBa+Wx8KOb53vuU6/q+Ddyw19yX2v7x/SpK35CP7WfcUch/Wtxevmk9LBf/KnZ/EmeQdHsy80rS70ef6EaSI6QS8IMjSOqladqIpenV5I9XP2GhOn1sDFOlc3Z+xhWaJoLqDg9frnbg8dlevu0IpqazhmwTBdWDJY6V5kupz1tzpzlP6fdqxNJPplKfa3L9KB+rouhu4UcJTe5bqfYH+RzeyyRVm/6Nj5iPekgPwZCgqndB89P+MRg9jvu2mctK844vXSY/zynX+bBQnR6at9LkYyZffW5egfJahMKYWqlsDkF1u/u/IUaiY/K3SXtHfuXD8ho/YMpn0R9kcv9q8i9b+zjjaTpMI51Dufk05S4T8jLpAzua6TCOTVnxnd/gb/naI8mt2v3V0wv/rT79fVju68fwIU2UNfupXOpsoE+M+qCvdvhJhxVmiecMafTIGf7y6696bH55NMJ72h3DPIHqRWwUqJdtIxfKX+5DKAz39eSkk5806isfAfMPx16l/xKd+BwKfW16a7pmLGdkQDCHHwzN8dOJdRsISPp+leRHUPxnBzANS6J/Wr3lyydvfnjPj3Uadf4X7k9a0wrlle2PufSPxsVw6ImflUvsd+OvOkmwr3KbSfYn9nf2VRWw78gP9LGfFtNHyTm5J24F8SoXf7S8G4WTwNITbjoFaMU/5dhFXsHy6p/8UbTuu6MgEPpJtFD5JuT/IBMt5iXY2Z9MqgY/5Oxnifznblopxc3PHcXHGRheq/0kg3h+pv4Mg+Xhp9Osgk5Emf+Z9HvL+aWRWSvRoqL9MZv8e7FCbSn6xMQfnpHZwIJlyp2Wp1/rs9CNGf3R9Ro3TqosXuV7XjwWj22UoEHwwD9kCkTcsnK4umBbpvpeLENd9q27CvGvYvUr0Zl7l2DlBf5Vgv5y8X/NHK4sMktDMVlULvlzzwRaN6ZJWadvR57/ufTHHQKasiOtP1ajf2r95Et6PTZ6D0Oif539NGz9M46gqTUSceHRdXfyU4jvlunorUQ93zRL8RG9aieuiV+HIHKtRJWiXz8PKJLG71Kev+F35rP9rQifatllkuzrXnmX8nw14hFixMmH+4qsoPtB8yOI53vpCZK/mj6/95dWiw9F93t/7/lB82/FVb8RBLNqJo4gF/3vzRKvgqavVP2IO7H4UiqvfvMlc3As63HXgiVDg65f/7tnfTu/gxQsLSMOayRdZaAvjV8VuD8tfz8WxbBZh6b0IKD2MVSNPlrTxEkGHZ+cxi+tdzoPqH1Jfdf31XkZ7y/fWqYMydWOXMfL3H5OUBHM6E6qRiKYzj/5Bjf6JgtulZn+pL7k4H88kUjM50lE5rSc3JKNyziuzytT/XLM7PoBATYjiETLdNFXb07xgTetAv1JOQT0/DV3PG7MnrYj9lIftKM+MAVA//BZ/qxTyl/qYUDPpy6avAkAADE6SURBVK0g75eZV/P+fLZhYrPD1n5Gkbz7iatgqS42pCKY0zSYJp8bgH4GrR9xfEP6DdmJSbOUXnou+1aW45JFOF6O+qXfnCOWf5chM5VJBNOl35rjflUVz/TQWw76Knn/La8vNlZ8OTmFoOqg2sdPm/iZiKAcGPcb1PN5n1DKz4dah7L94GsfLMUFJ93gKzzPB9n9TiWI0jKVG06HuH/GY078ZbZeTkiEKOdWbe9+8jvGYNBPAgYH+MZbCKuUYBo2+oNsj4qnNWAIThnhDs+DeP4oxP+qWGGzZ0vfqYumQTyfTw3rfcw44n23KBQJEz0E1fdOvt4NuTOlyP95DAGcf9L1EkzDRD8pyWxPfNfXf/wKROVIBzuqVc43uycUARdWo9yFb0nxLciORvALMtEaevPIixDHimVrVaKPwqgEv9dhAxRT/jHEZTCG/qXKe8CEkVgwYB7ORnlsXbK6IvwIg7xNdZkWahjam08fONtO46cTcxBBJt5vwSk3iGVwA8mtGyvUX0rgtyM/gQKh9XICQDJN5hBiSMqcWGFM4ptHXCSBlW/FYhNBhR33rQ9cIpZ8804lpJDRq/gePP/V5sxmnBuGYX+p8qd1apool5U/RggM/pWL/lLpCfp6U95APcGV4PUhaHoYpbMAQ/J34FtlHyslcWKSw3veb9Nzb0aCfpefvdJF88ouX1qPUIt29S6k9PBfBXi50nTLsqL69VwAMPST+4shsKRMP5HAQH1GEcgUcvrKwf+miSPFztgHwTS9iZdOz+LVRcmfvtOdH7nC9FHyhblSrsemYJBqXD6D9tlZbHvH1xStBf7Oh4XWCVCR/TEk/c9EPg1DWuVKRW5VyP/5+imNJEbYMLpDLkhZDD96iPEnF/0YcXY0SnnGYvx+QHuKCOCsfDWGM2cc3PKr7pNLTif/yGzlRg+FxHddiOkqJ/8Jjnzzm36pgL5UOTFYBL9G/+9HCsBEqpqdSW7mUsRzysmv8upJiv6Cv9JeLtHRX34zjkvKufWilhNf6gP4jSiQoUBJpF4WtSH/tWrI7zjzpWBJFFNEcmlBqRYX/Cs3RokIXeXi/5o7fKycov+zCH7RGvHjO+XmOMkPNhbxPCn4yF1XUF3TT4gcfdlxhP2VVigtbp1HU37Z6cMu/fMVoMacf8tT+AJ0RZkqqyOpsjohVa5efTIeLV39spaad8U+ARGjT7U3OP52+vlECgLyh37SXY4KjqbknV/+fnyntE5X3/GovKHp/RU3vO0Jjj+V1I+sSprlYGoWGZV1rr9hpx9bof5bAqpIxOZJKxy6KXMlO6m1anbPPR7CetOZRfpd+aKPGn1B89+PlTrixMPBL0Z7mMm/Fb5BWqimSW3diM9lGN6/luRnyiM//K8l/rCfUjGiRD9xVALq1i1dD6tZKtLA2X7k7jDDW1ZgFK76bswumiRaqI3YncpLD6/zlsNIX9DtW/e7Z2RQtinPBu6Cz86QT9CHQvwZ6WMvSy5dJLgHTZ/3fmGWrwn/w9z+qOCDVx8K6W+p9cRRCahT59++Ho7jHj6c7wSZY5YtCmW5csJQO7kBSNToC7q93I9yI3YNMk2MJzXVBy5dNU0rf/yQ4JZwQdMXmfuZMipi/TEy/A8e33qIo2rIT+E6zjqa13Jc7OZRKMuQEkPlHLTvlMjRVw55MObTNKmvHCi9KKQPpvekdbrut89Cy6Knb4HJw5RZcqRoxv+65qccQVVVn9ZRpElAxbek39NmvFQaIrg77A9zeSvWfpvufDMIu/fLRLoiQl852ruV8aV+kiG/TG+58kcP1TX/ZX8yZRbPM+R/FPqrJLsG6SF+krYkoOL3CxJkeFSDjTSLw1/W272x6fkS/ahxzF5Hjb5ytDcfn/rVmepDvwuzH+Dsvuz8EdGvavKfTrhyPL/e+R80/ZDSCxRVElCdROJ3fAiMZqns3pxvSG8587xq1/sZ9rcf8f7I0VcO/lL4Jkm+rAzlb3I/nkM3glefykFf2O9vyivSUY/8Cbv8MttH/KSokoC615s3P4pCghMQ8mRUqly+I3E0VQ5bvamFSoJbZ+wUOfrY7qD5z3uaJDUxafZ8k/vpc7z08Ji3HDb9Kkf7NB8K5X74r/trPfDPqy/lkI+f+4PfCeIn25EEVBYSIraBsMmbMak8/OUtPvyoQw7fK3L0lUseSsqF/prLv9CdMuujol9R4X+987Na9CvcVNqdBqiA0Hf18IK5TFlyvgHDVt/x8D9Vewv85aYNgxl8noUueak7vK35+gJ8SlZn4VMu+ZtODmo+58pz3V+fXxP1SQYX+OGD/zXFnyx0h5c+4Kab0gAVNDzudYBLUMHEQWauHbqZx3W5GvVcVmmaZLxkFrqq2X7yvaLPN2WWp12F2mcePYCXdZb7Frp/TdWXgf81xZ8I6YfETVeeaYAad+K3ajDMzDOFFbb6DbBQOXtskoYciWE/34AQms7DTl/Q7TPhkzzH5ZPp883um+K75X8Bjvnkv+ZnZm4qv8zrdNlen44Xmi/MiZtaimmAuudbN74GO6mHJ+kgYQ6v9MVkqi6Hsd50cmoAdqVv2ZWfTE7Roy2mMNPnbW+p/NcKYJL7kb/R/eDFLrX9Ub6ecvST/PC/XvQ3RPLvIW5qeaYBKg9C1Evkd73dqRuKXn/nW1p0uhzC+g2PmC+pHIlvxTNFib4g+S+JN/zjR/4mtxw8Ywr4rkClHvkvX94mjHLP8cP/JD/rmL8Vxq8lXlFmAVTnKflGxFlK5WnIucqfmbt3Ckt9xyNmE1NsNnf7jxp9/fhcIv/dywtm/Z6r9SDj+caWV47r+z0n4/61Um/MpxqlPynHGqAPhsFTLhky6weo8UTsp/oEDh+8wg97OYFdwk2tVM72tx/5/kjRFzT/tZzz5/q1w4C6/PqQ/z79awvdr9br+3Mk2xFz/tc6v8JInxcvKb1+gPq+t2/mh5d6WClFydk2N0Wh3PGouZU6DN+l8g6/okBfkO3Vcs2fm8vfdFJQP6/e+J1Jr+ZD/tyc/5n3t2Vwtrz41ePiZVKE/QCVNTBjFyTNcj08i0jOeFTTju39yF9U6S223UkNKPAj6es0kD+/fGmaim13rVxnzCfXMVUrdNcSHcTJTDlmBVR8G+X3dOxyuO/NyQxvOYz1/CTxBh++1OGfOiBJZxToC4r/mYqQq5ycTXVDzPI9P+mUznUzz/Fs96kb/vtglB/+1w3/cuBQpeknTnpUWv7MCqg9sdjVaBzRE5iJgYOnM3nL+rjO2UnCUM+9Nk3TsE+oYb8iNxzt1/zMzIPkryl/pIVqKH/lZDW7czY9CZK+UN/fB6P88L9u+JcDZypMv0OczNT2rIC695s/Ww37dJ1USlwhwQZKkF5Wx3nDsNVvfO4NwX1STRJjUjn0pyUQFfoUv4vnfxyfgvGTTOVranh5d5tiO0zvXzPyMWWUK6S64w9tOVcvQqwf64iTroiSWVZAVUSIuSSKSYINlEAOP5JlHlcpjPX6a5puE/NmI08+AtRFiz5OOBTL/1YuavCRTOTLfWZb+GVZg8QIi1Lar9pTPP1huN6ATclTTPhfT/obBvkB8+cmBeT5kRtQG+LXyllCnCyHHVlzdacw1q/1MewfPGNnwf/96QgvfWxZqfJR1BX+258v6sn6+YOwJeLOD1wkhjAMzUfS1xe6f63Wm7KqVumPsvwd4GM2+eUE1Klv3DQPF2zRwyzde6NS7uvYLNb+zo8vFZNTSFGhr2R5SGoL/6ELXSY39/KHlub4bx0ndphzjqDrxFfKcj9e771/TZcNmZWP/+XmD5dn87NB3J1twHgl37qRT3793OLiYz8pNvY74jkAJ++rKE6nUOEHlkk5fqNRXvfbZ8RwTjoZpOGISV3xoz9I32tU6SWZpvIxYIk8hXLPxg/ya8KFnxYE1aJSBPWJdJryt1B/MeVZLv4Xur+f+nhbq2jDF4GHfOD9GKlNyftyZGhc138XyUiaTf94S/RhMU02/fDz/KhdLxyJi1lFmBdQEyJxMyyhnykl4qS/mriJSr7puTfFpuffVPufZiU//eCYs44RC8+/LXJ0+pdHOt35SlrZaZnwOcM+sZ8Ye9axeTtdvvuxjjLR96vPvBCHUvWZ/A+SX627TRYjTzpcyNDB1CPz/qLVyv+8hmDKuO8V+CT4Fnz40b8eRgtPNH3YXurmXEzKOeTnBVPf/PnP4QCWu0/h3aw6gZtHpbzufvNhP63ZgfwOPbU4ovRKh33B9udSh/7HaUiSH8M/eYDY9bGrxOSrTy0JTPmEVbc/gr/R1Ccz/hbSH3LBLGn+B8kvRlnseNe50u/tB0wzW8zRCa/f9fGr5P2axg+HVJVcg2xvyPpjD3Exkxe6nBdQ1UnOi2QSupV6A0nnXXo5zPVrfjvPOISK9NJKpTJ46Q0zfZyw8N8+UmqWGAGx2+PfAZCeIgZM9OknzfIIThZ2PMxdwVL65L/9UZdPFsbkOKSgOZ3eUvRzzFc/KqY8eLGchM3xyKIOc1J3tye+I3j/UtqnJuDS6Q2TfkBvX8zHoIKA6iScKzSR6k3B21HM+CstIZZSb2RZEbL65T/8g2qWwV/6BgdMGC7PjAp9/vlvwAj3lHb41YIAUt5uOXzUCy+4Db+ipT/++VuIPpe5hlkQz28YMkhapGOlwWD44CJO4/13vOts6Vuvxf5DPMzHloKAOvXdW/4EW4IfUsd9+OZgolmvfqm/OB7ielpFpoH+pGfChZ+JFH1SLr7475Vd+X+T929/7vti+Q8fch8WLf3xz99C9PnleWn9q2XXyRhlXKk2Vff76CLO58TWjned45mwLK39wfO/kHyy1xMHiYf5WFIQUNXFzlyFpRpFOVzz3hbHZTm89X6sVFplbftN8RAYfvr88d9DWpl/co/aN469AhNRb+BJ4dUPf/wrVf/9Mr14/eMEkrYY/T61lPP53CkPXOyCavHtV20IzfVzC/HECFAbHedCbZEmzXi3b0SlvOb+Z3xaqZ+WvIsKfX7lU0gxgqhfcuWvxbtf/EkytIb3rFV+lov/pfCLk0bb3fglj6UYhFTN70FXkbZU/fInjOcTBwtRbwSo73vnlhdhkXYoIpU5TAs1auVlPnypfMMOw8w2TW/SGUV688mnkGKUUt/12mJpla68Tc/m1x7/StUHc/4Wr38E0wETR5o/qgxnsh9N+Nana6H/dBAHC7HICFB5E3TOe6lEHLYpZdLDnuiUGejvx5c6UQaut0SW3nzyoiTLkRgS9faJ14rN/10o+RZlfcnHP1qOpdSb8764/jX2q8fIIH3z55TvTIZWcVlyKfwqld8BXH+PCYfyBvZ7b9C9ZfDXmwdu/AJsjbgahvDNyXF/tHJaqdsgBMgkccg0DkHsi799b+ToLCwXEw6Yn0OrdMH5vxDMCaKFnx8tvQmeHlPe+udTE6JURp1yhOkD0s6jwdHx8MtivRvaRropT/aFoZhbaP/AVNHgc7cyPoB97j+HfhPuH85vR04/Et1b2s5OY1SOgjGgHrD4+q6Xdjz9JTBjbx0XJpWMFqvLdL6CyKxkGb8Y8pEsh6B+zf3zxAi8Mbk+2SRRMddjNcim514HueGnz4T/qpOYUF/4HH4dYfG3fyXWgq+SP155h1D+JvxJ6muZ2u+P/wp85EvKUP/GnfUx335TAumCC24XG//+eqq/ZtDPCUYHKwlHfOpAGBrH+FrgQUAefeqRYukPHsx5//D2L/ES8a9wb8jyTal8F2GH6q/JUT86jUoESya3LMHUU5ady1MOSf0yCNVPmniRmqCi3yON3pDSl5RHjvbx5WD6mZhcfOL1jJz4zyHfUGAqxVwb/CnEv+Dqc3E387h5/xqIiSDGUvtJa+EKoxw3STDllfn7N1+erx9zufDzlWHedRQWiTQCWAvdP2z1MKO+xvabJGMfKm829Z1b5wFT5KaqyGVSOS03bxksSSuHq34TNqCm1Wma6Fjn+nWmdLp0OVz09W9n//apCSNJkq8/3BxjAYLzX535DbHshw+KXuzqRYsrO1+iy590eoKnz5jpsh+ZP3/UKUca35onLoDFueD8233Lj3JnBMcagLFpopXKJcxM5eZvgPdfTdwzpdEXoPKmsZhzExuL0YdkisxpCXnLEahfcuW9vqw0DnGaAaxZ6Ywg/csBhqadgSDKyabXYJXQMlnzm2dEYmNqlyHp1omY/NPkWGH5JQ1Ak15Kvvpo31Afe9JS/rRO/dw/jW/o59xMyM/HGeluixZ+ODeZiEmf4xtQp74z6VIYJL0ppqhhXlo5rXOFs37LojVilQzr0awonG/7vVOhDJkvj3DSlyYPkJZWduXDzkArQw/dOIyn9c4yJ+9oif5r6lkSRBdd8SvRDWCtJfoVOFRefq7fqLDC8QzqWw75Zba/dbdJxmFS9JlS/sqnnF0/Mu+fLGf073e/9BMzWnAWR3sDJ41I10dD+nI935Q/fq8nzkm8M6bOn3c8edsXtzv9zyIujk69abVJmjxF3RmHVQpv/a4PXeJrSR6BRvpgpRTDT1/Y+V+P7WvD0syd7j5XK09Vcr4sOdIIiv8TL/6sGG3obqCbQY6Owo4PCfGX6e/d8iE/AvJtofLmjfHGkzFBlVBvWg2WzFnr5tIk0mX9StNlnuY9v3r1i69gSJR54tBfLksNSfsVv6vHP/v8IvXfXOUCP5MjkTW/YVQGb11k+zP0349PXi42yLg+HQ/YrOriA/GNOOeX+UUB6l7v3LTScWLPSaIpFRIf0XwjNqFeKffnNGcdY+q4e0+U6Y6qvGqn3eb6FvSZG//OfRWC7bdbF68xXjTThq3+gn5+0PcjvhHn/PK+KEDlQ+KxXqA3cNwFUzq2SVQUy8t+oD59Yso8vmG3+d4pkaVXyinC8qqF9pvqWjnO4yRSOfrrZnwaxSwBJ8Ktf47CNzNqvGcVDahT3739LUDoq9LRC+Zw9EAmRbHcu6FTLDjvF16+FPw9FCtGRiFQOYr0SjlFWF610P6CClbGE+TnSsog/67XFhq1mvsNhxsvxKvENyNiMk4qGlDlfRJ9XyCKcmWJdnlkz8NfvwHDIL9D/0kXfUaul64F+rPLTbuywi+/qLU/ox9WtNiD7z+l8ysY+ZoSwRFeOZ4vQRpWXv/cnD5pFRLXikwlAere8297LhET8+UwH1SQSaSmf66o7H9cnx+O+qU3POgrpo483+Gmr4gmfkI5K93hoi/s/K+X9nUaD42pYcGnZnycL11fg+l/Dfh6qkmScatp/SWY5wehP8Qz4poJHdnOKQlQecN4QnxZvRJQAJNSrx4UM8phr+9DsPp8n0N/rv4gqEplyqA3avSHXT610j7qGffnrVZqHNKCfhp8/2xBHKxJ6sXXUsvx/CD0Q+KZCRE5zikZUKfPv/UvIpF4R94fQkq9+lxLlVTKVweqIlBPx/oiubuUpMjoDwOqOfyPAn1Rl0+ttH8RwvVK3U/BSDmznNTurqZS3TK4/sn4WpPEz08zBf38APrf2xLPTIjIcU7JgMr7NsQbj4crVcIlJwyo9ConxkSvvPIXj2Ct/8s5WJb98Ij/OVDIlVQRpDfq8opi+zkR+t+PXCY2YmVapVMrhvz6w4tB9c/2D77fmIwuGC0hxAenIRY/wZiIHCdykBpIemH7019ELOw0OUEDdkU9b0Sc6W5/vNTXFmVk5HysAln9m6cjT3/U5Rel9hPcBmKihh+3k14j6FExOSd7uFbeJNHl8N55twamp7s9NFtwpGaS3jjhe9jZ6k0JqqGRUyz+0t7v3jLdpP35zjHeDzXfTVjX1yf+pzEeezvhIIQLzkNOVEU57+3oFO+c+WOx8z3n+9pQl1Yq0+r7AKo1wIeoyzEK7WdQ/JZFq7EX6Rsl9ZvG9kHGgErgXXnbw6LzP/yyQmn9dcxpHzQGU7lfBME0RPgAwEr0Ar9kxy3xTyBDfrZhxoJb3gOTnuCrlcySOYe/ES534jMei64w+vJBmhjoT23dfbIa1kSYfjkss+2PjD7TjeDHVbXz3eeJhvbWkuijno/HcmzTtP5vL5f0vDLhyRPEL1Ma8p0XGKDyIVt7Y8cBRfpINLFUJuYRLq++b55Y4XNXKs78T4Gy0lcl+RBh+m37o6W/BCzTpPV04CR8yK+I/kr9pp7zPqaJ7rCQ4UGfxC1TAgqcFyigHrD41rV43n15hcMG5RNeCOsXXX6P78kDrax8g6fRG0L6bPsoFCSvXupy5stQH9d5yOpXY9MTPx+iJCju9tCl7oY/JArJy4cc9I3BKkG/YMoJOLmPgMH9k+3I8fyg6uHD/ZWLW/KWpf4JFFDZmL3nT/4css2SZ2CGHP7jQLLsSitZVsEBoa9/64wfi81YA+0nJUEVSpukN6L02/ZD8tTnCMhv6Q0P+FFTaWFOwVwB/7fjQ3zU26S8Pf2T7gH6Xvd86mox6ZLjfVmmbNDSHzwQNv5tnj5/0ixfzCpwMvE/8PT3bU75PEIQbtU3phJyNk+nqJY5E7vbn2b7mqQizYy7e+P4a+SnlVmOKv1sO5Ntf/j1ea+nr/EdoaKkq/6qHamE4Lp/fqeKICtdWN6TfPymb/dtGCVModEfJ3baPgtu9beJRwGaUyhX4ES/1c9ve+qbANGdNPNqJedqkF3uvaBoUO387wL5cqkVflg6whkiWKye+u3nJudzZv8/H75UMJohRPry1r7zb+M+goGmwIf8unWJuPMRMC/BcRKZWCs5V1K9d27S+NbkFszl8P+e88SwD06rKX7UilxrjQ7q6cLL7y6ol5U4gf1liwumIeFzgvhUDtobynFT3vOWdf9ce+bQabvDh7q7XNTvxp3BqQqe0hml4lSjWO5+dznetqslOPrhX3xgkxh+zL5y0mCzG/8XRfqjLr96aX/Xa4vFAMzglzJU96Pf2c5diAnd1dy3IFz9/b4Z7912c7b2lnqsbIDKht28/mO/XTqs4zyYZE3ShaoMVTpR+KKKdM4JqmJAlXwZ9sGpzDDj+Xrk+RB1OdZ6++m7ZFhUNUB19f3zxOLv/SZs/XzzPvO3mX6ZeIIoFHgqK6Cy0acPmbY4Fhef8Bim2kCIfM5tyOi05zDebxqy3y7S2b8OcYOuwW5zNXCxfAiYD9UA1XcxzJez+qkBaTjkmoidPrHj+n/67a+m59NOLHt6fvIpz4Gb+2rDVD+wVsojsTHKdteepsnyldNKZUgWIwFqhR+aAZYeNQAJCz+G4sW//fdP8z2hqttvknMC6q0v/EiOvsImfyyLf36/hbfPMKGj2HPKNinlbdDALX2HY2KqW1piEjbcUQDfxMkyfaresutqjUA9g6n5Ri4mtcFS3R2hWJyVjSr9pJtytO0Pt/6uf/gl8eqHLvG9SMVUrznE/+eB56bANK0/V10/uluAQ6a0FHteWYf8ulE3df6758z2aYvwxvqEdhoyLpVvsFopc0uyYof/jYjxG3HMDLF1VQdiVReBJ1C+GuOPpScc+t63oUvuhrYRG5TQt8rY6lITV0C9d+4vxPJfPCycLb2h1N+4Ez9t2tI7XiiV1kLXV2TIrxvx3DanPovZvv1y7W6jTBy+ybLvfhOFeg7/ty9y+E8+Lb/1b9iQ5V6wqT8fokC/ns217Y+G/Fp2nSTGnv5BLD2FT5+f8jFMW5asEev/+pLUVy51lSsi5RClP926P1dRf/++74Lb9jckraTTKgqoz0w8rqWhYTDW+zvN0jLVM1WurSozCkX9QAYbNlnWh8NfT1Dd5tITivZVbcYuV/Srblm0KpL0R11+9dr+gRNGirb9OVk6Uq6MGoQl0zIKAl2Pny1hqB9HYfT7M640Iv2zu69v0/ADFt/XVRJSGl5cUUBlm/4++dQTgZFztDC0JVNr5Va8+Xf99TeKBlVOUi1ADN8qd1/VWuOPpUcZCyb6377/rmIo1tgv9IxcLP9M+Sdm7bfwtrsM8bDk0yoOqApUT34Yw4AjsxqmOIG+1ZyGaYTqW3edLHa65SxfQynyx5vWYVj1Dia8EviwW63zy9KnJK/1nx9+nPC1j4mx2MCZiUHydAnpesuvdH5l8gMvq0f2W3jHB9RZlflbkVn+TFJmLNzuKIzm13I4oZWDo/taK29+baF45ehLfO9S5eXXsKOmianzrhEMeak1/lh6cut/24xdxB5/viwJptSJydjhib5OGhu12F8C1oe1xBlvX6rE76pYqCTs2W1m7RpzGl5BAxqIpbkSGxj1+jhm8beFT5W+1VKStlb1VyN5r1rgT9TlG2T7uefDRI9VmqkvlP3LB54n45at/HPqf58T69tz/wVzXsvkX7nLFQmbykbErR3/Xn360KmIZnc+qMb3ijnaN5RUluTEVHTrna29Yt3fXsKwvUu0H7JnNnYYHWvZcZwYc+JhyfAqCaY1wJ9al78pfe2wPqfcebYYemhuHeF+EIOn7oDQp3nqZWrlD2BgT/DgQzx+wf4L7njQqFMFfJJqScA39XO7v08+Bd9EcGC6eZvCd35tljmE3+H7pxc9WaV5u+HZ1+WkFSMC3IGjrrJl5UiKDD+43+g2l5wgqBumiTGfCy7Tu0nVbn9R/PBF3zyshjrIlI9Bn1cVH6qXiMZRAw4DeHbIODZWuM6hWi2v+8uLyq8qgdDLCX+/hyC8ZU/42Bjz2oBPXtcqv2pZHzi856TT++dd6wtMqSljP/8BdU2N9xef8u9QeOKvLwV5ttcMDPK+vu71j21OmtrnxP8B5jVI810PY2o83+bS49Ex1AyuL4ZlnEy/2jLM/nIGmGuppRLqmQubh5IfnLmf+PWP+/6MiFf0lPt/P3M14kMXwCZBV67x/lKAvr6GWGKffRbcaf6VQi8zA/pdNR+qt/0/7/jX8tPa3r8sFo99FJYWIqqyr5SqteMdT74qP4sy9LD3CfrGik28lhbriGNniN4OBGBjFyxarLXGr1qgh1s37jLnHCmrUmROXeH1m15+x8o7FnOwlf0XZyy644/F9qGgrguFhaqJeXbSybfg92kss2He2dNaLnNlyg7XnS64pV8QiatZFl/3e7GKn+x1Uy3zjySGnb7hCHujVcoXXxCJvvN3zrlFdGL1ElPY6S9z+27df9EdpwfB11LvQTpDlZ6dePJLMFCnaje0zNFKOZpBS9OO63KN1I/jMPDsT5Q8YaUFqoF19f1P1wX/dKftl1dRP0b+z0GQ6ccD2YREy3XJ9b8Xi/A/SWcV6at6/3TEy/svvsN8Nk8zsUw5ZRKq9ML0M5p6Vm5ZhkaZ79QQKgpKa0zQ1ipbw3XY9K/Sz+qNYS2tpfbqXBzgZBNfjqOOOyhQIM20SnM9v46Or2kaPXDc3i/+rCcsNIcOUMmYJ8efOmlAQ+Jt/BygfYGaYfVSDtpa1fxb9eunxPLbHk4OFeuFn5r+ctLLlyEXb4w7/SjBLRmDTIthkfJ/OdvP9kbo/lu39sV3PGTpbdzvMjQplIBK7jw/8ZSjEzHnjxhSxNV41dNUPZup2VijZVo6O8K3WswnVjRrcuX0vdFqXYsFB30dnWqWWJ9co/zU5AWpT5TRcEw0DTtquhjuI4402ZYCPzZgZ6cFs38pOuU+ue7JdS4fTkHFRfwj+y6+/S8F2Ffxag9KVfzZBR/47KRTvgje3YjZXfCwfmet2w/YVS4GoAUUdKI7gEtaV973FLZleyNpodQzv02iCdr2myJGH3ewjAUN2hqljKX/GxbpSowoTNpTR/JCGFD8y/svuv2moPtCEPcLNaCSwGcnnXQlsPRbasd3D6jCJa8+u+GGWNVBmRsBTwpw0ipTgbYsWi0t1lUA183/QegV/iU7cx3wtxC9A7CiafSnDxajMNHE3e7LkRhHvOyWv+L/3+D77rT81yGUSf0TV+2/6M4Ly8H7IO4ZekAlkc9MPOlOZLNydm7NdJ0nmZ8jnjXC9Q1tLRJU9ZZuQShBtnsQXDncXIuVXevwKeI0CyjC/JN0+Gj/sA9MFUMwQmDYU7lAVPOfYW7zL/0lJg670l9mWq917qP9aXKL+PXg05wDFt95kuZXGPNIACoZB1B9FNnhYWRiNdrE4T+tVc4kVyKt/euLgvsHEGR17GMlnlvpZ5Cv9IUyXnQ4/KKVSOTpfPpJ3ZjSSjwzgs94DGB6RNjbHRlAJSMBqq8g2yPsTK1k+yoNrKSNftcNz74mAZYgQECIauJiikG7Txb83McQ7IxfbivUyyfybdF1v5N89B63v/tx4FWAae4tuPqdXr0DkQJUR8yOPzPx3flo9KTqsSycT64GsHo5QWDlmvJOrOCRv5ETeMOUvODZuvs2Ekir0T5+1oaTgLT4bcrPAUT5LDpg8fbbxsTsRP4zw1EbKUAly24WZzTtObH7PUxUTYBLKN23p31EMleRQFl9SDVcz4mTyWd/Ugw/ehpWXAUbC1mMynbAkt0Kf2w3lsNyUcGmVxfIiZYOgEmQ8qNveRBAkvJmVAQTv8XEiSbmYUgE0oXX/VZsxQfu0MxA6e+v5zVx/yWvLG7e7kwRnsD9QnoUOUAlQUlQFQBVlFPKlKFEqKvX+qb2Qfg88FFiPCIDwgCslFuuxAkwhgnJZYw4Sc62y4kXV344oqI8UuVGbFnIoXrYUx++Bbb053+VH1vsBp1pLxE0vl71U04w56c/cmBKXYwkoLLhf9rxQwOHdo96F2A6Pjn7Ly1PT6iPLcuXzehPz0S4z0GBbb5C/tuUnwN0fcih/a/myi0VUy99q58G/XXp+uZV23/47T9vyc/l8NVGFlDJSoLqkK5R7yE4alyKtfKdj2Jmrs/IPK7LtV/PCZfxpx8twTXsVquWRpRyWqMrfw3/KILx1Yx9yuZO0aH1LTPXZ2Qe1+X6qMfrZtmGllXbRRFMKSFKK9JJgurmUfOxlmqsO54CPa4SqvGVLWfhB32sDAsaERJfa5SVcK270oy5dI5m4TcdGVY/0S/pPM7BHyyBWr6hedW2UQVT6nDkAZVEEFTbu0a+iZ/hd6qxwSFKXDY5/GiuQy/PWvQQkRpoUxjytAaLHrjZTNiiGQIltHI3W9jRsnrnKIMpWVUTgKplPm/Cif/Ghv97asPU5sog8MMHbvIxAgDbjsB2hmLZpDjASTNGJhBENyJyoQdfRvDD19SsfspQtddr/XReOXDJXe+rBV2rKUClQOZNmPUoBhWHk7CkEuO3LGfmehSWeVyX67y+dbdtpEuASy/5ieN6SwRQrhBjzhhbz2BV6VOd60dA/euxA5fMCf0KKFPdrzlAJeHPTJz1y0TCOcFgNlHOgtvzcux5ABPKOzs99IDd5JJMxnlyZRG3rquVxBhZAmcngJMB95tenW9n5zPkH3Q/icdjdx+weM7nakWHSEdNAioJg6V6Ld6gZysaPaYEK5MTBLJgy0Xygy4BBtPTPTBoj23E4IiArFxggLCmDc+8JjZhhVfnf+YjDnaNVAulEVZflD+jbP2DX+K8DpbpufoJtZLXLKBSQPMmnHS2cBLXcAPF1Phfdxabl8MJ2MgVS3tsC//rCNE8aZRcH8/XdqXBlj5Prs7asmgV/uM3c4Bm96KVLnha+ZdD/oX6mfw+aSx+3oFL7ryuVkDUS0dNAyoJnTtu1lHxmPMgfg5QhJNkdKZksuVK8mMgQLbZnexiXCxBVyeWB05MlfVxnW9ZrMBRl3XOWfZOLGllYvwn9xFNJSvfSso3NVuhJZDG/60JJ3bszGVz/qpray0ntTWf5o07YZtELP4yli8OS/oEAarJTavxK7ncEX4C6Suy9ZY/Xr3Q+mD1o9j+sS7uJKYeuOxu9earUdSpC0Cl7Lj+f/cJm19Cv9iD9qmXcFu2/LD6kEK4oPsDOtur/1nSOi1Km5ykuOHvl1eP/F0Z0bPnjp11bzzufCYZ8gHtsfGAGBRaPlg9ABoErQeJROxXM5fP+WxE4cJ3s+sOUMmhp8eeeK4TF1fDWo1LU1W/km2ecoFRMyw/LD+K14NELCEuOGj5Xdf6RqUIXxCPcNuLbjqFHE84+8Ey3aheybiV9I2pXIEsfam2bPlD093qh8/+sZH9q97AFFoiVYV5XSbuAdDWOXweiMfHg9hrdNKmmS0rDlh+WP0w7R/OixsHrT0w6mvydc/3m3u55Pfamjn/qXGfuwLEfAudJi5n+2GaymgAgKwtu1EPtOAtP6w+gAPJFVMefUCH4SdKrjp42S8vrhlgKIIQC6gu054aM2uGE088AtAYrJyH2oVIFtFCs2Vlp1p+WH3o1x82iUT8yINXzHlOdpQ6/lOXPtRs8qYybBq0diTetC+yXoMHLVUO99LLtj6dH5Y/6fyoH/1gf8EQf6QFU4Uq1kJVfEj7O3fM574qGsT3gaJNsgK9RYZW6bNU79El2XtsvQIRzS+8g1LJ8q/29CcueiDgc2Yu/eWPUoK2v7xqb7nh4cC8MbNG98UTcwGqUyRYahDV4GDLap7G8kOBZX3pwxvxRHzmgSvmrPR0GfsTHLCAWkAN5o498WJMTF0KUG1wx/0eU8zloKczSY6yrBM5bOuT4Gv54+pDBPUD3q8+zDFcNnP5XZzEtSkLB6wPNQtTvIeoPL0xZwf4ihYSDKRPVb6GgJLeMn2t3jJR1Fu29en8sPxJ50f49WMh+4EFUy869P8toaH/YXskGwfmjjnhSoDk+YDKRoYQ6aQ3VrFlxQHLDxViVhv64PQmHPG9Q1fcfaGmx+a5OZBChdzn2BoPB/4y8bjhLb1NfwXjuBggpsHD5p44VbxsLD+izQ93LPZiV2PPUUcvvm+tpwvYn3k4YAE1D3PyVT055sRjRSwxB+cMyXeerbMciCAHNggnPuuQFXdxH2GbfHDAAqoPZmU79YnRJ9wWi8dOgnM1rleQSG8AXaiYyVI+V7AZPrJUGXey9R5+WP6ERD8S+BbbnYeuvPvUbLpujxXmgAXUwjwqeMaTY2ZtJ2J9D+HE3eTJAEuPi1WCpy172Gj5E0b9+K9wGj56yIo573kkZX/65IAFVJ8My3f6Y+NOOAq77NwOS3SsnLQld13w0OXM3NaDR+BTJl902fKn3PxxlvfFY6ccvuzumv0sSb4+G3SdBdSgOYr7PTH2+C/HnNjV+Il9AWyyHAglBzY5MeeCQ5ffc2MoWxfRRllALaPgAKw/hIX1RYRYNclZb9enypArW075lC0/KqoPXDJ606Er7jmrjKpft7e2gFpm0T8z8biWrb0Nd8Wc+LEY/Teqx+mQGv1wW1agavlRRv3odWLiwQGNPScesPi+Ls1pmwfLAQuowfIz590IrD09Tbc5IvGpmIg3yv1WtcXqzWG7SnCBE1FHBaTltt7yhyMcY/1I9MZi8fubmnpOtUCas3sGVmEBNTBWmt2IXwlo3Tj0Fpz9GfxXu1mZXWrPshzwwwEO7X+1uW396fW6e74fZgV1rgXUoDjp8z78rPUuYzb9tM9xZsVjYgAMTwauupYHftuy5UcR+pBwnK0Nsdic11cM/lI9fLbZZ7cr++kWUMvO4vwPcMTs+NxRb17mxJ2vAESH8WwXS9UPfTklxQo3Q19LluVBT9leL7G43vizLpaI/WTmqp0vjYnZ/ByJTVXggAXUKjA91yOfHPPZY/uc2DWwWHeCjwyuU1qsChz659rHauv5cqlT/jjYuOSthphz3iEr7rXLRHN1rAoet4BaQWabPurJMcdtl3Aab8b5h0FAjdLiRMGb63tRgN7jumzrFQc0PzLziPOnF+1/PB7rPfOQFfe9p2mxefU5QD2zKaQcoJ91yuiObwsRPxlxq2OS8Zo6jtXmeJnokLO6yFcIkbjjjZXtF1n/aDg7rQXUcMqlX6seG3niFNHQdx32CzwcNmkzBvqec7SNqg/Zcg3xp9uJJR4TfU1nH776rje0hG0eTg54e2U4W2hb1Y8Dj48+/kQ4Db8FH+sU+FrjjA7I4kTM5Vy1x0POL8gVk/XOG5DrVYetvOeufgpgD4SWAxZQQyuawg3765hZgwaKngudhDgeGDEZEzMAV1ynDVSbK0M1AnyA/ACiYmEsLu7ZIpquPGrFnM7CGmDPCBsHLKCGTSJFtocLBlo2tp+XSIiTECWwPTonwhFTca0oe1ZeaYPW1qsVR1XjRx9Q9N14XNzZ1dZxjQ3AL1L5Q3SZBdQQCSOopjC29fGRr/8fhHsaLNadgaVNHOVKy9XNvIKXBpytrxR/evByexNiuPWw1bv8wMaMBqX14biPt1+Fo0W2FYFz4IlRnz0Ykd7/C1Cdic48GnlcWmYySiCXS1XPmtt6voyUhe/NjfmTwPUrcf1cfGL4x4euuvepwAVsbxgaDlhADY0oKtMQhmLtOHLDKXALzELI0fsRijWY3oDKPL32n6Kw19kEvv4TQfdz3l495HYb4lT7ctcU2o6kOVGnOSe2Bjg9sxwn8TEYrnvBch0FZyu2GXQtMG2a2TLeOsrnLKMqUvzoRXkV4kP/hV2dHtgaa5pjJ5TqtDOBbAuo9Sv7nJQ/NvK46SIWPxknHAIV2RYgOxgTXBixSm8rDmfkHtBVKlWb9bDoEwDVTaB/PpjwJIp3HL76vhfx2ybLAckBC6hWEYw48PCY4/aMJxo+BmfiAQDXnQGyY5G3IkemowVqJgdZzmbQtRz5m7BAn0nE+x74wIr7XjFilj2pbjlgAbVuRR8M4U+MPn7/RF/foSIeo7tgR4DQOBiw7dgdvhk5QrfwHNdgzTRkq1lG+/rQrm60rwMviWUAzbfxCeV/NTY0PHHoynueDYY79i71xgELqPUm8QrSq8K3/jMVYLUX4mN3gNdgMmzYsXA0jQSYtgF8aeE2A9QGoNyIMqMP4ijHUEZRWrzM3Fl2bQGjCJBGBXKayDIoHrPpsV4Ut+JwN47CwhQbAZqrcStYmomF8Xj8HeH0/euw1bu/bMOVKqgIdfSo/wd49oYjnfVafgAAAABJRU5ErkJggg==;" parent="1" vertex="1">
                    <mxGeometry x="1409.55" y="710" width="31.19" height="30" as="geometry"/>
                </mxCell>
                <mxCell id="8" value="" style="shape=actor;whiteSpace=wrap;html=1;sketch=0;strokeWidth=1;fontFamily=Ubuntu Mono;fontSource=https%3A%2F%2Ffonts.googleapis.com%2Fcss%3Ffamily%3DUbuntu%2BMono;fillColor=#007FFF;strokeColor=#000066;" parent="1" vertex="1">
                    <mxGeometry x="1579.9999999999998" y="715" width="30" height="40" as="geometry"/>
                </mxCell>
                <mxCell id="9" value="" style="endArrow=classic;html=1;fontFamily=Ubuntu Mono;fontSource=https%3A%2F%2Ffonts.googleapis.com%2Fcss%3Ffamily%3DUbuntu%2BMono;exitX=1;exitY=0.5;exitDx=0;exitDy=0;dashed=1;strokeColor=#333333;" parent="1" source="4" edge="1">
                    <mxGeometry relative="1" as="geometry">
                        <mxPoint x="1299.9099999999999" y="765" as="sourcePoint"/>
                        <mxPoint x="1580" y="745" as="targetPoint"/>
                    </mxGeometry>
                </mxCell>
                <mxCell id="10" value="" style="shape=message;html=1;outlineConnect=0;" parent="9" vertex="1">
                    <mxGeometry width="20" height="14" relative="1" as="geometry">
                        <mxPoint x="-10" y="-7" as="offset"/>
                    </mxGeometry>
                </mxCell>
                <mxCell id="22" style="edgeStyle=orthogonalEdgeStyle;rounded=0;orthogonalLoop=1;jettySize=auto;html=1;entryX=0.5;entryY=0;entryDx=0;entryDy=0;strokeColor=#333333;" parent="1" source="11" target="4" edge="1">
                    <mxGeometry relative="1" as="geometry"/>
                </mxCell>
                <mxCell id="11" value="&lt;font data-font-src=&quot;https://fonts.googleapis.com/css?family=Fira+Code&quot; style=&quot;font-size: 14px&quot; face=&quot;Lucida Console&quot; color=&quot;#333333&quot;&gt;Prepare Notification&lt;/font&gt;" style="rounded=1;whiteSpace=wrap;html=1;strokeWidth=1;fillColor=none;strokeColor=#333333;" parent="1" vertex="1">
                    <mxGeometry x="1205" y="570" width="200" height="40" as="geometry"/>
                </mxCell>
                <mxCell id="12" value="" style="outlineConnect=0;dashed=0;verticalLabelPosition=bottom;verticalAlign=top;align=center;html=1;shape=mxgraph.aws3.lambda_function;fillColor=#F58534;gradientColor=none;strokeColor=#f0f0f0;strokeWidth=1;" parent="1" vertex="1">
                    <mxGeometry x="1390" y="550" width="30" height="30" as="geometry"/>
                </mxCell>
                <mxCell id="15" value="&lt;div style=&quot;text-align: left ; font-size: 10px&quot;&gt;&lt;font data-font-src=&quot;https://fonts.googleapis.com/css?family=Roboto+Mono&quot; face=&quot;Lucida Console&quot; color=&quot;#333333&quot;&gt;&lt;font data-font-src=&quot;https://fonts.googleapis.com/css?family=Ubuntu+Mono&quot;&gt;[&lt;/font&gt;&quot;receiver#00000001&quot;,&lt;font data-font-src=&quot;https://fonts.googleapis.com/css?family=Ubuntu+Mono&quot;&gt;{}&lt;/font&gt;&lt;font data-font-src=&quot;https://fonts.googleapis.com/css?family=Ubuntu+Mono&quot;&gt;,&lt;/font&gt;{},&lt;font data-font-src=&quot;https://fonts.googleapis.com/css?family=Roboto+Mono&quot;&gt;&lt;font data-font-src=&quot;https://fonts.googleapis.com/css?family=Ubuntu+Mono&quot;&gt;...&lt;/font&gt;&lt;/font&gt;]&lt;/font&gt;&lt;/div&gt;" style="text;html=1;align=center;verticalAlign=middle;resizable=0;points=[];autosize=1;" parent="1" vertex="1">
                    <mxGeometry x="1084.47" y="500" width="200" height="20" as="geometry"/>
                </mxCell>
                <mxCell id="25" style="edgeStyle=orthogonalEdgeStyle;rounded=0;orthogonalLoop=1;jettySize=auto;html=1;strokeColor=#333333;" parent="1" target="11" edge="1">
                    <mxGeometry relative="1" as="geometry">
                        <mxPoint x="1305" y="450" as="sourcePoint"/>
                    </mxGeometry>
                </mxCell>
                <mxCell id="27" style="edgeStyle=orthogonalEdgeStyle;rounded=0;orthogonalLoop=1;jettySize=auto;html=1;strokeColor=#333333;" parent="1" source="26" edge="1">
                    <mxGeometry relative="1" as="geometry">
                        <mxPoint x="1305.01" y="170" as="targetPoint"/>
                    </mxGeometry>
                </mxCell>
                <mxCell id="26" value="&lt;font face=&quot;Lucida Console&quot; color=&quot;#333333&quot;&gt;&lt;span style=&quot;font-size: 14px&quot;&gt;Start&lt;/span&gt;&lt;/font&gt;" style="ellipse;whiteSpace=wrap;html=1;aspect=fixed;shadow=0;sketch=0;strokeWidth=1;fontFamily=Ubuntu Mono;fontSource=https%3A%2F%2Ffonts.googleapis.com%2Fcss%3Ffamily%3DUbuntu%2BMono;fontColor=#ffffff;fillColor=#FFD966;strokeColor=none;" parent="1" vertex="1">
                    <mxGeometry x="1275.07" y="10" width="60.12" height="60.12" as="geometry"/>
                </mxCell>
                <mxCell id="28" value="&lt;font data-font-src=&quot;https://fonts.googleapis.com/css?family=Fira+Code&quot; style=&quot;font-size: 14px&quot; face=&quot;Lucida Console&quot; color=&quot;#333333&quot;&gt;End&lt;/font&gt;" style="ellipse;whiteSpace=wrap;html=1;aspect=fixed;shadow=0;sketch=0;strokeWidth=1;fontFamily=Ubuntu Mono;fontSource=https%3A%2F%2Ffonts.googleapis.com%2Fcss%3Ffamily%3DUbuntu%2BMono;fillColor=#FFD966;strokeColor=none;" parent="1" vertex="1">
                    <mxGeometry x="1275.06" y="890" width="60" height="60" as="geometry"/>
                </mxCell>
                <mxCell id="7" value="" style="shape=actor;whiteSpace=wrap;html=1;sketch=0;strokeWidth=1;fontFamily=Ubuntu Mono;fontSource=https%3A%2F%2Ffonts.googleapis.com%2Fcss%3Ffamily%3DUbuntu%2BMono;strokeColor=#000066;fillColor=#FFFFFF;" parent="1" vertex="1">
                    <mxGeometry x="1589.9999999999998" y="725" width="30" height="40" as="geometry"/>
                </mxCell>
                <mxCell id="30" value="" style="shape=actor;whiteSpace=wrap;html=1;sketch=0;strokeWidth=1;fontFamily=Ubuntu Mono;fontSource=https%3A%2F%2Ffonts.googleapis.com%2Fcss%3Ffamily%3DUbuntu%2BMono;perimeterSpacing=0;shadow=0;strokeColor=#000066;fillColor=#FF0000;" parent="1" vertex="1">
                    <mxGeometry x="1599.9999999999998" y="735" width="30" height="40" as="geometry"/>
                </mxCell>
                <mxCell id="33" style="edgeStyle=orthogonalEdgeStyle;rounded=0;orthogonalLoop=1;jettySize=auto;html=1;exitX=0.5;exitY=1;exitDx=0;exitDy=0;entryX=0.548;entryY=0;entryDx=0;entryDy=0;entryPerimeter=0;strokeColor=#333333;" parent="1" source="32" target="18" edge="1">
                    <mxGeometry relative="1" as="geometry"/>
                </mxCell>
                <mxCell id="32" value="&lt;font data-font-src=&quot;https://fonts.googleapis.com/css?family=Fira+Code&quot; style=&quot;font-size: 14px&quot; face=&quot;Lucida Console&quot; color=&quot;#333333&quot;&gt;Prepare Anomaly Inspection Input&lt;/font&gt;" style="rounded=1;whiteSpace=wrap;html=1;strokeWidth=1;strokeColor=#333333;fillColor=none;" parent="1" vertex="1">
                    <mxGeometry x="1152.56" y="170" width="305.13" height="40" as="geometry"/>
                </mxCell>
                <mxCell id="34" value="&lt;div style=&quot;text-align: left ; font-size: 10px&quot;&gt;&lt;font face=&quot;Lucida Console&quot; color=&quot;#333333&quot;&gt;&lt;font data-font-src=&quot;https://fonts.googleapis.com/css?family=Ubuntu+Mono&quot;&gt;{&lt;/font&gt;&quot;receiversDataBucket&quot;: &quot;receivers-data&quot;,&lt;/font&gt;&lt;/div&gt;&lt;div style=&quot;text-align: left ; font-size: 10px&quot;&gt;&lt;font data-font-src=&quot;https://fonts.googleapis.com/css?family=Ubuntu+Mono&quot; face=&quot;Lucida Console&quot; color=&quot;#333333&quot;&gt;&amp;nbsp;&quot;receiversIds&quot;: [&lt;/font&gt;&lt;/div&gt;&lt;div style=&quot;text-align: left ; font-size: 10px&quot;&gt;&lt;font data-font-src=&quot;https://fonts.googleapis.com/css?family=Ubuntu+Mono&quot; face=&quot;Lucida Console&quot; color=&quot;#333333&quot;&gt;&amp;nbsp; &amp;nbsp;{&quot;receiverId&quot;: &quot;receiver#00000001&quot;},&lt;/font&gt;&lt;/div&gt;&lt;div style=&quot;text-align: left ; font-size: 10px&quot;&gt;&lt;font data-font-src=&quot;https://fonts.googleapis.com/css?family=Ubuntu+Mono&quot; face=&quot;Lucida Console&quot; color=&quot;#333333&quot;&gt;&amp;nbsp; &amp;nbsp;{&quot;receiverId&quot;: &quot;receiver#00000002&quot;},&lt;/font&gt;&lt;/div&gt;&lt;div style=&quot;text-align: left ; font-size: 10px&quot;&gt;&lt;font data-font-src=&quot;https://fonts.googleapis.com/css?family=Ubuntu+Mono&quot; face=&quot;Lucida Console&quot; color=&quot;#333333&quot;&gt;&amp;nbsp; &amp;nbsp;...&lt;/font&gt;&lt;/div&gt;&lt;div style=&quot;text-align: left ; font-size: 10px&quot;&gt;&lt;font data-font-src=&quot;https://fonts.googleapis.com/css?family=Ubuntu+Mono&quot; face=&quot;Lucida Console&quot; color=&quot;#333333&quot;&gt;&amp;nbsp;]&lt;/font&gt;&lt;/div&gt;&lt;div style=&quot;text-align: left ; font-size: 10px&quot;&gt;&lt;font data-font-src=&quot;https://fonts.googleapis.com/css?family=Ubuntu+Mono&quot; face=&quot;Lucida Console&quot; color=&quot;#333333&quot;&gt;}&lt;/font&gt;&lt;/div&gt;&lt;div style=&quot;text-align: left ; font-size: 10px&quot;&gt;&lt;font data-font-src=&quot;https://fonts.googleapis.com/css?family=Ubuntu+Mono&quot; face=&quot;Lucida Console&quot; color=&quot;#333333&quot;&gt;&amp;nbsp;&amp;nbsp;&lt;/font&gt;&lt;/div&gt;" style="text;html=1;align=center;verticalAlign=middle;resizable=0;points=[];autosize=1;" parent="1" vertex="1">
                    <mxGeometry x="1020" y="220" width="260" height="110" as="geometry"/>
                </mxCell>
                <mxCell id="36" value="" style="shape=image;verticalLabelPosition=bottom;labelBackgroundColor=#ffffff;verticalAlign=top;aspect=fixed;imageAspect=0;image=data:image/png,iVBORw0KGgoAAAANSUhEUgAAAN8AAADjCAYAAAAFQcH6AAAABGdBTUEAALGPC/xhBQAAACBjSFJNAAB6JgAAgIQAAPoAAACA6AAAdTAAAOpgAAA6mAAAF3CculE8AAAAomVYSWZNTQAqAAAACAAFARIAAwAAAAEAAQAAARoABQAAAAEAAABKARsABQAAAAEAAABSASgAAwAAAAEAAgAAh2kABAAAAAEAAABaAAAAAAAAAJAAAAABAAAAkAAAAAEABJKGAAcAAAASAAAAkKABAAMAAAABAAEAAKACAAQAAAABAAAA36ADAAQAAAABAAAA4wAAAABBU0NJSQAAAFNjcmVlbnNob3RfUvMzAAAACXBIWXMAABYlAAAWJQFJUiTwAAACoWlUWHRYTUw6Y29tLmFkb2JlLnhtcAAAAAAAPHg6eG1wbWV0YSB4bWxuczp4PSJhZG9iZTpuczptZXRhLyIgeDp4bXB0az0iWE1QIENvcmUgNS40LjAiPgogICA8cmRmOlJERiB4bWxuczpyZGY9Imh0dHA6Ly93d3cudzMub3JnLzE5OTkvMDIvMjItcmRmLXN5bnRheC1ucyMiPgogICAgICA8cmRmOkRlc2NyaXB0aW9uIHJkZjphYm91dD0iIgogICAgICAgICAgICB4bWxuczpleGlmPSJodHRwOi8vbnMuYWRvYmUuY29tL2V4aWYvMS4wLyIKICAgICAgICAgICAgeG1sbnM6dGlmZj0iaHR0cDovL25zLmFkb2JlLmNvbS90aWZmLzEuMC8iPgogICAgICAgICA8ZXhpZjpQaXhlbFlEaW1lbnNpb24+MjM4PC9leGlmOlBpeGVsWURpbWVuc2lvbj4KICAgICAgICAgPGV4aWY6VXNlckNvbW1lbnQ+U2NyZWVuc2hvdDwvZXhpZjpVc2VyQ29tbWVudD4KICAgICAgICAgPGV4aWY6Q29sb3JTcGFjZT4xPC9leGlmOkNvbG9yU3BhY2U+CiAgICAgICAgIDxleGlmOlBpeGVsWERpbWVuc2lvbj4yNDA8L2V4aWY6UGl4ZWxYRGltZW5zaW9uPgogICAgICAgICA8dGlmZjpPcmllbnRhdGlvbj4xPC90aWZmOk9yaWVudGF0aW9uPgogICAgICAgICA8dGlmZjpSZXNvbHV0aW9uVW5pdD4yPC90aWZmOlJlc29sdXRpb25Vbml0PgogICAgICA8L3JkZjpEZXNjcmlwdGlvbj4KICAgPC9yZGY6UkRGPgo8L3g6eG1wbWV0YT4K+DuxdAAAOC5JREFUeAHtfQeA3MTV/5N2r/p8xb2AsY1tMMQYcAFs3CgOIZAPUj5CS+gk4XMIBNPD34EUSEggISShucaUEEihBgJuGMf0jnHBFfdydz5f213p/96MZle7q7btVtJqwDd686TRvN97P81oNNJKEKSiI7D/lDtGxlRlsqzAMaqkDpUBeioA9RJADebVKJerALIEkoR6/AP4P6CaJ9xQVQlIpapsExQ8rhOPa8X9WjBvRHkP6j9XZHg3JMlLu//nJ5+K44O8OAjEHVic05fOWdVZs+TmJXAaUuYMtHosAj8YOVSLnCFiSeQIzBmjuihHokqdeP5mPN8GPPVb2IBna6fAi9KsWcjVIBUagYB8BUK46eTbx0mKeil2RlMwuAdhr1WF9PIA3qz3bMOGbsKecokqS4/UvXLbmwWCqaSr9UAweMM/TdNuPy4GsWtDsnwCKGp/7MLCCvYtMvZpqbno4lLLhexCfVSW5W0xRVkRgtBv6xbdttIbXnF3KwPyZemfNV+ZUdG3vedVMVDPD0nSEcizSqpKQeYQ4RiBfCqjve1o7ydo5cIdlXvuH/7CfR1ZwljShwXky8D9b425omx47cAbFVAuCcnSoJiiykY9m+jBSiFHHBTEYZMM8uw1zV/cOfbtByMZQFrSuwbkc+D+fdNuuwb7sytxcmI47o6Th0EyQUDBSZw1ONB+oGHR7feY7BMUawgE5DMJhf2T7xgZlWO/A0mZinOQZTQPqeJYi01LsmMC2QaPCA69F4eV6NXdl/4seKxhEGcB+VJAaZx220zs5a7G4gE0Oymm/cVugcwfhzjHA+dMAbZib/i7+kW3/1ocF+TJOJYsHjR50ru95/34oPt8vIer5Fd00bMFeb7wwHvgdnzAv3BX5Z6rgkmaEiff/umz+kQ6YnNAlqfjmDLMxpQ4tAxy7KsKi0MU1+C8VFYRurj7S7N2lupVvySHnUS6aER9ApdiTUamyUaBJuHNHV3xzYgY6POAD6i4kkZaWlYmnVOKJCwp8qkT7+reWNb6KJLqdJw/CWYt3dLlqKDgxez5+kj1edLyG/a7pVmFbkdJkI/WVe5boi7Arux/EdCwmDQJcux3EBC34IBNieJI468NU6QLS2F9qe/Jt2/KbTMUCe5Cx1aZBRrqWAr0xkQsAj5tOM18Q8OS2+8T5/Zj7lvyNU35ybgowFN4JT2Y7ulS79ECOfmezaV4bMZe+Ru9ltzhy4XdviMfLQEb0r3fc3gvfwqfLcFrJltrSYMrLXlMDg2sh7IRAyA0oAeE+tWD3L8BlJY2ULfug9j2Roht2wcdb34urPO8vcn+oiun/J/1+7d/1W9L13xFvj1TbzsHb2Jmq4paLa7kXs2rJh4G4WMH479DQR7SL0Ess63Wdoi+vgqiH2+G9mWfgrLnAJut9ar9ae2WpVa8Ob2k5+LbnzCDwGvlviDf9um/7hbuaH4ZjTnBLZMH2bajfMwQqDprPIQmHZl9LO1ohI5/vQGtT/4XlE6cw8Casm2PC49bEa2oPbXfSzMPZA+QO470PPn2TrntXHyNZw4aUhFfiYHYsoAT93oekOXKMNRcfQaUfeXYvEWG8vl26PzbCjjw/Luew8PGfx0ySBf3WHL7Y3kDqwgVeZp8u6f85F94TcfPMiSWOyeu8QJNce12rxzu3R1qbvkmhI4eKhqZ1zzyj5XQfO9zWp3ux4NfOgUEpu0lxbM4GfM1safXck+Sb/fkW0fiPcFS7Ol6Ee9Ej0ezml6TK0YdBDV/uLLgcaO8uQb2XTffc/jY+RPjYDf6f3IvD7454blVHnun3DoTx1AfcuJhzNLQkmVEPE3W8rjsUn3FuKFdQjw0H+Rxw6Hulq9zvDyCjxP/sTgA+HAXxYXHkqfIhwA/g4sBf4V8C/ErIqKNgcQGJqwH1GRewDpCt+orxh8K3e76bsbhou5qAuWTzaBuwvXIrZl9vSE8/RiouewkDRcaMXgXvxT/h/ADVb+i+MgY0CIeQNdA16f1U2fV1yjR97Ghg1zfWAcNDPWthfp7LgFpYE8He+Oaq8UfQOdb66D1mXfS9i8b2hsqJx0BZfhPHo6vIDpIHfMXwf5HXnWwpyd32dQih0cPWTyr0e2tdz35dkz6yUQZlJfxSkef3kM8qavDnM2xeFOu/f6pUP7tybaxEV2xCtpxtrL9zXWO7O129jioPPt4kA7pY1m32tQKTVc9ANHNe3yBp0E8tCkgn9p32R3LLYEostLV5Ns9+Sffwe+Bzca7ulCceIKAHs3LhvWG2vu/B1JluaXr2+58Eg688AHuo11gHObhPjVQd/fFtgTs/PvrOAP6Qsb1Z9qeYu2Pg+oY3ule0mvpHTjL5M7k2ns+HL/frqjKXCIezWZSj+eHvJp6Jjvi3fU0I1429kZ3tsDuC38PygfrLSOu7GvHQ/nh/X2Da2p8UNxQ/FAcWQJRRKUrybdr8q0LcYnYTygyKABphMkDkedelaWwDOEJIy3d3T5/ET4Ufydnexv/3+NAD9nNkhSSoeL4w9h5vIon2WYTHxLFEcWTGQ7FLHcd+RAoen53HrulQ2R4YNAGh0nIXtRXHDMYpB7dTf2trNkKLY+8ggHF7aYdhb2Z2q/sPcCWmJmeDBXhY4dmXb+38FfP24lxZYVFMXSuIt/OSbe8hcSbRECwkaYuZ7c8OtmL+vIxw8g009TxHP5WCY2wMaXm2djf8vc3QFm7lVdo8Dc0eghI1RVcY3Je0Y5szk8Vu+d4dRLFlwEMRStyDfl2Trr1AyTeGOYwzdM0pPCTXHbUIeaObjwALc+8nV978RO2kRWfmZ8TNRWjByHaGs4+w9sgfsZQnFkC0oXKopOPPvGAV6RV+BmPUfHXSGhyBf/zmww17OccDN3bufRDgAj+8gMSAB8Y583+ln++YXg+USj3a8jr+fLd/vzXp4xi8YZxJzAoVl70Bux6JbIKAT6MBRwFHt5MxAH3mSzV4KNKk6Q04utqBbBX2bkf1P2tJmfF+z58OdeveFvgeRjFnSkoXaQoKvl2Trr5bQSIfv+ABQBegnnuV9mi52MjvwLZr+7ZbxpOEpKPEgWq7/FPxnc4xZ8pMF2gKBr5dky65RX8gvGxcRt1wLAyH8pQFo6bm7ZRQHvVts6004kCqVobChfw/OxcLqyf4o/iUGDR1XlRyLfjxJufwkvtSfzeRjOZXXjpXse/MjRZvHxdQPvlXrUC1bQ8tnkXLyvg+dkJ3Fo/xiGLxzRkCl/Q5eTbeeLN9+IQB99t4UMdvCAmhpo0yaKX6R5IL3td32x+74VmonUp9ubJfql3HVVvmGK4vpMNOVFbqPN7oP6vU1waAlTAwi4l3/aJt16Kn3z4IT3ZZdPb8VwQMLVcyP7Q04Jms1Q+hb7ZIuxNzbO3v/s5E8xOycojm3bo7vVSzyvk7M/P/ez+43EI+kOKT0uw8qzsMvLtmHDTCQCxB7D96FEaXLKbAC2njIqpHJNP9Z3vr+f2GfyVB/eFqsmHc00e7S87js1nGZwRi6Ix6Hh3E+KN2yWAv018YUDGHuBxagxXvku7hHw7p87qhz/SRi+QhbijcUtPND62ZENMP+sjn2629F/1meM0IuQHn6qpR0B43AjTc0Y/2AAqPltkwKM/yA1+xt/OPrQ+RHFK8WoKWh4VXUK+WKT9A/RsZdIQBJFg/RzlREQma3lcRkt9pO/47AtL14WPPxy6TT9Kh0du9lefMdbyfJEPN/oK3zzFVyWLV0vk8qMsOPm2TbxpEXq4N+/otBEnMorLRDwyRMipub/0MXzdp+MfKyw9V3Pbt6F8WN+c8am9/BQgMpsmHHK2vvJeSeGfHmem8dWbx60penlRFJR8W0+48SZs5VQ0kTowfC+WMQ03SldueXIFqPipd6vUY87VUHZwj6zxarjpLKj6zklWp4DIog8gslZ7zFDC/uAgGcbjVC1+LXHMRYlviBcmbZtw4zi8h3+U+ZUxD89DuUI5bfAhJpdRpFQCemVfK4S7lUMZvlFgmhCf6m9OAKl5P3R+jENVwoWSDT5lg3tCw/VnQfmpibUL/MD0vy0Pv4Sfkdit+UPT29Rvd36/6RGOadcdfOILv9n8mvmrIenQOi4RbnV8gJMd6TfOa5q74fcUoSa+VhPPREPMQEYg8KXa3n+6AkIjB9nCGVn2EbQ8vhw63t9gih99kKl62peg+rwplu8LipO1PvAiNC9YYlof3YPT9THwF4vXlpball6F+A15i/VOwlWZ590bu72Cv4lXg7+xhv0bOpLlaEggczw6Y9AybzHU3YmfqLFJZZO+BA34T23vhNiqLRDDTwfS5wOlblUg966F0KDeIB/Uy6aWhLrzGfx69TwkHpIr8Iej+KyheEYET0ygmJ8tdEF+0/YJN12ugPJgvIdDL6vo5UCmySS6ECXwqMNJkarvnpxfB1jUFsXnjHtmPAxKLBb4A7v2VH9YyTLIV/R7/ZcPWcCbsSqv5Ns69ce9oDOE42O5LNES7O7iNy1UGsh6POqv6CIC4su6e2Y8AJ2f48d2A39QIGrJaTyqESiPDhiw+Dd4o5yflNfZTqU9/DoRDz9aw1rHc7zCBLIpHo0P/gda5xZ2Yb2ydQ803f0UdKzlxAv8kU18SmU8vvNDPKolbz3f1uNvuBlk+Lm4jqg4qykhtQOZg2yHR+WEw6D28lMhNOKg/HkXa+r450pomvcKRLc1B/7IQzwiY24ZsPyuX+TDSXkh3/qjf1RfUV2xEwOsjBGOEY/3eAkZiSgIGeiRCOn4SN0qoe78SVB5xjiQepq/BuTE8ZG318KBp16HtiWfpOAu/JB+/sA/WodhHZ+RjtaOPkPeuzfnz9HnhXxbjr/hDawIFyZqiQazaIBpCvSW+IT61UL3/zkOKqcfDfIAZ7/nILCOfroJWvFXaVv+YfGhrgB/S/xxBGepV2V486DX7xovMM82z5l8WyZc/01JgSe1wRXe8mGV7B6PqsZBZyDnhEfVccPYM7yyKUeBXN/N0M8KPnpow16udcmHENm0N6fzBf5yFr84cf2tg1b+6m+GDnFYSBzPKSHx5sSJR7eQeuIFcs54tK1cC3vu/CcoG/C9O5OkbNmN93WLIbIhhXgB/jnjbxbP+KQC4z63lBP5vhh/PT73kGroOR4RkJ6TGOaB3hgXgZcjfOwcHeDfxfFXw+Pfzi/m+qzJR5Ms+HbeRfzBJA4wKYCwNgYA5TqZNvUy2y/Qx/Fygo+5C7kmwLcI8Yfxz3hg5xwTfdbkK68q/yfOjoU54bTaaZKFahSTLZrMLvC0S6DPDR/C0CoF+OaGb4b4UfwTD6xcYqXLinxbxt8wGk88iVVMDaYU5IXFgddu/jfAv7D4m+BLPCA+mDvGXJMV+VQp9jfs4XC0RPd4OKRks5paHsiFwYMhbfyHeQE9GfijKPGIy3WRD1mkjMm3+YSZUySQh8WXKKHL2fc3xRKyQC4MHoirWWIPdQL8GTzsLRqa/OtSPORhxAsz/5iVZ0w+SZFms0kWNJDiIf4bC4FceDxMvEi0JD8E/ihiPCIvTNxjWkwXTcdpy3HXT8Mry6vsAO5x5nDyO7sw62vrYn3Nl0dD5cSREOpj/oFYx4YWeEc9TE5PRXCWHX2o4e6R99YZlrupMFubo59shqYnl0N0axMxK5G6OL6cxDe+NncSPnhflGik9ZbeHOs9Ubtx/I/Xy5I8mGYv+ZvO4j294soN35sO3S46xbb9wQ7eRWD72T+HyNZG7T3E4sabWfzjb8BvOOSN3wxxirLjYeem8TMn4QuFSDy6x8NEBMT/ii1XTRgREM+ptz28X49rznJFvFnFO/GDeOIUZsfkw6nN++M3s6wPJv5pky1FlMsG4Fe+guR7BMonHwmh/rWcgEWMN9bhWJ0feeLUGY7It2ni9QNUSfkSVUqEc1Me6tmdtSf4438EyvF7NW6Lv7T2IE+IL0684Yh80Kk8jEsHpPhKFcY/GnJqpyi27MTSYB/PI+CaeLOMd5wNYXyxh9uWfG+NuaIM+/pTqc/jkyxYqXbT5wrZ3sZgD58g4Ip4I+LZx/+pjDc2uNt+OrCPXPsrvMkMx78+hgiwm0635DYGsml4AViQ88BxMQ5lxxg/TiE387gTucviMJkP4T6h2juxyT+2Ck9b8uGY9kLyGBnuytzKOtRtu+JPrN3Uc7s+8tgltXTbWY0/Z9brPnPyuTL+zHnxXQw4S/JZDjs3jfsxfhpCwu8Y8Od5SQFMb6jrApp6Rr3M3ojuEj2e1jLxdhWvfcH5M4sfK2fqLkyuiT9T//bk/DG3x5J8aOrdnFD4N/luV3tDmComQIqpZ6e3+FPs9gXnzyw+LFzJVBxP/Y/uZFZ/1x2PZ0L+mCdr8qmAvyZLxOIVuDU3N8/d7XYrnkVrl40jtTB0fTzq8GP8MTPLlHwbxl17HY4ky1hF2LNSTiNLt8lax2tmn+va6zb8XNUeUy9yBRvgEQNdHI8peJYRj8zMMiUfWng5G2pqFnPiEQOxKjyDq2Qz66jcje11G35uaU/8jWxjh6qk95g/kSmXG1vDX7pP07FnFIo6jCk0KovZTtGVxO8BXaFPMyFR4Ir2JWaL3YmfW9pn0Rcwj6I+yZ9YmCQjM5Pk4usl5JHZMz9Da3tJ3X6EXZvMx9joGG3WMj0nRIqvp1aYp+K3Lx03PnbyCr5d1f7Et0jMvEnfctD7k/bTywJXkbtAjzxifKKmpCRD8mGHeCkBznp4D+QpNiWJXrLDK3gXqp1JjjMRvOhP4pOROWnkU2GWjF33MAYwduE8F0Ntd8pGhokyL7SfRkpewrtQ7eVDRuE5g9wj8ZiKD/GJ8SrFpDTybRzbdDH+fmOIKqBZFZ6LobQL5RSDUkXXt5+PkDScXYhvF7cv1X9Jshfi0QAv4hPxKskWFAyWl0kX0WQKWxFCkcsMNpZDDVXQcMkpUDa4L8gV5VgdPzMfGrBrOZbxMTn7xkiB9KlG6eWBD/0Az0o9dte1R5wvuqcJopt2w+4/vugIT8ZAC7xLQq93Xuo2i0fqCIzj0c344Iqv76I5j+hNSiOfoqpHJ4ZAuEWG4hHMYNrS5PIRfWHAwuv1dbly22qhbqEbLH6et/sl02H92Gv5BcAEz1R8S1E2mXzXuQkHah7FT1HUY3SGsM2kYefacdcejD1EDe+/eI9FeyXLVA7Qa8aZrILgjzMEev3gNNYD85EA/bXGtzT1NJtpnthzPoab9/DDz9zWEL/01iWRT1ZgJg2ZKCVyvntC5vrwsIFcEfx1hED5of3Yfqk4cjT1eDvDP1EPP31C9vbxdmCm2+kd+4lfevuSyIdd+nSmxK7dONcORb3cK7dfTtVqKplMqq3mQwiy2AG+DJi0/TS40sqFv7yupxsci4QzFyx51n6NX5qJyeST4BDW8eFNf3qODibbyc+kD1LmCOjxEzjG8xR84+V4GuaPUtCT0RaJ/ZwT6p3EpzvxO0RvXZx868fN7IeTLZVEMMwZ0ZJzKblcX0uw7QiBZDxTcU7BN80P/teromczQZPp03AROHoCn8q1R13XR5gXn+2MxqKX0IWZAgRvDjnRLGRRgVHe+e5ao+ISKJOg3OIzCASAU3wZUUtwf7sg8Tp+ajh2Gdr4C7IzTj6ce/sKFTDisbElSfYy3yv5b/s762AXPtuilGl9Xt7/4If/LxkIA8nL9hXany3/XQOtY67FdxcSw0+/4RXiPGPkiw87scM7gsDVG+5Epn2sUqb1eX1/KyxI53X7gvYnLgzZ+DOm8YyOjZMP72Hr6MEuJS3D3FpmO1v8sTveb3o+G2UOiN/sDeyx5ocRPsQzESGMfGvGzDgUeRZKfB5QEBAHo6iIT7bhhpBFBWY5521if5Izqd+Lx7NZKlNA/G+/3/2bJ/tCxDcKE0Y+SZW/zgnG18wlCJYs83JOKLMYE+VUH/UEyQ1Olv2mt+z5EA89fqWIT2A/j3/iG7GDkQ+ncCcRMJSc5mxniz9O6/HbfqaQcHgd4+s3XAJ7EvwivlGcaPd8Kk62YI+WtLTOTjYNM01hd7z/9HaIZIav//AJ7BcRQnwTjxok6IOXZJCQisRPNmKkIaOlLCoyy+2O95/eDAlRbo1n1+BRPqQ3lPWtF00KcocIqK3t0LlpD0QaWx3yw8KfKvINE3vOp8aUaknGF9jxR+Ql/BKwk9yqzfEhRgb1OT2vm/ezwoR0TnAtpH0Df3MRVE072q6Zgd4CgbZX34Mt185xzBNDf6oKLvTFYefmE66pAlkOUWDQJ96d5hbto2k9x/U4PZ8n9rMEhdAuEi4hCQb/4+aAeHb+caCvOulo6HHOhBzjWw4R7+TW9tgEXPPEAiM1Zz0YBkxqOZOtGkqTNxRoWm54vB/1VpiQLgXnrsKn7rRjIDwovqTQrpWB3gaB2m+dmHN8E+/CoErHsTs9CgxKupw/LUgv5zta/+2DL48GyQABp/jifpb4Z6CvGNLXoCFBUbYIlNG7rBngz86j8zuTkXdIPnUULSZnb2tkkFs1vO6ygHhG+GSDc6Z+MdrfqC1BWe4I5ORPRT2S1q2y348Wb3M4zXNvemnVoI0fcKDB7e7qvLTQLry1OftPhoOQfFID60IpOnRdI11BreTCm+evMzDOZYCvHf4Z6f0FpSusyQh/GqKm8ElWpYYwPmaoE9Oh7JE7BUh8Vg7tNJGVtg6QqypcAYQXGqF0dCKu5njy2dwC6a0AwkmxrVf9gZY28Qe8FCS09q3E5W5jhkHdpewtO0P0+GRZ9v6KKUpdGInWjRwvCOg0j6zdChWjhhg2LChMR6Bz/Q6cnsa41i5sXZqnNyepZP/yNcVpVxZx11W4dRszIgmjNCFHPxLvZOzZKmlIxAiYQb7/mZVp7QkKzBHY9eC/2exlpjjna3/zlmkdHhEBd8rX+Txfj+6FXiPscrWPeBfGUUY5Vc6ApyVl+B8beZAj2NBDJ+v0e594HTo27YJeV50BZcMGBENQAw/FdjdBZPUW2PG7f0JsXyui5xxf5g8L/DPVGzQvXhT3dxHbl2n8ZWp/5vUTKuYp1/NjzeVhpBbeiXCCJXIkHp2XvffCXcObIvbj+pYVa6BlxW9pR9rbJPHjTZRYnJu+74zToP6y002r/2z0DNQVr33J9iXjZ4dv/vSm8MQVRv7N3/mF3SJ3Fl/FPb9VzOTefgQeF3SihayHQ8k4R8DoCuxaPc1iWCW3t7/w7WOTJxYQudu/hcfHzH4LyJiKH5d1+3CdPRKLT25RjmxPkjkh3a63AokAcnv7C90+Ps9tjlKhz+/F+vnQzxyz5LgSPHHOH+IZPWTHno/6P43B/HhNpnLGRxfrea9sBpP72194fONP9k1A8rb/C4Of5Z0K4sj5kj0/qAKZOgbySaLr5R7yiuwksLxsHxEjH+3ntZj/9Yq/84WHnb1Oej7uF46pXX0Genq9k1XBs/gZRW/ilVxrvmnmFTsK1U5TYDzu90LhJeotLG4a+ajzoxOyTlDLvSTbgeR1+3Jrv30o5VY/jxsvxYsTe5O+qWIQYLnbS+TDHpFXlOgavSUbIJNU5HX7cm1/EhgGQq71+/P4TGfRU2c9bWWVXimiu76kxw3xyRd0FAMWLxQcYJ4LffeJw6H3VWfiQ/aBrn3IfvgH9xmEW9cUxXY1QSd7yP53aPt0Ozspg1tMbtngSwdY4e9YTztaJRP/0iF5Ob8X64/fghkDp+cDDRj1suCHFX50QJi9GiF6UJYnZj3jI1EDfc9zJ0Cfm88zbllQyhAI9a6DKvw3eOKRsGba9RDd3cqmx0RAW+HL7gCScMcqM/BP0vF2/kg6jzP/J9Xvx+PtMEPC5eo/fM7HquAV0Qnj00na2QlYSvGcb9SdeTwvD/46QqDP5doKeYf4JvDWqk/BP2O9XStzrd9vxzvGK2v/qDJihktqOXLxrtOBXDFqqF3zAr0OgYrDDkoMTRzgS4dm4g/r/a0nD7Lxv/X5Mo8nN9ZHbbJKufiHeId3lWqnWExNT9QTi39RnSRjM3SyVaMCnQkCOvxYwCfJyfjmV289eZCN//PbPoq7Qtqfef0mHowX52o/8Q7fSpLaicE0hKUhJ3OElifLyfp4K4IN5whkgC/5wQr/TPVWjczG/5meP9P4Knb9VniRLg/ta8cVLsoB7mfq6cjfznK7xgV6AwQywNepH5ztx/oVgwZpRUVrl/N4c2Zn/urT7gxMMcu9PcqBME6LNuFNH40o6UKbkmNPSEOjtHLTNjHF3gefx4rwIJpKLVKO72pgu/H61IV5Fb79XHnscFNw0nE0x5f7Iz96uyV4NROG03WXxVtyro2EUJdcLmT/6pnBpp7kgBABzfhh5z8ZeUcv0+5jwBLByAFaTp6grlXIqblVu0i3/XdIQExYDa83JScdJT/ph823/vRARvja4Z+BniNt8hejZNADPzJRBsWmCGSAv97vcR4h7/BRg7Ql/ko8UoHtyChBxNBk8YkBIWt604ZpCrvj/ae3RiRur4ZfXDbBN19661YF2mwRyMk/yDt8pUj5mH2tjAUEzQrxvigpp4/FpJTbNThpf4Pj/am3QsUAVxpZEK6FxseqWYEuKwRyjV9FVT7CDyjJK9nnAdkQkweIM9muzTRkzaQ+7+9vjUgR7bNuWKDNCoHc/CmD/Ibc1Fz+uvieJJsbIcLQYyEaCuEmI5CRbNdgu+N9qLeGxAbPAuLR/vk266YF2owQ6FyzxZ4fNv4k3skTttzTpihqjAjHJifxpk8QzlK2aK4KuKIi0/p8sL8FJExliWcB7d/77FsQ2bjDrnmB3iEC+x5fklN8E9+Id+hynI2UpFY2QsRtnlOXyltiJnOt2V/2aRimNDvern6v6s0QEeVFwQNZ/9npP4UDr7wjmhHkWSJw4D/vwK7Hl9vywyp+iW90evbLtEg5vCxK3dm9Ht78o4xDTm1Mq8nsgQF2pTQ5QHrrpOiGrGJ/zHXH29XvSb0tLAn8imHf+v97CCqH94GyfvV8Vpt1xbpG62TmNZ3M/K2TS02vHOiAjg27INrYxuI/R/+xYQgjHz7P+wRnb4axez1GLCQe3fARwjrC6PXW5KMnGNbH+1JPeFklNs6gYLfHt1D4tK/bCe3rdmEbNNLRmuu0CyqjFrck0Bvik4t/iG8ELg+HGLxGAv2WAAsMIhwFiAY8PQeklKxnRcZ/WJ9rd7z/9CKejUFJxc9/9ifHR2CfKX80vjHyQSz2NO1In1NKEA2Hnklyst4swEQ5e3Bvcbwf9WykIABIydnlLAkPa3z9iE9yPJWw/cg3Co/4QOnDI78XVWNqSBQlgOK7pMqjPv1TSngFohUC7W+vhjUXJD6tn4pnIIsLv3G8+Qif2FGr/sxu9/BazBMSr4kTL3mIiZCwHcSQQsjiuCB3hgBHMXEvlYpnIBOOJYEP8oynOPnw+7mfsJtIutfT5kntZFFJkDtDwA7PQM8G547jz4t4Ec9EtGiPGnBSU4q9ICnSiWQQu/5QjliYyaKCIHeOgBWeDGcLvEtBXzvR+q0QQrp5+WpH8elWvBQ59oKImDj5oEN+GL9l9nNGPAwC/jqRRkQDObJpJ5QN6iPqCXIbBCI79rEHs07xtcPfj3paYjX44WtMkdxw2T3a82P7+HQrPsQzYWB82Dl63Z93YiF+UgL/0qycGHqayO3vrxN1BLkDBPa/xkcbTvG1w9+vejsoPY5fu8YzZmacfNxodSMjHnuwTlMryDwiovacj0qEvP6GedD+8Xo7rAI9InBgxcew5+mVuJXAj+GolxlSpa5nD5otYgb1Ih4p9x5+G/XGJYadrFR6EVe0HEZdNq1s0edkqF4m/epv3AUNXz0GKg7pC3IFPqUgZGhRdYa5hPvTYmzKzY4301N5ryvPxOOM0+4HnkGFeb1m58tHeWTXfujcshOaFq9igZKKn142wrfU9NxPxn7kpejHlLgUskfwe1FvXRL5OqKdv6kIl18tDKGhDftGhUY8I3nfc+/GA8tIb3d8rvqB135Nb0/a9tZ7nitq+3K1r6SOZxfuNBfGC9jbMniJziQ+3YQf8StuDG5QlxBP49fN2YwEaqECMhDtTNz7uVRmsxhxC9I36IJAySv2lHR7092XVuJhfFqIX3qDksjHFJJEXRlPlLPpOTfLorFaG1Mz17cfGyxM8ATeBWxvqu+MZM/6E3mVktLIh7bNY/voA4IKXCuTNyySa9uttTloHwdC4GDhSqYS+3ksj/NKZ18a+Y76rP8cHKLF2JBTY1x8yOZSWWeP4abb2x+0D5mE0clwMPQgLxR6D+IVI16lmpZGPglmKTjLtlY/tqZZN5KpjyHDhUyV6eVi6FMNSpWL3b7g/Il4cRIfqf7Ty06O1+NNx+rlIh6/lnilt4W208hHhcizR9g0N7sgCeLRLJN+ZQGa4gI9tdcqiQsFy3FHveyG9uvb40Z8u7p9Vr70Lj7wiJFdhuSL1cK9eMWgB2/sysHy1FlDHrlF1xsZpS+jK5+b2x+0L9k/et8ZbcfxEn4VuUvjk3hEfDKyxZB8Y99+MII7x4eeZJ8+gJmMRWJoWnS9kWX6Mre3P2gfiy8RV3rXJW0TTpS03DXxZ+2/tRqfeNt1fw3Jx/QqPCSGHEQ8MtiVst2DWboiurn9Qfvi/tHFpekmI5yH/Ikd30NmxpiS75g1D92NXWaErRDQAoS6/LjM+KiTtSFql+uNb1vj9sbbU6z24Q+RiIBxJX4ual/caRYbcX+6Jf6s8Yscs+aRu83MSVpelr6TvAJ/v28ylYsuPp6zvl8LrGLqbXq+gdeckW5WvISuPWmTUHFtYk2orihpMzi+sPglgc0E18WfuNdMzRk/5BXpFiRKLMmHv213Hdb5Bt9dm/WkLp8ld8iiNWZ57+9Zr/00Oy4odx8C9HuLieSO+MOOT0vp7SH+CK1RbjrspJ2PWf3Qm4qq7uEH0hATt+IdBZc1wqOiOHp6ATNIpYEA/dCp2+LPLP5xEfge4o+VZyzJRwfiGHtBvKunM+ERepkIqZe7Ws9ebbayMND5BgEWZy6LP7P4x/J5dsDbkk+tla9HCkY5wahrpSp5F2ucd60+ur/VzsZA7xMEIntaXBd/CV4QMeL8iCrdQzfawW5LPv6MQn2ZZploaMkTn+XkMi8vlr5t7XY7GwO9DxDY/+o70PrJF5ol7ok/IhzxICX+XzZ7tqd3hS35aGcppF6Gs54a83gmhpqCkMWSG1/9CHb9+V96m4JtHyKw8WePaVa5K/7S419RiS9OXOCIfMd+NnsrVvaRok22uC3f+Ot/wcbrHoDWtz5zYnOwj1cQQJ7teexV+HDaTOjcvA/cFncm7flI44stytRnOkpvD7lsEoTUpcQ/YiydWMaNQO4aPA5/dCZUjzvM0Fetb66CT759d+APF8Qj/uLT5DGrH15m6KiUQkc9Hx0zZv3Dy/AXNddz4qnc0dpIFMvjcqCnC1MCD8JOL2eLD7u1oMpMErsQ0nlRrz8f7a6XA30yHnnGZ71T4tF5yReOE865XEqOpN9z410udpwkY2SwcpEH+rzjE5/rMvFWgL8uDosUf8QPE/cYFmdEvrHrZi9C4n0uJlfok9xselWfo+GBnnDBW3E9LnhhYnLW+LAqDf/ws+Vaf3B8Tv5Rpc8ZPww9ZFyYEfmoCnxyfwnFFDXUMMcHgYblYv9AnxU+xu7jpWyyO8CX41qs+Aopl1j5yEiXMfnGr52zBEeaaxnBkITJuUa8tHKxX6BPxkvgInJzfIycJ8po4QOv1/z4QI8dhiBmHC+Bm8izw4/4QLwQ/nCaZ0w+reJv4pJKdndPjmdLyujyy4ZUepkM1st4UJIc6JPxMMcHUTRPiD1b4hrgX4z4ooj+prlzzDVZke+49bPfx1uYZWyyhWpgky5ajnL8eTyVB/r84WPmR3I/JQ3vAH8NkK6IvxAsY3zgHsjob1bkozMciCr/gz/aHuXEw0svIyDP6Y13vYydepIc6JPxsMKnftIIGPqL70D5oQNMHVs+qC8M/P5pUD2sL8M5wNc5vkZx6hg/jH/GA1PPWCuwldmnlUMupk9NXMbe0KYhDxKQGh7IiEMOeJQPrIP+502B+jNOgPKDM/sNxLYP1sHOvy6BnY8vD/xR4HjEx20PHb9+9hXZMign8tFJkYD7MavRN4AqFSMhfbnYDvTG+ITrq2DgZV+Gnt+aDOHe9QKurPIW/FmyHQtfhT3Pp32lnMYhgX8sUHWIT8tx6+d0t6jGVpX1sFPUjCS7mN/lYonGOPGcT8iBXgDDUTPCp8cpo+CIBTOh7w++ljPx6Cw1JxwJh/5hBhz6ywugAntSlkQz2CwPlmhy4B8BjAaTA3zwiIv53tn/JZLnnLD3ewMdOY5dUkVtZI+4hOjzQM8R0OFzyMyzGOkENPnOOzfvhM13PZHcC+rOn+QncfJAbxW/b2KvN15AlW2ec89HJ25V1enowIi4orMcCWeY4/6G5WL/EtMXmnjkH7pvPOT2i6D6MJyQwRTgj1cWEW+puT0+ERbvDMnc/tDPyeac5jW+13553dH04yonU2Vi0kVUHMh8EioVj8Ezzy5ojyfOR7lcVQE1hx8MO59eARK+ikKTYiIF/jH2jxE+uFjhthM3zn1Z6HLJkff5S/8dfNFqdORwNtuJ1fKRizb7iZTk5SIvbX3v00bD0D/9yDH4SlsHtH20HiI79kHH9r0Q7lYFZf0aoGJIf6gY3M9xPXv/uhjW3DCPLvyBfxADceFJzw3xWXP8hrkjHINts6PlpwNtjk1Th8vLJ0Q7O+nF2zJxXRVX2PScH55ezo/08/FSeQj6fd/8d+T1wDa9/BZsm/NvaFqxVl+ctF15SA/oOX0M9Lv8qzhZo02uJO2REHr871Q4aPMu2PKH51lhKeJPhmcRXxGK7wSSuW/lZdgpmvHgnrdbL204eju+YXsmffKFPffDDfzJFfbZwUDG53+IxyHXngUN+AzPLm366XzYcMdfoX3TXkv8IvvaYP+7n0Pj4negsk89VA4baFl17YQjoX31RmhdvY21J/CPfXziSq3vH7fukdcsgc1Qmddhpzj3f4dc9BpeWiaSzAhHD5xxmw116MEnyiKVmr5qRB848snbIFTbTUCQnuNU9wen3gBt63Zlhd+Iuy+CHt+aml6vrmTfs6/D6hkPZVV/yfkvJC0/fv3cE3Xw5WUzL7OdqS3ZG+p+Ml5SW+LEYisNdEREmVIp6gd8d7oN8fBjOWfekky8DPFbfd1c2PHHf6S6JUluOO04nP3sp1uJk+yPUvWPWJkUtz8kt7B4TkIvP0Jeh52iSQv3vhG7ovvR/8GV9pdil8e7ucQgm+9WgnLFQfVw6L0/EDAZ5p9f+0fYt2QVMkFTZ5k3Ll8FdccONp+Mwe9OqE37ofE1PBelLM/j8+OUkAKTpm54cBMHKb9/C9LzURPHb577pirDrfHm0tAzMdrkrx+VmNztqMFxOIw2mhe/h48CtJ/GyANe23Fm0yrVjNF9kCkP5/OdfzF+KY6tMMxFVzDyUaMmbJj3S3TIYtZAGjrh1TXuoBKUa0cNZlCY/aEF0fnEZ8+z70Hzax+anQ6qxyL5KrTBTwn6wzIeY+piil9T8PKgKCj5qH0TNs6bhisqdtE2rawQb1SXotx97OFktmHqWPsF7Hr2nbzj07zUnHxyOAQNJwznK16wVaXuH539u07YPG+aoaPyWFhw8lFbwyH5KDSsnb/pjt0fDXFo8WqJ5aEeSS9/JLlx74s4uikAHpv//O+k86QKVUPwAX0Bzuth/7ZTvKbiVAi5S8g3fsPc7Xj/dxK+uBgjR9MLjOzb9pgLOTX3oz5cb/4GCvtylg6PfNofwRUxZqlqKL6kqzuv8EM+z++h+mMUpxSvZnjls7xLyEcNnrhx/gq8obkSHYGM40McypljDHJ25TQoF/t7UR9qMO/5JHGzR0TAlE/7Ijv3sTqN/lRQz0dJO6/I83l+j9SPi32kK1mcsgYX/k+XkY9MmbBl3iM4Nf17Hl4YYJp9JZN3Ri09WigcaFG1WVJa2krPD0Zxh3HJ4tMMqAKUdyn5qP0Ttsz/EQbZ00aBRk8ejMrpOCr3uj7WbP1bgoWyrwyXnJml9i92M5Uf8M0WP7T9aYpLM4wKVd7l5CNDTtw8/xu4xPFVHFtxu2gWFLfiQx1N9ps+1nyA22vwN9yje0HsrxzUAKE68+Fuxxc4EV0i+BvGF8YhxaOBSwpeVBTykVUTNs0/GW/q32YEo8XXRETM/SzHWsx7vh5fHgdyt/K829/v3CmWQdSBbzgQ7qWAf2p8UfxNxDi0BKiAyqKRj2yasHn+WARkjXC83/Pmlea/HxjqWQv9zsG1uzoi5IwHXssaph1jGT6NK9fGiZfz+bQLqEfqWcPizxKdwiqLSj4ybcLmoYdjjHxGDhNDT7/mja+bP/AmLPqcM5URIV/2H3TxNKg6YjBVbZha3vgUIo1tvsfdAM/PKO4MQenCwqKTT4JZysQtCw6XQfqQXuxkQCEAPPeXvO+1zyC6q9HUvdVIlCE3nq2bXMre/op+3aHPuSeZnosUTSs+8TXeRvFEcUbxRnFnCU4XKItOPmEjzjYdhaH2tjYFo8164r2ItgPPvS2rERX2vfKuMNkwH3DV2dD/gkk523/4/TOg6rBBhudghdEY7F38vq/wpUu2VbxQfFGcmYPStRrXkI/MnrRlwVjMlrF7BtxIzVMfAHtRv3XBS6C2dpC5pmnoLy+H/udOzMr+ioPrYcyiX0LNeOtR1Y5HX4amN9ezNggc/YAvGSTsScmXafFlintXKwryPl8uRsxu/mDOpXWjRyBwo8QSJwkvEexeXixN09YielHfua0ZyntVQ82x1t/haTh1LNQdMxii+xqhfeNuR/YfdNnJMHTWd2w/IxHdux/W3DQbYvtw9hVXtvgJX24Pn71NxIf06IlbFjj7aE4uwZvhsXRr5cr02sALbschxK04+SfxSTQBqEZEbVYQMx6YHpIrBvWAUY/eDBWH8O9o2jlg73Mr8KXXj2HrgiW62XKOR82XBkCvL4+BHl8eD3TP6CRtve/vsP5Xf2c9hBfxyyAeaNHez0784i+3OcGlq/dxLfkIiGUDL/gOZrPxn+t6aGpfLqnHtJEwcu4NIIUyM40WSXfu2Ash/HRgeb8eINdUZdQMIt7ndz2d0TEe3TmG7b5k0hd/me/W9ruafATa0gHnT8SrM36kVMIoo9tparLIaQ9KQk7NudateiLgEQtuFo0seL776aWw6ocP6fASp0zFTcie1bdh73jq5K0LlwsL3Ji7nnwE2qLBF9WHI9H3cVM3fZcaIKnwekNfd9xQGPXUT1Mbn3e5aen78OF5d+vq9QY+uganbJq2f1O0LDx62oa55s90UmoqlugJ8glwlvQ/7zlZlk9P+uoZTb6wSQPv5uX9a2Hk738A3fGXhQqRdsx/CdbcvMDzONn5WVGU56dse/SrhcCwEHVmdsNRiBZkUOfclg8fvbj7Ua34ebeT0BEy/8lpHIjSbKiCFdGDE8zjn3+Ly+7WKwc68BMSK6Gqfz1UHzk4A0Ssd237bBNs/PXjsOneZzyNjwP/xlRVunHKtoVXWSPiLq2nej4B3ZL+F46UZGUpEq2XePPajHhe0/c4aSQ+ZD8FeuB3NbNNEXxNaNvCl2Dzgy+D0o7vENKLsvELER8hCNlr+KReWLH9u1VFmjxl24JPs8WrWMd5knwCrGX9LvgXPog4A0PL03YIe/R5r68cBQ0TR0Edftq96nDdra5+J912bH8rNL7yDjS9tRp2v/gWdGxt1mn9t4kOpzfPn520/S9f86p1ng/aZQMuOFdRlTn4OLCCr+XDKzv+l/6rM94trxjaA+pGD4HKQX2g6uB+UHFwL6B3A9s27oJ2/OHLtk07YN+iVb6z28KPHbIkXzxp618e8yrxqN2eJx8Z8X7fC7s1SsrLaA3++oggHmkoBTK/EHE0PI+Hqq6oV0Onjt6xwPzNZGGqy3NfkE9gvKTv+efIsjQbe8JqWlpEa/uC3B84YE/XqijqJVN2LHxC+Nvrua/IR854AK4oG9m/5XnkHf5YC/4nHgcFOR/neA8HFa+jr3y6reb0K+HBiNcJp2+/78gnjFvc7/xxyLynkH4H87WAOOCimRmymAWg6BES5YHeXfigwzbj2OUbU7cvfFP41U+5b8knnLS47/kzJEm9C2W2CFJc+IU+kJNv/F2CRxt+x/SGyTsW3if85Mecnv74Ok1FB67aXlOHPeCjCqgx3vFRiFEHSJMxPA9kV+ARxZHJo5O3j6jxO/Eo3nzf85GRIr3W65Lu0XD7oyifjqGGFx5OvSAvOg60Pun5cLTyvBN3z94v/OX3vKTIJ5y5vO+FfSJS9AlcITMZV0jIfAUI3gNqa0QDGUcGujWzhcID61Vwpc3SMjV8zsQdC3YK/5RKXpLkE85lJIToHOwApyMRw1TO7nm0pVhiv/hSrECfL3yiWNFLZRC+uBRJJ+KqpMknQHh+2Fcquh1ouF+JqedjP1hJi7TFYt4gxwtS/vBol0PSwgPd9l11+toXrD9kI5zj4zwgX4pzF/c5dyb2flcjMAMwD/BJwSdTEQGkJzhbMf/d1J2P/TrT4/28fxBcJt5d0v+ckUpE/j0OOadg/JSx5/Xs7QCCjGZJ+T0ieysgkI3wiGCPuUQuU344ZdsTnnvjwCQs8lockM8BnK/2/fY1yK/v4a7DEDDdLKk4mBNSSInZU1FSGnrs4WjWci0y8c8n7Xj8HmF9kBsjEJDPGBfDUro3rGquuxHHURfJkjQIf+cTM7FSpjRzBACXXKqbEIa5bbVNdwb3coahY1gYkM8QFvtCImJ1c+1Viiqdj3sfgf8qaemaWKKmz0VtPtK3o32fyJK6sLW2+f6AcMLDmeUB+TLDy3RvHJoeh4Oua3F29AS81+mPRAuzLyazD/3iQJQREwdm3pSjsgzbFAVW4KD7tzikXGkKRKBwjEBAPsdQZbbj4p7njFND8qWqqkzB6ZlBCDStLSUK8ixenetk7NSkNmwoDiWlJVJMeWTqnid8ubA57oIibQTk6yLgVZglL+r9yWm4qu0MVVLH4mzpYFxbWot5OebYMeI9I/7XhTmSTO3E8zVjvgEXMr8FkvLstF1HvOiGX/DpIrcU9TQB+YoKPz/5q/3OPRKXtk2SQDkWGTEYCdET+8N6zGuQGNXIyXJkJQ1YJSynEazIUcW7U8zp0+h4OOOwgvsTsVrx+BYsb8R8Dx64QQX5HfwI0bKTtj/2sQtML+km/H/KsWTQHlRuhAAAAABJRU5ErkJggg==;sketch=0;fontFamily=Lucida Console;" parent="1" vertex="1">
                    <mxGeometry x="1038.81" y="1040" width="29.47" height="30" as="geometry"/>
                </mxCell>
                <mxCell id="37" value="&lt;font color=&quot;#333333&quot;&gt;&amp;nbsp;AWS Step Functions&lt;/font&gt;" style="text;html=1;align=center;verticalAlign=middle;resizable=0;points=[];autosize=1;fontFamily=Lucida Console;" parent="1" vertex="1">
                    <mxGeometry x="1068.28" y="1045" width="150" height="20" as="geometry"/>
                </mxCell>
                <mxCell id="38" value="" style="outlineConnect=0;dashed=0;verticalLabelPosition=bottom;verticalAlign=top;align=center;html=1;shape=mxgraph.aws3.lambda_function;fillColor=#F58534;gradientColor=none;strokeColor=#f0f0f0;strokeWidth=1;fontFamily=Lucida Console;" parent="1" vertex="1">
                    <mxGeometry x="1038.81" y="1000" width="30" height="30" as="geometry"/>
                </mxCell>
                <mxCell id="39" value="&lt;font color=&quot;#333333&quot;&gt;&amp;nbsp;AWS Lambda function&lt;/font&gt;" style="text;html=1;align=center;verticalAlign=middle;resizable=0;points=[];autosize=1;fontFamily=Lucida Console;" parent="1" vertex="1">
                    <mxGeometry x="1065" y="1005" width="160" height="20" as="geometry"/>
                </mxCell>
                <mxCell id="40" value="" style="shape=image;verticalLabelPosition=bottom;labelBackgroundColor=#ffffff;verticalAlign=top;aspect=fixed;imageAspect=0;image=data:image/png,iVBORw0KGgoAAAANSUhEUgAAAVQAAAFHCAYAAAD+0LSAAAAABGdBTUEAALGPC/xhBQAAACBjSFJNAAB6JgAAgIQAAPoAAACA6AAAdTAAAOpgAAA6mAAAF3CculE8AAAAomVYSWZNTQAqAAAACAAFARIAAwAAAAEAAQAAARoABQAAAAEAAABKARsABQAAAAEAAABSASgAAwAAAAEAAgAAh2kABAAAAAEAAABaAAAAAAAAAJAAAAABAAAAkAAAAAEABJKGAAcAAAASAAAAkKABAAMAAAABAAEAAKACAAQAAAABAAABVKADAAQAAAABAAABRwAAAABBU0NJSQAAAFNjcmVlbnNob3QR/WptAAAACXBIWXMAABYlAAAWJQFJUiTwAAACoWlUWHRYTUw6Y29tLmFkb2JlLnhtcAAAAAAAPHg6eG1wbWV0YSB4bWxuczp4PSJhZG9iZTpuczptZXRhLyIgeDp4bXB0az0iWE1QIENvcmUgNS40LjAiPgogICA8cmRmOlJERiB4bWxuczpyZGY9Imh0dHA6Ly93d3cudzMub3JnLzE5OTkvMDIvMjItcmRmLXN5bnRheC1ucyMiPgogICAgICA8cmRmOkRlc2NyaXB0aW9uIHJkZjphYm91dD0iIgogICAgICAgICAgICB4bWxuczpleGlmPSJodHRwOi8vbnMuYWRvYmUuY29tL2V4aWYvMS4wLyIKICAgICAgICAgICAgeG1sbnM6dGlmZj0iaHR0cDovL25zLmFkb2JlLmNvbS90aWZmLzEuMC8iPgogICAgICAgICA8ZXhpZjpQaXhlbFlEaW1lbnNpb24+MzQwPC9leGlmOlBpeGVsWURpbWVuc2lvbj4KICAgICAgICAgPGV4aWY6VXNlckNvbW1lbnQ+U2NyZWVuc2hvdDwvZXhpZjpVc2VyQ29tbWVudD4KICAgICAgICAgPGV4aWY6Q29sb3JTcGFjZT4xPC9leGlmOkNvbG9yU3BhY2U+CiAgICAgICAgIDxleGlmOlBpeGVsWERpbWVuc2lvbj4zNDI8L2V4aWY6UGl4ZWxYRGltZW5zaW9uPgogICAgICAgICA8dGlmZjpPcmllbnRhdGlvbj4xPC90aWZmOk9yaWVudGF0aW9uPgogICAgICAgICA8dGlmZjpSZXNvbHV0aW9uVW5pdD4yPC90aWZmOlJlc29sdXRpb25Vbml0PgogICAgICA8L3JkZjpEZXNjcmlwdGlvbj4KICAgPC9yZGY6UkRGPgo8L3g6eG1wbWV0YT4KXCr2FwAAQABJREFUeAHtXQecXEX9n927S+4uuVx6T+iEKiYBQg1VwQK2PypIKIJg+ctfqSotgKAIAjYEBSlBQBEVxEoPBAQpKigd0nu7JJe75O72/b/fmTe7b/e2zNt9u/ve7kw+udl588r8ynzfb37zm3kxYZPlQJk44MyeHd/8dHyvPpGYmugTO8RisUnCccbF47GRCcdpQ7nVcZzmWCw+wHESjfFYPI7jyETMSQhUx3B6ws0dHkCZeRwZ8jirBS6IJRJOAifGe3FgK87rRv1mHN+IitW4YBnKi+IN4p0GEX+59aDEv2KzZyfKRLa9bR1zIFbHtFvSA+DAhiMu3x8gODPmiKlOzNkxJmLjhHCGQLGaHSEaAWYo4pegqnlz9+FVqkdretGabrRvA8B2WcyJve3ExMsA4blDHr3k2QBYY29RhxyglttkOVCQA5uOvHxPINAxwkkcGBPxKY5IjIUlSAsTkOiCpbYgo1/GK8DZDIt3OSzeN2AKz2uMiT8MfuSSVwoyyp5Q1xywgFrX4s9O/PrDLp+OUfTJsOAOgYJsi7MG4388+9l1dZRugk3gy3zw5Ul4J+4Y+vglL9YVByyxeTlgATUve2q/0vngNYM29XbO6nPEx6AMe8G4HAWqGzlKl6NxFKgktpydH2BNLzwZq8CufzXExAODGwfNif3tvE4ct6kOOWABtc6E/sL0M5p2bJ9wCuZzZsHcej+G64MxvCV2pnk4bblYfnA+zdnUIMQ/Ma825+2OJbfv/eLPeupMzeqWXAuodSB6TBwdnEgk/heoORPgORogimly1+LCDzV7bsvSIg+aH3A6g98rcdu58Xj8x5jweqoOVK5uSbSAWoOiZ7jS+idj/wcr9DTMXO8M07NJjds9xOYyQfUptj67iVo6f3rA2jdhvd469BDnBzZ8SzO0NnILqLUhR/HWh746cOSWEechIvOkWLxhe8xONyRDlpTppU1Qm4eEH4gi6HMSfe868fidqweuuWanP/9oS42oY92SYQE1wqLnhFJHT+e3MIw/AcP2yZg5wkx8LtPSHs9ucoaELwirQAjaQrgH7m5vGnSVndiKZse0gBpBuXUcMftErAD6Ziwe28VJYKEQQBSg6vpCkdtytPmhwPV1rCj7Tvujs++KoIrWbZMtoEZE9BsOu2hKr2i4Dibo4ZhPavYKDuWsdqkmzdZHmj/diMZ4rFH0nT3k8W+/oWVq83BywNsvw9nCOm6VDHEaPO7bIh47GcPBMSnXn17TjkGsnK23ZfDH4zKuVX44K0Qidsfbm5ZdZEOxwgkMFlBDKJf1My/azok33gy4PAymZ2OyidrU1AdsWZme9ccPLCaIPR5L9J45dO6339Pk27z6HLCAWn0ZJFuw7rDZx4pE4hoRj+8E05OuUG2CyvkUHSepTDHU2fo65w+2pEkk3oK+nDfs8dkPJhXJ/qgaByygVo316sEyZvQJ5zJsWPcVWB3Dks2RYJkspZyA+pCtly8ZzY6kE1kfqDv+OOugPz8ZemjsUhvbqpWg8rkF1MrzXD5R+keHjP8pVjDNwmw99gP1zNLDFLVlyw+1gs0nHxLOVqzImvP2hqVfsn7WynduC6gV5jkD8Ed0D/s5BmufhQu0KRniBBNLhj7Z3PKBIXAl64HogdPo3jXN675gFwxUrpNbQK0Qrxft//WWQQPbbxMi8Sl0lsYkeGrLNFcnsvUqvtbyJzvIFtaPXmzdcH/nlo5TJz17fVeF1L1uH2MBtcyiJ5C2Dhh8F3aCPxYWaWrGvszPtbe3HPByAB29F0uxHty8ddOJFli9nAn2t900OFh+pt1t3aGX3DBowOAOrNn+JAwJBaZAVQ7nYHCpJPP0sq1P54eckfPwy/LHP3+of/DJfpL6uO7Q2TekKaotBMYBSMamoDmw9pCLv4xx6tUAzcHETgmeNrd84EshPHqwCTOfFwx/8oobg9b/er6fBdQApb/msEuOwtr62zG8HwuLwF25o2ZpNaimZu9tvY6r5Wy25Y8C20rrB9wAyxFlcsqIxy//a4BdoW5vZQE1ANEvx8qmAbH4Q7jVbrydnnDSt9aGSaqsZnFTZWW4pMq2Xg7rXYZY/lVEP/4bdxIftSuvdC8sLrc+1OL4lrxqzSEX3wYwfRsgmgamBFUmCa7SAPOUMe6z9R5+WP6k60N19GO3hIi/TX1OKrf94ZsD1kL1zTJ1wbqZs49NiL45GNcPSY5XJYiSpQQLm1s+RFQPHGdDXDTMGjbXLmf1Cw8WUH1yrGP/2cN7BiT+ChtzOoalMfq8pLMUIMphqi1bftSIPlCQLzZujR/V/uzstT67Sd2ebgHVh+hXH3LxlWDY+cDORmmA6mu1IWLLigOWH5lOzyiXe/EZ1++NfOqKC7V62zw3Byyg5uZNsmbd4Rdu09cbn4vJ6MnKIFWWqJqlVgaqNlRtPflh+aNm6+H0cA329DyS/FnY0JiYOeyxKxckO4b90Y8DFlD7sST9wJpDLroYFumlgIkGaXiRY9oC8+b6sK23/PHqhdaHmtAPpw/vystGPPntK9J7iS1pDlhA1ZzIyDceMHv01qa+ubA0piiLS1uiKq40ZXHYsuUPLc660o83BvQ0zGx7ZvbKjG5T90ULqFlUYPUhF3015sS+jz7SpKs9hgYOuRNQuhK5rVeGqWKJ5Y+coKxt/cBuVrFzRj55+Y88ZNb9TwuoHhXg1nrDNrfPA5hOV3GiCiZV59Agkco1jNp6WGjJl4zlj9aHutCPmPPiutaOA+0WgQpILKC6gLr6oItniLjzCDrB4OxOQG2D2tzyJ5uTtK71YhM+HnjkyKeveM5jn9TlT7tSCmJfM/PiK/AJkmcIpjKOlAN4OsV0XKktW35YfcjXH7AJkPOM7Ed1CaMpovlardvEIf5QDPFFQkxnCJROeoLBlhUHLD/warX6obtDcgJOH/DqB74S8OL6OnYB1K2Fuuqgi6cP62xfpcFUGiDQEK0ctpwOppYflh/kQKH+wf7EfsX+pThWX3897936IXzVzAvPhc/naozk42QAB/c62bLlh9UH3Rvo9CpSH/CBa8xJXDBq7pXXpu5W+7/qzkJddfCF9+Jzu9dIMIW2qNlpJWgO6/QuUDyiy1QqJl1WpVTZ1iuOWP5Y/Un2H2msxK6R/U13mDrINRbUPKn8bPO2g0a/hCHLHuqd6yVdz9pqNtiysk0sPxQHrD6Uog/YQujV+Z2rptXDZ629qKJ7T83lSw+4cJumuHgZJuYw7QRSa61JvttZvM4hmFq2HvGkNDkD4k/TXtvKPtm441gRa2uRYhgwdbukrsUGN4vGncYly7l+9L61TDibuvtV9y1bJxIr1guZL18vEjin7+3lOM/KVzK++vq9richpo5/prb3Aqh5QF1x8LeOahCxBwEPA5KdS3cymwNwPKBZIj+a3r8tAs9aAIxjReOO40R87FAjkOyHjgEeIPgShJl6/vkeABeg+84yHPOAbYl0W73SFnz+HGbK1j7hHDvmqatq9nMrNQ2omGk8G77xa2BpxbXFaXNleZbKh0ZYnE2wKBtgcdKyNLEuA8TJQG7V8zIBdp20ZHsAur3/mp8cmZTKH3t9Tj1LwL163qinr7guECGG7CY1C6irZl50LT6Ydzb4LWmUEyZ8gbrJlmFX+eAHh+eN799OMG/yDNU1P2slpzVLoKU1u+Wp15JkWX3xpy8F+OXgw4DXjZr77XOTDK6RHzUJqADTXwJMT9BCtbnqDH740IAh+8CDdxVNANFaBtBC/ZjguvWp/4qt/5wPSxb+W7yE/PDRnp+HX/HY3QDVzxWSQZTqaw5QEabxKJT48CgJISxtHXjQrmIAQRQWaMO4YWFpVmjaQX/slrn/TVqv2SbHQtPYiDQEL6fHRj115RERaW7BZtYUoK446MJ/w4TY0zs7rXdB0pzQvi3YbDiU2iWpXusHHLQLLNHdxMCZu2FCqVmzweYGHOj+00twC8B6ffr15NlWv9KjQ0z6H/rhK2OevvJ9SSZG+EdNAKpck7+x/U0Ib7KShQLLlFxsmS8PnTgL33z0NNH84WkWRDVTSsi15dr1m2fdiAKrb15908ZLisX9+YOJqoXr2zp2jvo2gKlelqI2Ur8Ipu0bh7wHy2Cc2jk+5+yijKvUFkS95WLQQNECAG057gA7nC+jhjNqoPvPL+P/SyKBeNh607MS6V3W0bZhuyiDaqQBNT+Y6omYVJB+urDro37AtO1hjU6V1mgZccTeOgsH6G+l1br1pXezvMzrQ/9yGzk56Y80qEYWUBWYtr2LCajxuYWWC0xr//hAgCgt0jDO0Mtge8yY68SZ9Gyz4bTw+patFY07jxexQc39ZtfjWHFF94VOjEgIY2Io1uZfPyO2/OVla7FC0IX7q1ja0bZx+yhaqpEEVK7Ln9w88j14YiaEsQNVq02cVOIE06DPH171YX0vAJOrkggm/O9s6hJ9EiDXlZ09XGQQd5eycuVWw7ihkh/VBly6A7oArF1wB9gIgfxqAGBasrB79XZRW/8fOUAlmE5qGfkuJuknJkVCKujn1qnOyrG2ZtEK32jrpw+s+CSTtja3vvSeAk8C6XKAZkjloVd1MedKr2qALHnWhQiBzl88qoC1zvQ1udq5UH+NicWLulZvHyVQjRSgOrNnx1c8vHU+Gj1Jy6Le8+YPTauoRUors+fld8VWDNO19Rl1GTDmlq4RtQpse9GAPQgqkQism389T7oDrMWaneN4Ly8a84EB28Zmz05kPyNcRyMFqCsO/NYrmFjaQ/pgYALJr0tqnwz4Kl/0yXJt1zd/aCqA9IiKDO25BHMrQFQuyXxzqfKB1TD/m+CzVQC7vVwtVu4uSzDddOujouu+Z1I+1hrmbxH999Ux867as9xyCOL+kQHUFQdiBZRwDk8HTRdEtfL1A9Xaqx8IS2rwWR8p62Yk7OAMWO+e+5q0RhPwf6pPI2e+tGqPv9n0i6vHGC1B/3Q5rVf6WDt/8RjcAS+6L6364K8O/qeXKBv/VX38sTHzwr+iKhKAuuKAb94JZs8qPDtYu7P33ApvyIX/I4elQbxJM++RAlGs/IFFmh5iVrt89Usnfa4tH5kmwbVcK8voStn4gz/KJa5+21fT5wsxZ8wz3zkpU3fDVA49oC4/8MIrhZP4Vr+YGc3FXDtV1Eg9N2PmhNPg08qz3JnDeVpEcmcluEuSfK4R/iXpydSTAOhjWNrAmbuXzS3AONaOq+4XzsaulFw0HQG0X95C3y8zD+3941eNnXflhbp5YctDDagY5n/RcRI3qvGPp7NnCr9Gy+ysbWd9OHA/KSeWugGiXVjR07d0bf/OWqP8zAmuJdLLl14z3AKDTjsycJcARw60VvnSK1f7I3ZfB9sbfxnD/5vCBqZsT2gBdeX+3zg6EYv9EW2suw8Jcta5DX5SblgSZOLMPGeVafnYVB4OUGYMX/N+3iWIJ3G11QZYq/Sz2iQS2DH+I6Of/e5fwsaLUALqkpkXTor3Jt5G4wYkHdXgHBtb62V2yHb4SoP0zzGQvOuPL8kJplrnX1joa0CM66DPHChaENYWVKK12vmreSp+tU76Qx55bk00xnecMPfKRUHxN4j7hA5QGbg/YeCIZWjYiDzMrDlw5coeTjo1B2iVEkg7EY7TC6umHl5GYdSXRow2uKvXoAAXXfBzLR3fvMvKVYg1S7asGRemwP/GIFA5yHtMGDD8OQmmOp60DvLmQ3YHmH4KyyVbAmElgXTTLY/Y3Y7gG632rHcvfNR8qXXe+7QY/NmDAlnNRpcv71vPUS+uXEcQL9BpghsGlNgDabiEJi074Ju/QGNORS9QDnjdshou01fKoWEQSQIpOm9yoknftIb5J0mMEH30jw/GggxGCBSbVp/8Q9ErP5Ht3iFC9JdDXjFH3Dr22e+cXiw/g7wuNIC6/IBvfgEwejPAFDHkaJZWkhrNGSA+9Luz5HryUgXKyaZNtz4il4PWOt9qhT7Kf8jXPirjWf3If+MPHhKd2GClVvgQEB0ADXHm2Ge+83M/vCzHuaEAVMzoT+0T4h8gsKE/kWwivWO5UvTq6ScdctH/lDzEZ/jTxhsewoqm/+RiDo5Hjz/pxNR2+wdM20HGGJtEBfDFufYrP0tnj5Uv+CHxoQ/gsQ9m/l/OYFBFi9TWqiZOQk0cMGJVQjjtSZ8QlEQuN9M+sBoqBzXE59rvTdytCBa8Whbq2WeyhvhVL/S1fuYA0YY41lzRHZzhX33Kj5Tv1Mo3Kz7EY7GOxVvWjKrmJFXVAXX5/t94GtvIHOhtCN83tVbmLP4wDPG5JryURCtl/bfvEwlPPGIt8qvW5G9CD8F06MXHZXUDdFz5G4S+Ibgfyco7Nz6Az/PGPvvdg0rpY6VcW9Wg+WX7f/PchKPAlK5SJq0syTIOUBmTZfxOK0egnvtuDv/xGSWBKS2U9d+YI9ZgyEcwTfIjAvSnySuC8qtU+ynjtRfMkXKmO0cnblSz+aF0MLXyV9whH7zyoXFGXNG8q3TOtlQlLd3v/F1FLP4KHp7Fb1qVJpXlobRIh333xJL8pd3oUB1XwCpFh7OpPjjAEc3g048UrR+eLlZ+8more39i78P+H3uO//v3XvN3WelnV8VC5UbReLE8DTRv8JpaEt09r96ol1s/Ml2M+PEXigZTWiwbMOm0DlZLAhtkRJ0ftv3osIb6TXlzwnHlJ1wwxXWWf8b8ayC+lA6P/u8gZeT/stKuWLrfBQ8jNOpIOb6Xt6LdjqYgUyn65UGfOUiGxWiK/OZcDUMgVWu3o8+PWpOvpScS/fWR8X//7gf89r1Szq84oC6dcQHGv7E51V7BUs7nD7voOOyZOb1ouXRiA5OO6/+APlv9lT7l5JOlL3zy5b67XC47YComT4kONHLcnCOmrfhiQx+/G8YRUwT0UyScWeOfu/quojujzwsrCqiL9v96S4MzAPvFiWa2U8lKS02XUxREsb4UMKWPlL5SHVcaRfq9CmXbTywKv37LfV3h66e/nyu5TFIPgLUbu5bxY4P81DeTknfq6pDIv7svtmX4pGevx6ay5U8VXcvf6Ax8DPGmzcm4SSib+ryBFoYuZ+bRqC8FTPUQvxfKWav86U+XlnM05FtL7WeI1iCMorjs2RREvXAkv7uFb2+1YeKMWwtu5Eo9fPlW9WctV51XVb7Njc6Ax9D2/b3tL9dvr0FRrmfI+y7b/4KTECJ1h35I6r2tjkS9XAqYbsbmwRuvf0j04dtNOkWdH7b9CkTCKM9mbFw+lCv1sDF2kIkjqw5MpNHvHzb5x2Pi5HHPXn1nkPRmuxfpLnta/r5zB/W1NKwGl5s5LpDzT3p8UAPlYQjGLtZnSgXc/Kun1eSvq4W1xh9LD8A1BPpOACWQcnezciVGJ3R8G4sQnsRy6HDpc3dDV9/Isf++trNctPO+FQmb6m1peEyDKZlM3dLMlmWPskWtnitbigXT9fCXdmaAadToj7r86qX9HKKP/u35ZQVTCSgA7WFXzxLtX/+oHuenvUyqqN/NEofYyDKmsgPq4v3OOwUWyr6SqwRTTxyeUmaaqKCQxyNWTzBlrKnfxMmnVSf9QHCoL/kRUfqT8rLtD7X+EkxH/ATx0AEP8fPpPcMG2T/CpN/EIeJRvnaXWseuULbkiNnxpTO6NsJR3coQC2WaMlMbeUS5POziTxcFpn3L14k1598p+KngKNNfa/KsVXqqAaZeQNmM/QfWXfFrGWIVEn3fPP65lraYmI1VqsGnslqoS/ftukeDqX5TaTDVlmpaWWJuatckkhvG+iFf+EBRYMqZ/JWzfiDBNMr06/jDsMrHtg+z6xjx0SIdjuF3JS3TTIjiCI79JUT9v3Xpfl33ZLYzqHLZLNRFM87bCWEmr+M/lplKr2nWNutQlKyVOBi2+taP7C04CeU3EUxXf/lmuYTUe23Y6PO2jb9t+1ToTyZfdDnM/Bl545liIGJLw5Co+1sQXpWZqsQ/BBw5u0x67pq3MttTarlsFioY9Uf8x9deU2BK5nmxVTIzQvXN2Ay4FDB1NmJzkxQ7FFhFiP6oy6+e2s8Xf6lgSl8/QZDGQKmJLrKGttaw6D+iqOQn6kslq9/1ZbFQF8447/NxEbu139MifIC+qJE/OcP38CmXZRphVtimh5wDHOKP+e0FvnWVZNHn2YV40m6GPWUk9gGCND822DDWbEWV9xYb8eHIDbc87D1U1d9YZHTa5Oeu+UWQjQgcUDkRtWTG5o0wvDARhabSIqNhijyq5fiQ4hRUgumXMMxHwH6U6Y+6/Oqt/fRZcgWTn9SFZaQd1z+IDzyuM+qvtIDbv34MdlKTq8iNHsUY1RVy96zQ9IfNE55rDXSCKvAhP8D0lwDRNDAlqHrBNGrloi1TF0yjRq9tb7T11e9XdLkRz9rz70iCqYn8N//xBbEa+u3HHUDLmdatyf0rhBetEq+MXgdmJwUKqNj8ZDh8pscpi4AoSss02vlQ7BzFoY6fRCVb9aWbXMs02vRHXX711n7OqvuZ1V8PMN0kF5f419Oet5a6em6+8blcBBMuXDiOuOWnf+c7N1BAFX0D7gOKNlCJUxNOKoRDldkUbxlCTCuHq57KOeije7NRxomO/LWX/0pwAkp25hDTZ9sXbv0rRj7Nh+xhrKv0lW66l8uedX/lpf76ZwJ6TuPBNHFrwEZ8EihE+NAg+hqBW8GkwHabmr/vudvFhXMoHL2KWRHPG3cehxn9T/vislwBBeXqfXMZqK8NPlg6yivHWFuzaMFmJcXs+JRNOVvwiXKTRF1dfzlxpHT6qO+czDJdNdgK0O/A9n8SVAN4fqn3wQT6ocSvbZ+/9j0T3uU7JzBAbXRiv0nEHGnx6rjTqOZU8hHfOzkf37LW0anPfSJ1iir9tt20XAk15c2bD9lNvrT9DNG1bpWab7r3KWwSvVneJgg610P3TQFVf/k3iOeSgFLvAyMwTvzCrfyvI5ccTP0JZMi/cJ9z9oHqTVXDBffmUhc5fIheuf1rx8hdy1NsKvyLvqhOfJkyivRK6iIsryi2v2knrK/HS7saYEp+dT3BsKjg+mdiQxfCrf4rRVHoj4yPDZm+oTlTF+7zjX0Ktb1QfSCAGhPxe6T9TvPdEyolhxMRKw8+Zm/fflMOd/jGjyK9UZdXVNs/FCFH1Urcr5QTSkHr65YX3zEmiaGIQT+/xPthxXJfyUtSSwbURfucdzTAdAdtmclczuIp3kapTIc5rVM/iTP6chLKtcSjRC/ptO0FEyqsr43jh4mB03fwo2aBntsLQJVyD1j+XndXoQY3wkJnCpn+7SDxrFDj89SXDKjAkRvJFGmIRjznJJSfIZichPriTVIpaoH+WpFj2OmIjwssSidP185dpT9JHjifcj+yX01Y+wvxrF9jfRwoCVAX7XfuDHhhtpXMcYf7dBBHsTz4+IN8Ww1rzkMwNBz7UaRXygkNj6q8ot5+H3008FNpNJSFfz5aWpbnB6DPxLNF08+d4YOUtFNLAlTRF/s5vaZkTsrBjSYly+7xZJnPDl99w7ihYsjp/j7fveHnD4vuF9/OoCec9KXkYdsXHv2jLKqZ0A9poqb1R7anhP7pi5wyPJ/klNJ+XC9ngeKxn/sixXNy0YDK7fnwfEQRK6GonHd2y66wkmV5PJz1wy/5jK+hPnfg6fjZ30CMsk1TeTjps+3TcgqRfNiUKqUmBNYnnZe6vwbQP5t9bBW45QVljIQRH4hrxLdixFM0oIqEcweYQU1FIogyeXJZ4ymHtL7t+IN9DfXpN1193u0Ko7z0hpQ+2axs7YyIfGq2/YqwqvzlkL9pCieFgu2fLYYf/2MfkrZIwM9Po6c0/Y4pfPMvnqIC+5cfcO7oLVvFDL0zOkNXpIMbP+QytoiUG4a0+h7qr7nsV3KT6CjSG3V51Ur7/XTTrQhvkvvoGlwkgZLWp0Fq++zBiE75dWD9ldv5me55wfCqsPcf7EA9gzg39plrVxqwM3lKUYDavVXcgR1ak5tHK+YQVFUcqrfMJ3nLKfBV51eznrGAfmb1+Wnc7idfTaOnmu1XPrDw8te2T1mAmfqfNMyoPAXS+u8/CF/9OzK+O3UfGHiu0aIv1+WJj19htKUe96ig20qHUKnri++/Iy79jG5KwTxFT3b+pOisan2cOAdiPlSQIM8Jvof83O8UYHqkBk/eK5cweDys9Vyt4WfjEw5TdLypl96w0hd1+dRy+9VwV/UNk79effOCTbb+1fXEqya3lOeMuvYUmfu5f7bnczGMn7jaLS/RQlXgzQaU+vxyXS9xDngnmWT4x9fJvOeifTovAy9g2XJ4r56i8miVh579MUMWqdNWn3u76MPyOqYo0ht1edVS+/1YqH71bXOWnfal0mb5wyH6CEzIlqLPA3CPoV8/Nsvdsx+iC2PrG1ylFQm8aCTeZack+1HfgJpwEl9Ut3LRNKkdKHMY4i3LEz3nhaSelikVwTTJoT5DpELS/qjz37bfVPN4nr/+s/mJV+Qw3vQJg2BdElTj2BDIr363HLqHGH3TF325zTbezSXaTB66dDmE/ctJ4p1sZME/vgB1wd7nHYitskYqZoB6yRRPLjHVUw5hPT8U1o5PRJgmDvXXXHYvTpfSxt9w02fbFxX5mGqghx7D/qVC+kzvLwRBdexdXxct2FbPRH+4RHvEJZ8Vo67xt7kL/bWdD72AhhFMPXTpsiF9Fb5+JHHPlJs+J6WcG5TvQ8/mRy9vwycYGsebL/3r+NlfMauvNotOzTJHj+6oy62W2q/AxKyLkm6e74d+glb7GR/0tWMa+wQBciu2n6QftvuFd0TP28vg5sJKQDgpGbs6YMoEgO7uohn7EPiZzNWUEuj90BGe/iZuAA1GO1EZAyo+E9DSt9WZlu4AdmcF8YbJehzKII+HpD6GD4ox7tQ0dcN5vvGep9T7Ey9UpQxZ8pDQZ9uXQw9DKB9THSy2/6y77gEA5Cmmj0meR1cY/7efkTwUyA9ORG36wz+y40QI5ZOBZ9OIf5OevV5NouThiPGQP7Gl4Xq8MRAqhfelBBfmfHOq96067pZDWj/0zA/6erNu+NnDkaIvKY+Q8t+2L9U/8vTJtKpi+9fmx18VG+WWkmm3q0pBLoaZ/asUXkRNPxEiSvwzYZ4xoDpx57O0gJhkJpkSnTL3XxyET9+apk0YNnXJ5XHRpJcuqijLq+bbb6qIJfS3tdc+IIfwPh5VllPXzL4XE2VrI62PxD8T5hgB6oJp50wHN9qlH5l3RWeVqMqcKQLlIVgZ4sfvQ99plOmNmnzqrr2q55j9LaF/rTjzp4KhStVKXFm4GYthakC+7RIHCzDSCFABLFdKdFEGKZjDu0LKESnHB7f48p3KFSRL10WGvqjJw7a3QK/MrC6hv3Hv0xVnAFQ93zrLvH25ygRT+k1rRt4SB/NzywhQIc+ZOr40OYx00TQK5SGYiDK1Tunv2SAnotTbIgr0UcRRlk89tj9/t0zVBqF/BNXlZ94oOMlaiSR9pgg1JJgG0X62OQz6TRwsxL+CgDp/7/M+DGJadHxactYRFiqJlBMNzGmxyrIinuUw1HMDFD8z+xvvnutuGh2O9oedv7Z9rp741P9CHVPXB8VfbrCy4owb3W0n9d2Dz2kJL8dzOv/wQij6f1D8c/GtZf7eZ384H9cKAqqT6LtYgqM7E6VmHaFE+KGP65xugLDVc1WUH+u0A4Cq6cnMw0ifVw62feHTv1zyydcpvXW5rvce13pqIv91N/9VLDvhOrnhivc5pf6mVUpX2dLjvy8/pV5s+8KGH146JH8T4uJ8vCoYh4odTzkhxXsp8z1iOYf7pmkDwDSxCaFmHO1HjE7b3ojpp6lSlkEPt7yxRLoAmqftIIZ8bqZoxQqpYpN0kaHfbLgHfYd7XZShvQS1sNxX4mEeZuUF1AXTzv0C1u43kRiCjDSfXeKiUG47dl/jVVFUDAbxazCNAn2VlAcn9gbuPAFs4dtGJWkZGZR7l68TvUvWRk5/yspfzcRCuftyL4c+8ssTK7E1YOOE4RJUm/feUa2CwgKYfIlLSPn5n64n/iM6H39Fgl052ldW/heJZ7Aqm96ddvYXtn/puqyfSckLqI5wN0Jx+5B8U5DTESn7ijuFA53L7GSKCH1ByIPLCJl0zuWFBE9+6tjPEl15E4M/XNLIxLjE3qXuf9lB1ZZusrJO+C9pNflTZn7wZcfRGf8zKR1QoMrfTFth1TJxL9N+qcztCxvewE/6RfCgGEAVu2uTTU4wSVNVsTNVJje9jvlw1PMTD817m3/7vOPuJ1XD3b9hp89v+8iPprHD0VnAl+k7lg0w05iYpZCSSX/ZKIBV1g+HpbSgEviqbBj1yy//U+dnYYrBoczrU+Xg+x/BU9/f+yFKjkh00vVRxYdS2g+OAxezp5wW6rvTvk7n40Blz/Nvipm8VaqsjqfK6kGpcnXq247ZVzXE4O+mh2CdMu7Uk6rd/lKfP3DKRAzjuJHFjhJETSfmPCyo+E9axPyfAl1YsrBiaRV1Y9VaNwCWZaZS+VPt6/0yN9VedWWqXJ3+VefPH7hg768duM0LN8zLlGNOQMUr6hxiqJzl4pp9/CMTk2X4UrWPQ+Yhqx+M2X3TtAF7NEaNvn5yAAWDDtlTtB66u2g9bE/jyAZTHlXrPALsYP4/Rm32Q0DdjN2Q6LujBZvkQ8j0L9ku3U887fPDS3c0XRP6GSX8yCc/4l1fX+w8yNEcUEH8wQQZoGaa0maCbBjrub+jqUXGuLktry9WLwdJb/pLJIz0JYWN9g7YZaJox5aEtQSi+QCHADvkhJnyPwPWCa4b4f+WH36LivzyEZilzivvKPS/9PZGDz+M2g98zCIqfsqkf3pj+jkjnURiWN43in7zhjBv+6j5cJ++0zRLO4T0ZGsfv+Ez7Iyj0obH/SVZ20f40qTlyv+0XDmpQnB1ELGR7BRhlKdPsWSTf6jp8xphYeR/MO0bRpyc8uL3V3vFmRVQm5y+C2iaUmj6jciLZDkzd90CYanP9MGxXbkSQ6Vo4WSlCxeFkX6GtgzD5sHMbUpxgHIffu7HxdAzjxIMXie4hlF+bLEexqdan/9XlPRT0kfcQAot/4NpX0zhpODQP5myr5RyYh+XZ0gkT56rhv+eohoOew7wfE+xGvWt+M6NaeL3d/SH9+Q1IWh/Lv7RGiNgjPvZly2Y5hEw+TQCfJr00EXSHeL2HXVF2OSbh46sVWFrP9vjVdh6a5+IK5z0CCs7oAqxjTwH3FJziO4VESi3uZMXHhpz/uz4JZeZelJI6WMsIIG0Hb5Dm8w4QIt1wt1ni7ZjPV+uCJt8zUhJnRW29tv2KJxMSUj0A9T5U7+2P+qb5IQUfiRzMI8pWXZt0WQ5BPXsRDoQWTY2zx+u9tDxdpKuELRftiODrwwhIpia0pWH5LqsGjX7eDEYoJocNmfwt1r6ay4Mt9+FVD+rxb/kc7U8q8OfJhcvk+Ls50NNiNiXKEI5IeXNXXO+33GcKc8PQb2f4X7HL59U7Q5R+zP53gTLdMz3P28csZCUapE/6FNOrohB3KdqjxBbEAnBGXVv4nl9OEYLX5+nc7a7AUNvb2rBJBrrm/DS44uPQ3M/n/L23svvb4Iq08YH8U0jLe/MvIL666/94elfSr5ue6rIv6ztqKD8vM8nXkKez2qZ9gNUvMkPjuqsop/hPuMYJRjgzRZGepvwobTxsEwJPEEnBsr3YFa8D//5mRda6z1L1gTGhx6A7dYMvnb9462s9yedTRNGSHAdCCCmJc7PFAedRpzzcbwsPCFyGe2jBVspPfBFG9uFCyrZvkrxoUaekxY+1Q9QIbsJcnhExIcwKc20sitcaF+o6uPY99R0WMzYU4IICAgtfWOvC84yJYASOLnaSH8ni/LT9CsT05VnheW79U2ALwBYbrJBeSDRgh2I+FruL9CCaIYgLFk5qXfOx8SyL/wkXZ+roN+S75JSgz9VaF9af7fPT9cXiCyDP2qzA1eUaYA6f9rXdu1LCOwupTtbdPJBPmb3Nz74vAsm4aSv7WPmu2Tl6pJ8aZBOAlXq5QF6mUIuX7aXcaUaZBthwVK+3D2sFHCV4AwLmLyRoFZNPihJFP4rx5fh1NOw61GF2tdE3Nz2pRteozDTALW3L3Yaok+VsrHWtRiikPuJy0xaaSGlj+vvi02diKvdAP9wkkbvjUJKbyH96oU7gj5v/ucopP1zhwg/7h0vC6RvNyx88DYs3++wtNe2Q0kpgw/ETVScy8q0Wf5YXBymBl3AUtbiDR6VsqmFSutHze6Hlz5O3PhNXRjWL8Zu6cu/fqsE06jJz7S93IVq1SV3i8WfvbaoD8+FRZ9N5RuW9prKpx7bG4s7h2l5pgEqLIXtOSgkU2QOJI5CmVaL6eQNh5Fhp4+g4Td1Y9JHTixFUH5+5RHDRB1foMUM//XLtNr6bSrfKPQ/v/KrtfMBKNtreaYN+SG8IQlQq1xLetYz/GX6xkxT52OZs/vho09vUWdKE88b9sWj5X/6TTfjpbGJUQwcYURQnrn0r3WfneS6ffpSi0kcnXBlXK77V4xfPhov5YfzORFSsfYBCOzzzPkdj4khWqRJQH1n6llHJBJwAZCZrGVnlLmnzAMhrPflP8WnG2QKMX0bAIpcPllMItjw/xhcTGtczu7DHUCrl50zjPJL6luW9g06bA850z8IWxJy9r+UtP6uJ8NDvykh3v6WhT9p8rT1VZFvAq5T4ucOL//w0SSgikT8ExSOx6RB4yhNSCnkOYPGTRL9jFGgh0H0G//wPCZeirPENC8IQvzPxHsSVAmwHPbSCmbAfpj4wdC3gTvhiwL77ChB1M/IQ9OcK+fHF8nTUNCbq5HZjsu3ICoi0A/DjhNlbR/xU4gUoCZiYh9sL6VE6hWefAV6QJVnhKieO9Ob+k/pZ5QpRO1Xr9T+/OWqnlIBVRGr/pJHBKhMkCLIEmwJtPxqJcGWqesl9+VTBvm34GubvC1HFpx1pw+cQf2mclQU+fvb+firoG+zuigM8jdufoZRw+vC0H5tZJVBP6JIXyIWk5tGpCxUx9mWCJ7ynWgfQrhz7+cyCukoLVS+MqKwQmMzwJ8+v3KsGvLyiUDGlAm0+hxt2eoyV1iZ+Hg5PPdGK2SW9f0qla/96Z8p+FDot7SUDAmXa9ZD0u4o9Jtq4RcUa1uKNAmoeA8Ok43BwSjlA3dJW6hAmnImghTojAx9BIHRl5+Qk55KVGjLVj8r+IWw+s7lyznU50tAvkzxmDDotym1UdLXMPC1ivyS66Vl2NTL7//aUChbk9w4gqNPKh3+R6E8AN+KN0ldmIyKAj1yNOfyXw5T4fuzqXgO0He69qd/CZ0+m1Lk1Yeo6W+dtbeJOCoBdbBwPkABq+GFAtOolPWQtZCCbnldfRqXbwu+LJjCTm8fPqEsl1+q5tq/RXCAM/t0UzCFTd5G5ERIX8PG30q3hzgqARWm+sEYByn5JtFGlzNzVw2S51evPpffL5ui6smWFJpmtluXw0MfW7L2Rvj+bCqKA7RO19/1hLo2qa/urZJlLXedV6jefUzBrF87K9S+fs+tMH8i+HziqPShxpzYHp5xvjLh5CwehNcvxzHytt9x91Wa9BfocmYe3PWm1imeKEOGVLuDe352PgR7/x5MTHEG3s/Lg/TaJACmTwru8ZouJ3AmDPprKqB+/Swk7e/XLt3P09vHULgW7E0h5zrAd+bxwfDE43RGlWzBbmM9S9aKbrjkmKdwSN8vM0+/f38cql49tkHZQ01KxcS20qEMJoU953LDIR+bIQHGD6Dy8yH8IqacmIoAnV45rMemIBZQ0VF8JGmdgm9ePoZlllqChiEtbD/PDyMdufg5ALuDsb+1YGVboT466HAVJ0120DXT+di/ZT/t1p92B/25nhPC49tKQHWcxPAY90lh40GYFJ6SIv66IJssV6e+de+dxHAsr2xB0HcxiSDM/xQaZ88Z56noDQd95HMu/m+CkvUuW4sQKrOVQrRomeoZhKV1irjTsOhvpnxNdTis7U/Rk+o/A2HscCcw9rNiEsPshp54qPzf9Y+3xdqb/ozRGUIdJS7l7h/hqU8MV0P+WLxVN4qOXClEb64tOtRUun7AlPFi1PmfDAwcKLQxV3xODP/Sh8Tqa34nCFbJN10V6JP8NODvhgeely8UI0WFUbP49B9JOTJOl2vgaSlwuGUKykbPKeNJfIGwU3VjoQE3xh557ieMX6a8dp30nbr6asDfSuu/KetM9aPS7ffiQAOG9cPx+W6CYVCJhtOEfb4q++eaa38vtvKLEiHun4r/8VbXQnVULp1LMJQycw47kPod1+eVqb79czMlmAYlJO99CKzjrj9NTlqsuQlhNVgtVGn6ks8z4B8Bgha6SaIyEkD1UlNtseprabnysyPkAc/LjDXV51UiJ/jRd8a2cvSwBUM9xozqmXm2ge31MzJZgzApLkjQicrOlOS31ludV6let69QHtb2k5+UDQ0U6lI50uDD3ycNghWX/BLg+op8RD85Vkl+yXaknt/Y+M6e/7tnn3IFqzcAKznuR9LDjUqX40NaxBgEtJOZ5U58q9LXs/i0HwFUu+XwotL0mjyPAMGdpEx3WiJdKy++Oys9BFj+zyZfjggIsA2QAZf1SsyBPpTiPtCAThroG2Pib37jSYJFAX1jhzVNBOMNDzwnT89Gn8nzTOTBBxR9f1NiMs4r+nkF+Fssve0Y2ldi4Qn1cdz1p8tJxlXf+23V8SkPv2KNvbGGqXINP5guEZfM5wu9SmWC6cRbvqpmBTMUqlxFWmmTf32+WPa1W9KiAcLADyk8Vx60Uk0BdTA2RVnV1iwtbz/ypKWoz9cWgS4n+e+2J5ByAX0b8vEZvqwfjjZ0e8Mmv2R7kowz/FHF/ujVv2T70R7KpRJg6uXQ0BMPwcu+WayAoVAtfMrFD92euEgkpsiCNltdCzU5zKhgmW+iibf8b0XBVAuMQ5aJt35VxAY3K2GFgB9sm7aomBPsJODpRufJyUtODnivz7xfFMqmbg7SQvdBx+//Hlr5JfnNH34SjZsQ6SPBlCPIaiTq9JgrTggVP7z4GY/FY9vyja6GE8jhwK9WmULi1y6rlQhCk35xloyTCwM/5LssQx4MoTJNQzHjWk15Zmu/n/a0HevPOl159W+jQa+pAPV5IemflGcz+me1wFSzg6A67MTDAKrVxatsz4+jVeO1uSr7rjyLmMr4L/fNKDG2vGV+6bMSPlMtlFw5h/8jvvyhitNvym9aYIyxNEm0uuV+qBWQn2n7kxazgX6N+JLZJBx5QT+t/LxNlfTXF/0mwvOeExL50a/OUVwY0qjzPwFwn6As1ZDwh3gZTwgxgkqedHiDW2p4oeLLyLxy13OLutEIjSolEWT0ZIt3hriYe9KyY6iR4kP56ffL3w530sWENj3sr6Z8/dLH82mB+Jk5XoPYYq+8OObylsNEv4ncvOcUw79y0M/wRY7iik10V+k+ytzUfZXredpSDgt/2A6GS7VJZYPFQCEAPhS4VrA8+oJPFSUoCoXgwu9EcSORzPbT4uX/IUV8g4gzy+8dfVlV+FFIHh1znhTDPnco2lY4cXJqwPgRYuvSNTi5OvItRE9mfUNbq/BrnXIFXFToKyy19DMy+VONMsPWiulHNG64yGLTY/9CKNw6EJaOL5xkajt8L8SFH+3rBUoO0T1Ig2EjYrQ5QgiD/OPoYq2qMWwiG8W/Kq9EOTkslU82+8M3G8OcFn3+hzJERoGparn6q9rPoP3lF90FYJwt34xmd1dnsV1D4Ibw3q8S/DB5HsGRH+EzTe2zDnFPrbx8TejJ1Dc1m2tuCdE6VSka9LmNNc4y+VONsp/JQU0YQ5zY99bd9bgbV9xfPgyf63jg7/K85Rf/0tidpZ8xAgt0qsEP9fz+9MRhpWJaG0nWcZikTq1UefiXPuw+0CwjkBBINz+vLBKT9vItuehUgC/iOP0kKawK88OEHtKwfs4TxqS0Y3KnUvI0bX+u9sSwccYwHytuNmOUIq3TKulv0fQaSq/o+wfID66wowvMNNH9tuC4qwGkT/rCE64GXIh+6scVoAyf8Oh3HCZqkxSaHA3qiSewjmVovZqYcss4Ma1cYn3T+GGi3bUC+bRCiUP8pf/3c/kp4GLat/zCu3yBKoXVvCsd32hZFfiTj/+bX3grbTVRPt7JECqEupCQIOWXr33FyIftGz7rUF/un1Xfuz+U8ilIfz6BeerS5FUl+Q3hC9kwEUxToJihbwbt5zabS876uS9LVboiQtI/4wnHaVBCA2qgUdLB6+bkYVo54HquUDJNtDKXAEzT2lNE+5ZdOMfX8J/KVC3+kDdp9GbwP7nXpwETh2GirdLyLdT+zHou6vBjnXLE0f3a4tDKJ5M+L/8NRCZPySf/fPfndUHV+4m+Wfnd++WHHkt5PuOJCaqmidaz/PZaRv8Iin4//R+TUjEO+5H0cL9yeQt2kDJNa278s7JMA2jniqvvF9ved4HRowcf9j6x6dF/G51bjpO4OQj9TNnks/73z8kQL7m/ZIGH04FPfnN4XC15F3ruqPP9TU6u/smfsvLF+xzS3cD9N0OUTD/bwyYnl/9Wqf1NE9I/tpivGXS/dGDYrlJpOLIZG+PwXqYj2NZ9dpYT1Nn6iVcfyl0PQHXifAhyvOnJBKJrZcptnr0QXSlkzWid0nEdVPv4ORRGB3AtcqFEhZp021mFTitbvfQXQ7myycfB8GojwN6EDjawHcP+zf94E78qI18/8vLr/qH8aMmQL/noYQRJKzbwiGoafUFp4YSVpFuNmPLLww++rP3pn4wBlVEIGx58rqL4lU2/AabsXYoJ2kyvRDmO0BjTmDbO1rOZQbaPW8NFJ+WWj9qmzowS+poUz3PfT92p8vUjvvwRMyLcszhiMdcHX7e2JxfBAfpONz76L/fKYPSHW/bRmDJJ3D3NXB+CaV+252GlFJurwcprpquHlqueK5JMEzfpUI0Prn0bksI3bUWVzisgny3wIXKoZZoYMO+Vd7nkq+Vlcv8mxMmaDu1IJ18i7GxJWyCf/vICm8rOgfSomxSemMjfq4+p4bnCH2VMFW6+wpPg8MGP/nrbH4cuSguVjlc1rPTkpC7bcXBJnl9qfWE+yTO6X1+knqefq/MSns/hciSSAf83cEMQw6SAKyD5lcB/r/5wqa9poiW0+sY/meuf6Y3teSVxQIU6uXoVQP/U+qHmDwo3rUGu4Ar++X7xz52QApRKSygjB1VZj4M+ebyE+kaEJJkmMjVrO0p4Pu/nx7IzbWvQ52WlGw/x8p/+RD9DI87aeq9nm7M+p0T+EvWy3lc/D/WcdDH1AbOda+98Qk7Smbaf19hUfg5klbOB/LNeh+Zq+er9c00pSLtfAM9Pu59ul86z3J8+VNl41KUpvyorlOVNg643ffOUs31xbtUXgWTCf72psgk5DE0qt3xN7+9n0oU6s3bO4x59NdNPE57Yc0rjQND4oPXHdJ6FrfeCn75eHy9X+zLvD0BVZjJ9Bnxopcp9+ICaaRqAmfZytI9bkYU/mclnvY9hv4zbwwihkvLOJr9B++7kawUOfacJ7NmgO4tp+8Mv4+i3kMBnKg8/8uPiGtNUjuf7xUMAqh6WMecb31smKd5ysPWmjFJ7pAbbPs4KRiOZ8Z/fZeLQ3zSN/PKH3Te62f2VHgQrfy7tNU20Ttfc+RhO97aXV3vL2dtn+gx7XvEc4CdyyoEfpkYPXV7leL6JfinLmHroiDg2FqAWImlldIuyzKPesroodX7x9SoeUt2p0F+1UiPY9rVV4HtVhegyqffD/w4E+psm8pRWhZ/7p0CVT1F6Uez1rYgb9LM+nBNRCf3NL0mk2fN1O035Ys8rjgMEvv6hS8Xjg5ab6WrKHnc3NQWqpMFMP4rV31z3525T7sP5yx1eysa45TLWm26CoDp/a6DtUyAtiQv1Hz/y4UvKdHKKs6JtR7wP9h2TellVUv60kE0TaVorN4Pxr5+mz7Dnlc4BTi7K4bxXn+Rti9MvLkRRs/eF27b5eb34hVrseV4Jz5f9wef1jbBPHUT84zt9VFZlgVYq5zJIk3hUMpWbZqx2g7lLbd/QT+xnbB1x6ef8T31XmvOlPrcS16/CcszxV55YWANxxkgMudf/LrUCrRLto54NOXIvY/6TEFqnxerngpN/UHG9LsTHQfvuLCYbrr5bcMoP5N4TxdJf6nWMxtnxb5cZ6dOwWYchCuNxbGyivh5ciA+F6qmfpqnzebUCsFR6S70+DgzF/ijpEx8s03TJdly+gQKqV0wwYxmFRfAt9fn8jAOXI5omxnhm40Ml+JPtuYXo50a+phEUHKJxYijbc8pJn5+vM9A6VaCfro/lbB/5Ufb7GyqglndmXvb2uf2/F0NptXl34QbT8Bl35SypT6W2j0aB6TwH9b0Lu6959bjU5xd7PeJQYwklLOiQZKLKaTV7y1LHAq6noEw7P4U1+fb/Ux/QQzuKaR/BdPJt/2c8jKAKbcBa+Wx8KOb53vuU6/q+Ddyw19yX2v7x/SpK35CP7WfcUch/Wtxevmk9LBf/KnZ/EmeQdHsy80rS70ef6EaSI6QS8IMjSOqladqIpenV5I9XP2GhOn1sDFOlc3Z+xhWaJoLqDg9frnbg8dlevu0IpqazhmwTBdWDJY6V5kupz1tzpzlP6fdqxNJPplKfa3L9KB+rouhu4UcJTe5bqfYH+RzeyyRVm/6Nj5iPekgPwZCgqndB89P+MRg9jvu2mctK844vXSY/zynX+bBQnR6at9LkYyZffW5egfJahMKYWqlsDkF1u/u/IUaiY/K3SXtHfuXD8ho/YMpn0R9kcv9q8i9b+zjjaTpMI51Dufk05S4T8jLpAzua6TCOTVnxnd/gb/naI8mt2v3V0wv/rT79fVju68fwIU2UNfupXOpsoE+M+qCvdvhJhxVmiecMafTIGf7y6696bH55NMJ72h3DPIHqRWwUqJdtIxfKX+5DKAz39eSkk5806isfAfMPx16l/xKd+BwKfW16a7pmLGdkQDCHHwzN8dOJdRsISPp+leRHUPxnBzANS6J/Wr3lyydvfnjPj3Uadf4X7k9a0wrlle2PufSPxsVw6ImflUvsd+OvOkmwr3KbSfYn9nf2VRWw78gP9LGfFtNHyTm5J24F8SoXf7S8G4WTwNITbjoFaMU/5dhFXsHy6p/8UbTuu6MgEPpJtFD5JuT/IBMt5iXY2Z9MqgY/5Oxnifznblopxc3PHcXHGRheq/0kg3h+pv4Mg+Xhp9Osgk5Emf+Z9HvL+aWRWSvRoqL9MZv8e7FCbSn6xMQfnpHZwIJlyp2Wp1/rs9CNGf3R9Ro3TqosXuV7XjwWj22UoEHwwD9kCkTcsnK4umBbpvpeLENd9q27CvGvYvUr0Zl7l2DlBf5Vgv5y8X/NHK4sMktDMVlULvlzzwRaN6ZJWadvR57/ufTHHQKasiOtP1ajf2r95Et6PTZ6D0Oif539NGz9M46gqTUSceHRdXfyU4jvlunorUQ93zRL8RG9aieuiV+HIHKtRJWiXz8PKJLG71Kev+F35rP9rQifatllkuzrXnmX8nw14hFixMmH+4qsoPtB8yOI53vpCZK/mj6/95dWiw9F93t/7/lB82/FVb8RBLNqJo4gF/3vzRKvgqavVP2IO7H4UiqvfvMlc3As63HXgiVDg65f/7tnfTu/gxQsLSMOayRdZaAvjV8VuD8tfz8WxbBZh6b0IKD2MVSNPlrTxEkGHZ+cxi+tdzoPqH1Jfdf31XkZ7y/fWqYMydWOXMfL3H5OUBHM6E6qRiKYzj/5Bjf6JgtulZn+pL7k4H88kUjM50lE5rSc3JKNyziuzytT/XLM7PoBATYjiETLdNFXb07xgTetAv1JOQT0/DV3PG7MnrYj9lIftKM+MAVA//BZ/qxTyl/qYUDPpy6avAkAADE6SURBVK0g75eZV/P+fLZhYrPD1n5Gkbz7iatgqS42pCKY0zSYJp8bgH4GrR9xfEP6DdmJSbOUXnou+1aW45JFOF6O+qXfnCOWf5chM5VJBNOl35rjflUVz/TQWw76Knn/La8vNlZ8OTmFoOqg2sdPm/iZiKAcGPcb1PN5n1DKz4dah7L94GsfLMUFJ93gKzzPB9n9TiWI0jKVG06HuH/GY078ZbZeTkiEKOdWbe9+8jvGYNBPAgYH+MZbCKuUYBo2+oNsj4qnNWAIThnhDs+DeP4oxP+qWGGzZ0vfqYumQTyfTw3rfcw44n23KBQJEz0E1fdOvt4NuTOlyP95DAGcf9L1EkzDRD8pyWxPfNfXf/wKROVIBzuqVc43uycUARdWo9yFb0nxLciORvALMtEaevPIixDHimVrVaKPwqgEv9dhAxRT/jHEZTCG/qXKe8CEkVgwYB7ORnlsXbK6IvwIg7xNdZkWahjam08fONtO46cTcxBBJt5vwSk3iGVwA8mtGyvUX0rgtyM/gQKh9XICQDJN5hBiSMqcWGFM4ptHXCSBlW/FYhNBhR33rQ9cIpZ8804lpJDRq/gePP/V5sxmnBuGYX+p8qd1apool5U/RggM/pWL/lLpCfp6U95APcGV4PUhaHoYpbMAQ/J34FtlHyslcWKSw3veb9Nzb0aCfpefvdJF88ouX1qPUIt29S6k9PBfBXi50nTLsqL69VwAMPST+4shsKRMP5HAQH1GEcgUcvrKwf+miSPFztgHwTS9iZdOz+LVRcmfvtOdH7nC9FHyhblSrsemYJBqXD6D9tlZbHvH1xStBf7Oh4XWCVCR/TEk/c9EPg1DWuVKRW5VyP/5+imNJEbYMLpDLkhZDD96iPEnF/0YcXY0SnnGYvx+QHuKCOCsfDWGM2cc3PKr7pNLTif/yGzlRg+FxHddiOkqJ/8Jjnzzm36pgL5UOTFYBL9G/+9HCsBEqpqdSW7mUsRzysmv8upJiv6Cv9JeLtHRX34zjkvKufWilhNf6gP4jSiQoUBJpF4WtSH/tWrI7zjzpWBJFFNEcmlBqRYX/Cs3RokIXeXi/5o7fKycov+zCH7RGvHjO+XmOMkPNhbxPCn4yF1XUF3TT4gcfdlxhP2VVigtbp1HU37Z6cMu/fMVoMacf8tT+AJ0RZkqqyOpsjohVa5efTIeLV39spaad8U+ARGjT7U3OP52+vlECgLyh37SXY4KjqbknV/+fnyntE5X3/GovKHp/RU3vO0Jjj+V1I+sSprlYGoWGZV1rr9hpx9bof5bAqpIxOZJKxy6KXMlO6m1anbPPR7CetOZRfpd+aKPGn1B89+PlTrixMPBL0Z7mMm/Fb5BWqimSW3diM9lGN6/luRnyiM//K8l/rCfUjGiRD9xVALq1i1dD6tZKtLA2X7k7jDDW1ZgFK76bswumiRaqI3YncpLD6/zlsNIX9DtW/e7Z2RQtinPBu6Cz86QT9CHQvwZ6WMvSy5dJLgHTZ/3fmGWrwn/w9z+qOCDVx8K6W+p9cRRCahT59++Ho7jHj6c7wSZY5YtCmW5csJQO7kBSNToC7q93I9yI3YNMk2MJzXVBy5dNU0rf/yQ4JZwQdMXmfuZMipi/TEy/A8e33qIo2rIT+E6zjqa13Jc7OZRKMuQEkPlHLTvlMjRVw55MObTNKmvHCi9KKQPpvekdbrut89Cy6Knb4HJw5RZcqRoxv+65qccQVVVn9ZRpElAxbek39NmvFQaIrg77A9zeSvWfpvufDMIu/fLRLoiQl852ruV8aV+kiG/TG+58kcP1TX/ZX8yZRbPM+R/FPqrJLsG6SF+krYkoOL3CxJkeFSDjTSLw1/W272x6fkS/ahxzF5Hjb5ytDcfn/rVmepDvwuzH+Dsvuz8EdGvavKfTrhyPL/e+R80/ZDSCxRVElCdROJ3fAiMZqns3pxvSG8587xq1/sZ9rcf8f7I0VcO/lL4Jkm+rAzlb3I/nkM3glefykFf2O9vyivSUY/8Cbv8MttH/KSokoC615s3P4pCghMQ8mRUqly+I3E0VQ5bvamFSoJbZ+wUOfrY7qD5z3uaJDUxafZ8k/vpc7z08Ji3HDb9Kkf7NB8K5X74r/trPfDPqy/lkI+f+4PfCeIn25EEVBYSIraBsMmbMak8/OUtPvyoQw7fK3L0lUseSsqF/prLv9CdMuujol9R4X+987Na9CvcVNqdBqiA0Hf18IK5TFlyvgHDVt/x8D9Vewv85aYNgxl8noUueak7vK35+gJ8SlZn4VMu+ZtODmo+58pz3V+fXxP1SQYX+OGD/zXFnyx0h5c+4Kab0gAVNDzudYBLUMHEQWauHbqZx3W5GvVcVmmaZLxkFrqq2X7yvaLPN2WWp12F2mcePYCXdZb7Frp/TdWXgf81xZ8I6YfETVeeaYAad+K3ajDMzDOFFbb6DbBQOXtskoYciWE/34AQms7DTl/Q7TPhkzzH5ZPp883um+K75X8Bjvnkv+ZnZm4qv8zrdNlen44Xmi/MiZtaimmAuudbN74GO6mHJ+kgYQ6v9MVkqi6Hsd50cmoAdqVv2ZWfTE7Roy2mMNPnbW+p/NcKYJL7kb/R/eDFLrX9Ub6ecvST/PC/XvQ3RPLvIW5qeaYBKg9C1Evkd73dqRuKXn/nW1p0uhzC+g2PmC+pHIlvxTNFib4g+S+JN/zjR/4mtxw8Ywr4rkClHvkvX94mjHLP8cP/JD/rmL8Vxq8lXlFmAVTnKflGxFlK5WnIucqfmbt3Ckt9xyNmE1NsNnf7jxp9/fhcIv/dywtm/Z6r9SDj+caWV47r+z0n4/61Um/MpxqlPynHGqAPhsFTLhky6weo8UTsp/oEDh+8wg97OYFdwk2tVM72tx/5/kjRFzT/tZzz5/q1w4C6/PqQ/z79awvdr9br+3Mk2xFz/tc6v8JInxcvKb1+gPq+t2/mh5d6WClFydk2N0Wh3PGouZU6DN+l8g6/okBfkO3Vcs2fm8vfdFJQP6/e+J1Jr+ZD/tyc/5n3t2Vwtrz41ePiZVKE/QCVNTBjFyTNcj08i0jOeFTTju39yF9U6S223UkNKPAj6es0kD+/fGmaim13rVxnzCfXMVUrdNcSHcTJTDlmBVR8G+X3dOxyuO/NyQxvOYz1/CTxBh++1OGfOiBJZxToC4r/mYqQq5ycTXVDzPI9P+mUznUzz/Fs96kb/vtglB/+1w3/cuBQpeknTnpUWv7MCqg9sdjVaBzRE5iJgYOnM3nL+rjO2UnCUM+9Nk3TsE+oYb8iNxzt1/zMzIPkryl/pIVqKH/lZDW7czY9CZK+UN/fB6P88L9u+JcDZypMv0OczNT2rIC695s/Ww37dJ1USlwhwQZKkF5Wx3nDsNVvfO4NwX1STRJjUjn0pyUQFfoUv4vnfxyfgvGTTOVranh5d5tiO0zvXzPyMWWUK6S64w9tOVcvQqwf64iTroiSWVZAVUSIuSSKSYINlEAOP5JlHlcpjPX6a5puE/NmI08+AtRFiz5OOBTL/1YuavCRTOTLfWZb+GVZg8QIi1Lar9pTPP1huN6ATclTTPhfT/obBvkB8+cmBeT5kRtQG+LXyllCnCyHHVlzdacw1q/1MewfPGNnwf/96QgvfWxZqfJR1BX+258v6sn6+YOwJeLOD1wkhjAMzUfS1xe6f63Wm7KqVumPsvwd4GM2+eUE1Klv3DQPF2zRwyzde6NS7uvYLNb+zo8vFZNTSFGhr2R5SGoL/6ELXSY39/KHlub4bx0ndphzjqDrxFfKcj9e771/TZcNmZWP/+XmD5dn87NB3J1twHgl37qRT3793OLiYz8pNvY74jkAJ++rKE6nUOEHlkk5fqNRXvfbZ8RwTjoZpOGISV3xoz9I32tU6SWZpvIxYIk8hXLPxg/ya8KFnxYE1aJSBPWJdJryt1B/MeVZLv4Xur+f+nhbq2jDF4GHfOD9GKlNyftyZGhc138XyUiaTf94S/RhMU02/fDz/KhdLxyJi1lFmBdQEyJxMyyhnykl4qS/mriJSr7puTfFpuffVPufZiU//eCYs44RC8+/LXJ0+pdHOt35SlrZaZnwOcM+sZ8Ye9axeTtdvvuxjjLR96vPvBCHUvWZ/A+SX627TRYjTzpcyNDB1CPz/qLVyv+8hmDKuO8V+CT4Fnz40b8eRgtPNH3YXurmXEzKOeTnBVPf/PnP4QCWu0/h3aw6gZtHpbzufvNhP63ZgfwOPbU4ovRKh33B9udSh/7HaUiSH8M/eYDY9bGrxOSrTy0JTPmEVbc/gr/R1Ccz/hbSH3LBLGn+B8kvRlnseNe50u/tB0wzW8zRCa/f9fGr5P2axg+HVJVcg2xvyPpjD3Exkxe6nBdQ1UnOi2QSupV6A0nnXXo5zPVrfjvPOISK9NJKpTJ46Q0zfZyw8N8+UmqWGAGx2+PfAZCeIgZM9OknzfIIThZ2PMxdwVL65L/9UZdPFsbkOKSgOZ3eUvRzzFc/KqY8eLGchM3xyKIOc1J3tye+I3j/UtqnJuDS6Q2TfkBvX8zHoIKA6iScKzSR6k3B21HM+CstIZZSb2RZEbL65T/8g2qWwV/6BgdMGC7PjAp9/vlvwAj3lHb41YIAUt5uOXzUCy+4Db+ipT/++VuIPpe5hlkQz28YMkhapGOlwWD44CJO4/13vOts6Vuvxf5DPMzHloKAOvXdW/4EW4IfUsd9+OZgolmvfqm/OB7ielpFpoH+pGfChZ+JFH1SLr7475Vd+X+T929/7vti+Q8fch8WLf3xz99C9PnleWn9q2XXyRhlXKk2Vff76CLO58TWjned45mwLK39wfO/kHyy1xMHiYf5WFIQUNXFzlyFpRpFOVzz3hbHZTm89X6sVFplbftN8RAYfvr88d9DWpl/co/aN469AhNRb+BJ4dUPf/wrVf/9Mr14/eMEkrYY/T61lPP53CkPXOyCavHtV20IzfVzC/HECFAbHedCbZEmzXi3b0SlvOb+Z3xaqZ+WvIsKfX7lU0gxgqhfcuWvxbtf/EkytIb3rFV+lov/pfCLk0bb3fglj6UYhFTN70FXkbZU/fInjOcTBwtRbwSo73vnlhdhkXYoIpU5TAs1auVlPnypfMMOw8w2TW/SGUV688mnkGKUUt/12mJpla68Tc/m1x7/StUHc/4Wr38E0wETR5o/qgxnsh9N+Nana6H/dBAHC7HICFB5E3TOe6lEHLYpZdLDnuiUGejvx5c6UQaut0SW3nzyoiTLkRgS9faJ14rN/10o+RZlfcnHP1qOpdSb8764/jX2q8fIIH3z55TvTIZWcVlyKfwqld8BXH+PCYfyBvZ7b9C9ZfDXmwdu/AJsjbgahvDNyXF/tHJaqdsgBMgkccg0DkHsi799b+ToLCwXEw6Yn0OrdMH5vxDMCaKFnx8tvQmeHlPe+udTE6JURp1yhOkD0s6jwdHx8MtivRvaRropT/aFoZhbaP/AVNHgc7cyPoB97j+HfhPuH85vR04/Et1b2s5OY1SOgjGgHrD4+q6Xdjz9JTBjbx0XJpWMFqvLdL6CyKxkGb8Y8pEsh6B+zf3zxAi8Mbk+2SRRMddjNcim514HueGnz4T/qpOYUF/4HH4dYfG3fyXWgq+SP155h1D+JvxJ6muZ2u+P/wp85EvKUP/GnfUx335TAumCC24XG//+eqq/ZtDPCUYHKwlHfOpAGBrH+FrgQUAefeqRYukPHsx5//D2L/ES8a9wb8jyTal8F2GH6q/JUT86jUoESya3LMHUU5ady1MOSf0yCNVPmniRmqCi3yON3pDSl5RHjvbx5WD6mZhcfOL1jJz4zyHfUGAqxVwb/CnEv+Dqc3E387h5/xqIiSDGUvtJa+EKoxw3STDllfn7N1+erx9zufDzlWHedRQWiTQCWAvdP2z1MKO+xvabJGMfKm829Z1b5wFT5KaqyGVSOS03bxksSSuHq34TNqCm1Wma6Fjn+nWmdLp0OVz09W9n//apCSNJkq8/3BxjAYLzX535DbHshw+KXuzqRYsrO1+iy590eoKnz5jpsh+ZP3/UKUca35onLoDFueD8233Lj3JnBMcagLFpopXKJcxM5eZvgPdfTdwzpdEXoPKmsZhzExuL0YdkisxpCXnLEahfcuW9vqw0DnGaAaxZ6Ywg/csBhqadgSDKyabXYJXQMlnzm2dEYmNqlyHp1omY/NPkWGH5JQ1Ak15Kvvpo31Afe9JS/rRO/dw/jW/o59xMyM/HGeluixZ+ODeZiEmf4xtQp74z6VIYJL0ppqhhXlo5rXOFs37LojVilQzr0awonG/7vVOhDJkvj3DSlyYPkJZWduXDzkArQw/dOIyn9c4yJ+9oif5r6lkSRBdd8SvRDWCtJfoVOFRefq7fqLDC8QzqWw75Zba/dbdJxmFS9JlS/sqnnF0/Mu+fLGf073e/9BMzWnAWR3sDJ41I10dD+nI935Q/fq8nzkm8M6bOn3c8edsXtzv9zyIujk69abVJmjxF3RmHVQpv/a4PXeJrSR6BRvpgpRTDT1/Y+V+P7WvD0syd7j5XK09Vcr4sOdIIiv8TL/6sGG3obqCbQY6Owo4PCfGX6e/d8iE/AvJtofLmjfHGkzFBlVBvWg2WzFnr5tIk0mX9StNlnuY9v3r1i69gSJR54tBfLksNSfsVv6vHP/v8IvXfXOUCP5MjkTW/YVQGb11k+zP0349PXi42yLg+HQ/YrOriA/GNOOeX+UUB6l7v3LTScWLPSaIpFRIf0XwjNqFeKffnNGcdY+q4e0+U6Y6qvGqn3eb6FvSZG//OfRWC7bdbF68xXjTThq3+gn5+0PcjvhHn/PK+KEDlQ+KxXqA3cNwFUzq2SVQUy8t+oD59Yso8vmG3+d4pkaVXyinC8qqF9pvqWjnO4yRSOfrrZnwaxSwBJ8Ktf47CNzNqvGcVDahT3739LUDoq9LRC+Zw9EAmRbHcu6FTLDjvF16+FPw9FCtGRiFQOYr0SjlFWF610P6CClbGE+TnSsog/67XFhq1mvsNhxsvxKvENyNiMk4qGlDlfRJ9XyCKcmWJdnlkz8NfvwHDIL9D/0kXfUaul64F+rPLTbuywi+/qLU/ox9WtNiD7z+l8ysY+ZoSwRFeOZ4vQRpWXv/cnD5pFRLXikwlAere8297LhET8+UwH1SQSaSmf66o7H9cnx+O+qU3POgrpo483+Gmr4gmfkI5K93hoi/s/K+X9nUaD42pYcGnZnycL11fg+l/Dfh6qkmScatp/SWY5wehP8Qz4poJHdnOKQlQecN4QnxZvRJQAJNSrx4UM8phr+9DsPp8n0N/rv4gqEplyqA3avSHXT610j7qGffnrVZqHNKCfhp8/2xBHKxJ6sXXUsvx/CD0Q+KZCRE5zikZUKfPv/UvIpF4R94fQkq9+lxLlVTKVweqIlBPx/oiubuUpMjoDwOqOfyPAn1Rl0+ttH8RwvVK3U/BSDmznNTurqZS3TK4/sn4WpPEz08zBf38APrf2xLPTIjIcU7JgMr7NsQbj4crVcIlJwyo9ConxkSvvPIXj2Ct/8s5WJb98Ij/OVDIlVQRpDfq8opi+zkR+t+PXCY2YmVapVMrhvz6w4tB9c/2D77fmIwuGC0hxAenIRY/wZiIHCdykBpIemH7019ELOw0OUEDdkU9b0Sc6W5/vNTXFmVk5HysAln9m6cjT3/U5Rel9hPcBmKihh+3k14j6FExOSd7uFbeJNHl8N55twamp7s9NFtwpGaS3jjhe9jZ6k0JqqGRUyz+0t7v3jLdpP35zjHeDzXfTVjX1yf+pzEeezvhIIQLzkNOVEU57+3oFO+c+WOx8z3n+9pQl1Yq0+r7AKo1wIeoyzEK7WdQ/JZFq7EX6Rsl9ZvG9kHGgErgXXnbw6LzP/yyQmn9dcxpHzQGU7lfBME0RPgAwEr0Ar9kxy3xTyBDfrZhxoJb3gOTnuCrlcySOYe/ES534jMei64w+vJBmhjoT23dfbIa1kSYfjkss+2PjD7TjeDHVbXz3eeJhvbWkuijno/HcmzTtP5vL5f0vDLhyRPEL1Ma8p0XGKDyIVt7Y8cBRfpINLFUJuYRLq++b55Y4XNXKs78T4Gy0lcl+RBh+m37o6W/BCzTpPV04CR8yK+I/kr9pp7zPqaJ7rCQ4UGfxC1TAgqcFyigHrD41rV43n15hcMG5RNeCOsXXX6P78kDrax8g6fRG0L6bPsoFCSvXupy5stQH9d5yOpXY9MTPx+iJCju9tCl7oY/JArJy4cc9I3BKkG/YMoJOLmPgMH9k+3I8fyg6uHD/ZWLW/KWpf4JFFDZmL3nT/4css2SZ2CGHP7jQLLsSitZVsEBoa9/64wfi81YA+0nJUEVSpukN6L02/ZD8tTnCMhv6Q0P+FFTaWFOwVwB/7fjQ3zU26S8Pf2T7gH6Xvd86mox6ZLjfVmmbNDSHzwQNv5tnj5/0ixfzCpwMvE/8PT3bU75PEIQbtU3phJyNk+nqJY5E7vbn2b7mqQizYy7e+P4a+SnlVmOKv1sO5Ntf/j1ea+nr/EdoaKkq/6qHamE4Lp/fqeKICtdWN6TfPymb/dtGCVModEfJ3baPgtu9beJRwGaUyhX4ES/1c9ve+qbANGdNPNqJedqkF3uvaBoUO387wL5cqkVflg6whkiWKye+u3nJudzZv8/H75UMJohRPry1r7zb+M+goGmwIf8unWJuPMRMC/BcRKZWCs5V1K9d27S+NbkFszl8P+e88SwD06rKX7UilxrjQ7q6cLL7y6ol5U4gf1liwumIeFzgvhUDtobynFT3vOWdf9ce+bQabvDh7q7XNTvxp3BqQqe0hml4lSjWO5+dznetqslOPrhX3xgkxh+zL5y0mCzG/8XRfqjLr96aX/Xa4vFAMzglzJU96Pf2c5diAnd1dy3IFz9/b4Z7912c7b2lnqsbIDKht28/mO/XTqs4zyYZE3ShaoMVTpR+KKKdM4JqmJAlXwZ9sGpzDDj+Xrk+RB1OdZ6++m7ZFhUNUB19f3zxOLv/SZs/XzzPvO3mX6ZeIIoFHgqK6Cy0acPmbY4Fhef8Bim2kCIfM5tyOi05zDebxqy3y7S2b8OcYOuwW5zNXCxfAiYD9UA1XcxzJez+qkBaTjkmoidPrHj+n/67a+m59NOLHt6fvIpz4Gb+2rDVD+wVsojsTHKdteepsnyldNKZUgWIwFqhR+aAZYeNQAJCz+G4sW//fdP8z2hqttvknMC6q0v/EiOvsImfyyLf36/hbfPMKGj2HPKNinlbdDALX2HY2KqW1piEjbcUQDfxMkyfaresutqjUA9g6n5Ri4mtcFS3R2hWJyVjSr9pJtytO0Pt/6uf/gl8eqHLvG9SMVUrznE/+eB56bANK0/V10/uluAQ6a0FHteWYf8ulE3df6758z2aYvwxvqEdhoyLpVvsFopc0uyYof/jYjxG3HMDLF1VQdiVReBJ1C+GuOPpScc+t63oUvuhrYRG5TQt8rY6lITV0C9d+4vxPJfPCycLb2h1N+4Ez9t2tI7XiiV1kLXV2TIrxvx3DanPovZvv1y7W6jTBy+ybLvfhOFeg7/ty9y+E8+Lb/1b9iQ5V6wqT8fokC/ns217Y+G/Fp2nSTGnv5BLD2FT5+f8jFMW5asEev/+pLUVy51lSsi5RClP926P1dRf/++74Lb9jckraTTKgqoz0w8rqWhYTDW+zvN0jLVM1WurSozCkX9QAYbNlnWh8NfT1Dd5tITivZVbcYuV/Srblm0KpL0R11+9dr+gRNGirb9OVk6Uq6MGoQl0zIKAl2Pny1hqB9HYfT7M640Iv2zu69v0/ADFt/XVRJSGl5cUUBlm/4++dQTgZFztDC0JVNr5Va8+Xf99TeKBlVOUi1ADN8qd1/VWuOPpUcZCyb6377/rmIo1tgv9IxcLP9M+Sdm7bfwtrsM8bDk0yoOqApUT34Yw4AjsxqmOIG+1ZyGaYTqW3edLHa65SxfQynyx5vWYVj1Dia8EviwW63zy9KnJK/1nx9+nPC1j4mx2MCZiUHydAnpesuvdH5l8gMvq0f2W3jHB9RZlflbkVn+TFJmLNzuKIzm13I4oZWDo/taK29+baF45ehLfO9S5eXXsKOmianzrhEMeak1/lh6cut/24xdxB5/viwJptSJydjhib5OGhu12F8C1oe1xBlvX6rE76pYqCTs2W1m7RpzGl5BAxqIpbkSGxj1+jhm8beFT5W+1VKStlb1VyN5r1rgT9TlG2T7uefDRI9VmqkvlP3LB54n45at/HPqf58T69tz/wVzXsvkX7nLFQmbykbErR3/Xn360KmIZnc+qMb3ijnaN5RUluTEVHTrna29Yt3fXsKwvUu0H7JnNnYYHWvZcZwYc+JhyfAqCaY1wJ9al78pfe2wPqfcebYYemhuHeF+EIOn7oDQp3nqZWrlD2BgT/DgQzx+wf4L7njQqFMFfJJqScA39XO7v08+Bd9EcGC6eZvCd35tljmE3+H7pxc9WaV5u+HZ1+WkFSMC3IGjrrJl5UiKDD+43+g2l5wgqBumiTGfCy7Tu0nVbn9R/PBF3zyshjrIlI9Bn1cVH6qXiMZRAw4DeHbIODZWuM6hWi2v+8uLyq8qgdDLCX+/hyC8ZU/42Bjz2oBPXtcqv2pZHzi856TT++dd6wtMqSljP/8BdU2N9xef8u9QeOKvLwV5ttcMDPK+vu71j21OmtrnxP8B5jVI810PY2o83+bS49Ex1AyuL4ZlnEy/2jLM/nIGmGuppRLqmQubh5IfnLmf+PWP+/6MiFf0lPt/P3M14kMXwCZBV67x/lKAvr6GWGKffRbcaf6VQi8zA/pdNR+qt/0/7/jX8tPa3r8sFo99FJYWIqqyr5SqteMdT74qP4sy9LD3CfrGik28lhbriGNniN4OBGBjFyxarLXGr1qgh1s37jLnHCmrUmROXeH1m15+x8o7FnOwlf0XZyy644/F9qGgrguFhaqJeXbSybfg92kss2He2dNaLnNlyg7XnS64pV8QiatZFl/3e7GKn+x1Uy3zjySGnb7hCHujVcoXXxCJvvN3zrlFdGL1ElPY6S9z+27df9EdpwfB11LvQTpDlZ6dePJLMFCnaje0zNFKOZpBS9OO63KN1I/jMPDsT5Q8YaUFqoF19f1P1wX/dKftl1dRP0b+z0GQ6ccD2YREy3XJ9b8Xi/A/SWcV6at6/3TEy/svvsN8Nk8zsUw5ZRKq9ML0M5p6Vm5ZhkaZ79QQKgpKa0zQ1ipbw3XY9K/Sz+qNYS2tpfbqXBzgZBNfjqOOOyhQIM20SnM9v46Or2kaPXDc3i/+rCcsNIcOUMmYJ8efOmlAQ+Jt/BygfYGaYfVSDtpa1fxb9eunxPLbHk4OFeuFn5r+ctLLlyEXb4w7/SjBLRmDTIthkfJ/OdvP9kbo/lu39sV3PGTpbdzvMjQplIBK7jw/8ZSjEzHnjxhSxNV41dNUPZup2VijZVo6O8K3WswnVjRrcuX0vdFqXYsFB30dnWqWWJ9co/zU5AWpT5TRcEw0DTtquhjuI4402ZYCPzZgZ6cFs38pOuU+ue7JdS4fTkHFRfwj+y6+/S8F2Ffxag9KVfzZBR/47KRTvgje3YjZXfCwfmet2w/YVS4GoAUUdKI7gEtaV973FLZleyNpodQzv02iCdr2myJGH3ewjAUN2hqljKX/GxbpSowoTNpTR/JCGFD8y/svuv2moPtCEPcLNaCSwGcnnXQlsPRbasd3D6jCJa8+u+GGWNVBmRsBTwpw0ipTgbYsWi0t1lUA183/QegV/iU7cx3wtxC9A7CiafSnDxajMNHE3e7LkRhHvOyWv+L/3+D77rT81yGUSf0TV+2/6M4Ly8H7IO4ZekAlkc9MPOlOZLNydm7NdJ0nmZ8jnjXC9Q1tLRJU9ZZuQShBtnsQXDncXIuVXevwKeI0CyjC/JN0+Gj/sA9MFUMwQmDYU7lAVPOfYW7zL/0lJg670l9mWq917qP9aXKL+PXg05wDFt95kuZXGPNIACoZB1B9FNnhYWRiNdrE4T+tVc4kVyKt/euLgvsHEGR17GMlnlvpZ5Cv9IUyXnQ4/KKVSOTpfPpJ3ZjSSjwzgs94DGB6RNjbHRlAJSMBqq8g2yPsTK1k+yoNrKSNftcNz74mAZYgQECIauJiikG7Txb83McQ7IxfbivUyyfybdF1v5N89B63v/tx4FWAae4tuPqdXr0DkQJUR8yOPzPx3flo9KTqsSycT64GsHo5QWDlmvJOrOCRv5ETeMOUvODZuvs2Ekir0T5+1oaTgLT4bcrPAUT5LDpg8fbbxsTsRP4zw1EbKUAly24WZzTtObH7PUxUTYBLKN23p31EMleRQFl9SDVcz4mTyWd/Ugw/ehpWXAUbC1mMynbAkt0Kf2w3lsNyUcGmVxfIiZYOgEmQ8qNveRBAkvJmVAQTv8XEiSbmYUgE0oXX/VZsxQfu0MxA6e+v5zVx/yWvLG7e7kwRnsD9QnoUOUAlQUlQFQBVlFPKlKFEqKvX+qb2Qfg88FFiPCIDwgCslFuuxAkwhgnJZYw4Sc62y4kXV344oqI8UuVGbFnIoXrYUx++Bbb053+VH1vsBp1pLxE0vl71U04w56c/cmBKXYwkoLLhf9rxQwOHdo96F2A6Pjn7Ly1PT6iPLcuXzehPz0S4z0GBbb5C/tuUnwN0fcih/a/myi0VUy99q58G/XXp+uZV23/47T9vyc/l8NVGFlDJSoLqkK5R7yE4alyKtfKdj2Jmrs/IPK7LtV/PCZfxpx8twTXsVquWRpRyWqMrfw3/KILx1Yx9yuZO0aH1LTPXZ2Qe1+X6qMfrZtmGllXbRRFMKSFKK9JJgurmUfOxlmqsO54CPa4SqvGVLWfhB32sDAsaERJfa5SVcK270oy5dI5m4TcdGVY/0S/pPM7BHyyBWr6hedW2UQVT6nDkAZVEEFTbu0a+iZ/hd6qxwSFKXDY5/GiuQy/PWvQQkRpoUxjytAaLHrjZTNiiGQIltHI3W9jRsnrnKIMpWVUTgKplPm/Cif/Ghv97asPU5sog8MMHbvIxAgDbjsB2hmLZpDjASTNGJhBENyJyoQdfRvDD19SsfspQtddr/XReOXDJXe+rBV2rKUClQOZNmPUoBhWHk7CkEuO3LGfmehSWeVyX67y+dbdtpEuASy/5ieN6SwRQrhBjzhhbz2BV6VOd60dA/euxA5fMCf0KKFPdrzlAJeHPTJz1y0TCOcFgNlHOgtvzcux5ABPKOzs99IDd5JJMxnlyZRG3rquVxBhZAmcngJMB95tenW9n5zPkH3Q/icdjdx+weM7nakWHSEdNAioJg6V6Ld6gZysaPaYEK5MTBLJgy0Xygy4BBtPTPTBoj23E4IiArFxggLCmDc+8JjZhhVfnf+YjDnaNVAulEVZflD+jbP2DX+K8DpbpufoJtZLXLKBSQPMmnHS2cBLXcAPF1Phfdxabl8MJ2MgVS3tsC//rCNE8aZRcH8/XdqXBlj5Prs7asmgV/uM3c4Bm96KVLnha+ZdD/oX6mfw+aSx+3oFL7ryuVkDUS0dNAyoJnTtu1lHxmPMgfg5QhJNkdKZksuVK8mMgQLbZnexiXCxBVyeWB05MlfVxnW9ZrMBRl3XOWfZOLGllYvwn9xFNJSvfSso3NVuhJZDG/60JJ3bszGVz/qpray0ntTWf5o07YZtELP4yli8OS/oEAarJTavxK7ncEX4C6Suy9ZY/Xr3Q+mD1o9j+sS7uJKYeuOxu9earUdSpC0Cl7Lj+f/cJm19Cv9iD9qmXcFu2/LD6kEK4oPsDOtur/1nSOi1Km5ykuOHvl1eP/F0Z0bPnjp11bzzufCYZ8gHtsfGAGBRaPlg9ABoErQeJROxXM5fP+WxE4cJ3s+sOUMmhp8eeeK4TF1fDWo1LU1W/km2ecoFRMyw/LD+K14NELCEuOGj5Xdf6RqUIXxCPcNuLbjqFHE84+8Ey3aheybiV9I2pXIEsfam2bPlD093qh8/+sZH9q97AFFoiVYV5XSbuAdDWOXweiMfHg9hrdNKmmS0rDlh+WP0w7R/OixsHrT0w6mvydc/3m3u55Pfamjn/qXGfuwLEfAudJi5n+2GaymgAgKwtu1EPtOAtP6w+gAPJFVMefUCH4SdKrjp42S8vrhlgKIIQC6gu054aM2uGE088AtAYrJyH2oVIFtFCs2Vlp1p+WH3o1x82iUT8yINXzHlOdpQ6/lOXPtRs8qYybBq0diTetC+yXoMHLVUO99LLtj6dH5Y/6fyoH/1gf8EQf6QFU4Uq1kJVfEj7O3fM574qGsT3gaJNsgK9RYZW6bNU79El2XtsvQIRzS+8g1LJ8q/29CcueiDgc2Yu/eWPUoK2v7xqb7nh4cC8MbNG98UTcwGqUyRYahDV4GDLap7G8kOBZX3pwxvxRHzmgSvmrPR0GfsTHLCAWkAN5o498WJMTF0KUG1wx/0eU8zloKczSY6yrBM5bOuT4Gv54+pDBPUD3q8+zDFcNnP5XZzEtSkLB6wPNQtTvIeoPL0xZwf4ihYSDKRPVb6GgJLeMn2t3jJR1Fu29en8sPxJ50f49WMh+4EFUy869P8toaH/YXskGwfmjjnhSoDk+YDKRoYQ6aQ3VrFlxQHLDxViVhv64PQmHPG9Q1fcfaGmx+a5OZBChdzn2BoPB/4y8bjhLb1NfwXjuBggpsHD5p44VbxsLD+izQ93LPZiV2PPUUcvvm+tpwvYn3k4YAE1D3PyVT055sRjRSwxB+cMyXeerbMciCAHNggnPuuQFXdxH2GbfHDAAqoPZmU79YnRJ9wWi8dOgnM1rleQSG8AXaiYyVI+V7AZPrJUGXey9R5+WP6ERD8S+BbbnYeuvPvUbLpujxXmgAXUwjwqeMaTY2ZtJ2J9D+HE3eTJAEuPi1WCpy172Gj5E0b9+K9wGj56yIo573kkZX/65IAFVJ8My3f6Y+NOOAq77NwOS3SsnLQld13w0OXM3NaDR+BTJl902fKn3PxxlvfFY6ccvuzumv0sSb4+G3SdBdSgOYr7PTH2+C/HnNjV+Il9AWyyHAglBzY5MeeCQ5ffc2MoWxfRRllALaPgAKw/hIX1RYRYNclZb9enypArW075lC0/KqoPXDJ606Er7jmrjKpft7e2gFpm0T8z8biWrb0Nd8Wc+LEY/Teqx+mQGv1wW1agavlRRv3odWLiwQGNPScesPi+Ls1pmwfLAQuowfIz590IrD09Tbc5IvGpmIg3yv1WtcXqzWG7SnCBE1FHBaTltt7yhyMcY/1I9MZi8fubmnpOtUCas3sGVmEBNTBWmt2IXwlo3Tj0Fpz9GfxXu1mZXWrPshzwwwEO7X+1uW396fW6e74fZgV1rgXUoDjp8z78rPUuYzb9tM9xZsVjYgAMTwauupYHftuy5UcR+pBwnK0Nsdic11cM/lI9fLbZZ7cr++kWUMvO4vwPcMTs+NxRb17mxJ2vAESH8WwXS9UPfTklxQo3Q19LluVBT9leL7G43vizLpaI/WTmqp0vjYnZ/ByJTVXggAXUKjA91yOfHPPZY/uc2DWwWHeCjwyuU1qsChz659rHauv5cqlT/jjYuOSthphz3iEr7rXLRHN1rAoet4BaQWabPurJMcdtl3Aab8b5h0FAjdLiRMGb63tRgN7jumzrFQc0PzLziPOnF+1/PB7rPfOQFfe9p2mxefU5QD2zKaQcoJ91yuiObwsRPxlxq2OS8Zo6jtXmeJnokLO6yFcIkbjjjZXtF1n/aDg7rQXUcMqlX6seG3niFNHQdx32CzwcNmkzBvqec7SNqg/Zcg3xp9uJJR4TfU1nH776rje0hG0eTg54e2U4W2hb1Y8Dj48+/kQ4Db8FH+sU+FrjjA7I4kTM5Vy1x0POL8gVk/XOG5DrVYetvOeufgpgD4SWAxZQQyuawg3765hZgwaKngudhDgeGDEZEzMAV1ynDVSbK0M1AnyA/ACiYmEsLu7ZIpquPGrFnM7CGmDPCBsHLKCGTSJFtocLBlo2tp+XSIiTECWwPTonwhFTca0oe1ZeaYPW1qsVR1XjRx9Q9N14XNzZ1dZxjQ3AL1L5Q3SZBdQQCSOopjC29fGRr/8fhHsaLNadgaVNHOVKy9XNvIKXBpytrxR/evByexNiuPWw1bv8wMaMBqX14biPt1+Fo0W2FYFz4IlRnz0Ykd7/C1Cdic48GnlcWmYySiCXS1XPmtt6voyUhe/NjfmTwPUrcf1cfGL4x4euuvepwAVsbxgaDlhADY0oKtMQhmLtOHLDKXALzELI0fsRijWY3oDKPL32n6Kw19kEvv4TQfdz3l495HYb4lT7ctcU2o6kOVGnOSe2Bjg9sxwn8TEYrnvBch0FZyu2GXQtMG2a2TLeOsrnLKMqUvzoRXkV4kP/hV2dHtgaa5pjJ5TqtDOBbAuo9Sv7nJQ/NvK46SIWPxknHAIV2RYgOxgTXBixSm8rDmfkHtBVKlWb9bDoEwDVTaB/PpjwJIp3HL76vhfx2ybLAckBC6hWEYw48PCY4/aMJxo+BmfiAQDXnQGyY5G3IkemowVqJgdZzmbQtRz5m7BAn0nE+x74wIr7XjFilj2pbjlgAbVuRR8M4U+MPn7/RF/foSIeo7tgR4DQOBiw7dgdvhk5QrfwHNdgzTRkq1lG+/rQrm60rwMviWUAzbfxCeV/NTY0PHHoynueDYY79i71xgELqPUm8QrSq8K3/jMVYLUX4mN3gNdgMmzYsXA0jQSYtgF8aeE2A9QGoNyIMqMP4ijHUEZRWrzM3Fl2bQGjCJBGBXKayDIoHrPpsV4Ut+JwN47CwhQbAZqrcStYmomF8Xj8HeH0/euw1bu/bMOVKqgIdfSo/wd49oYjnfVafgAAAABJRU5ErkJggg==;fontFamily=Lucida Console;" parent="1" vertex="1">
                    <mxGeometry x="1038.81" y="1080" width="31.19" height="30" as="geometry"/>
                </mxCell>
                <mxCell id="41" value="&lt;font color=&quot;#333333&quot;&gt;&amp;nbsp;AWS SNS&lt;/font&gt;" style="text;html=1;align=center;verticalAlign=middle;resizable=0;points=[];autosize=1;fontFamily=Lucida Console;" parent="1" vertex="1">
                    <mxGeometry x="1068.28" y="1085" width="70" height="20" as="geometry"/>
                </mxCell>
                <mxCell id="43" value="" style="outlineConnect=0;dashed=0;verticalLabelPosition=bottom;verticalAlign=top;align=center;html=1;shape=mxgraph.aws3.lambda_function;fillColor=#F58534;gradientColor=none;strokeColor=#f0f0f0;strokeWidth=1;" parent="1" vertex="1">
                    <mxGeometry x="1440.74" y="150" width="30" height="30" as="geometry"/>
                </mxCell>
                <mxCell id="44" value="" style="outlineConnect=0;fontColor=#232F3E;gradientColor=none;fillColor=#277116;strokeColor=none;dashed=0;verticalLabelPosition=bottom;verticalAlign=top;align=center;html=1;fontSize=12;fontStyle=0;aspect=fixed;pointerEvents=1;shape=mxgraph.aws4.bucket;sketch=0;fontFamily=Lucida Console;" vertex="1" parent="1">
                    <mxGeometry x="1039.34" y="1119.56" width="30.66" height="31.88" as="geometry"/>
                </mxCell>
                <mxCell id="45" value="&lt;font color=&quot;#333333&quot;&gt;&amp;nbsp;AWS S3 bucket&lt;/font&gt;" style="text;html=1;align=center;verticalAlign=middle;resizable=0;points=[];autosize=1;fontFamily=Lucida Console;" vertex="1" parent="1">
                    <mxGeometry x="1065" y="1125.5" width="120" height="20" as="geometry"/>
                </mxCell>
                <mxCell id="47" value="&lt;div style=&quot;text-align: left ; font-size: 10px&quot;&gt;&lt;font face=&quot;Lucida Console&quot; color=&quot;#333333&quot;&gt;{&quot;receiversDataBucket&quot;: &quot;receivers-data&quot;}&lt;/font&gt;&lt;/div&gt;&lt;div style=&quot;text-align: left ; font-size: 10px&quot;&gt;&lt;font data-font-src=&quot;https://fonts.googleapis.com/css?family=Ubuntu+Mono&quot; face=&quot;Lucida Console&quot; color=&quot;#333333&quot;&gt;&amp;nbsp;&amp;nbsp;&lt;/font&gt;&lt;/div&gt;" style="text;html=1;align=center;verticalAlign=middle;resizable=0;points=[];autosize=1;" vertex="1" parent="1">
                    <mxGeometry x="1020" y="100" width="260" height="30" as="geometry"/>
                </mxCell>
                <mxCell id="49" value="&lt;font data-font-src=&quot;https://fonts.googleapis.com/css?family=Roboto+Mono&quot; face=&quot;Lucida Console&quot; color=&quot;#333333&quot;&gt;&lt;span style=&quot;font-size: 10px&quot;&gt;{&quot;notificationMessage&quot;: &quot;Anomalies detected for the following&amp;nbsp;&lt;/span&gt;&lt;span style=&quot;font-size: 10px&quot;&gt;receivers:&lt;br&gt;(empty if none found) [&quot;receiver#00000001&quot;]&quot;&lt;/span&gt;&lt;span style=&quot;font-size: 10px&quot;&gt;}&lt;/span&gt;&lt;/font&gt;" style="text;html=1;align=center;verticalAlign=middle;resizable=0;points=[];autosize=1;" vertex="1" parent="1">
                    <mxGeometry x="840" y="655" width="450" height="30" as="geometry"/>
                </mxCell>
                <mxCell id="17" value="" style="rounded=1;whiteSpace=wrap;html=1;dashed=1;strokeColor=#333333;fillColor=#FFFFFF;" parent="1" vertex="1">
                    <mxGeometry x="1205" y="330" width="210" height="120" as="geometry"/>
                </mxCell>
                <mxCell id="2" value="&lt;span style=&quot;font-size: 14px&quot;&gt;&lt;font face=&quot;Lucida Console&quot; color=&quot;#333333&quot;&gt;Inspect Receiver&lt;/font&gt;&lt;/span&gt;" style="rounded=1;whiteSpace=wrap;html=1;strokeWidth=1;fillColor=none;strokeColor=#333333;" parent="1" vertex="1">
                    <mxGeometry x="1225.74" y="367.5" width="170.68" height="40" as="geometry"/>
                </mxCell>
                <mxCell id="3" value="" style="shape=image;verticalLabelPosition=bottom;labelBackgroundColor=#ffffff;verticalAlign=top;aspect=fixed;imageAspect=0;image=data:image/png,iVBORw0KGgoAAAANSUhEUgAAAN8AAADjCAYAAAAFQcH6AAAABGdBTUEAALGPC/xhBQAAACBjSFJNAAB6JgAAgIQAAPoAAACA6AAAdTAAAOpgAAA6mAAAF3CculE8AAAAomVYSWZNTQAqAAAACAAFARIAAwAAAAEAAQAAARoABQAAAAEAAABKARsABQAAAAEAAABSASgAAwAAAAEAAgAAh2kABAAAAAEAAABaAAAAAAAAAJAAAAABAAAAkAAAAAEABJKGAAcAAAASAAAAkKABAAMAAAABAAEAAKACAAQAAAABAAAA36ADAAQAAAABAAAA4wAAAABBU0NJSQAAAFNjcmVlbnNob3RfUvMzAAAACXBIWXMAABYlAAAWJQFJUiTwAAACoWlUWHRYTUw6Y29tLmFkb2JlLnhtcAAAAAAAPHg6eG1wbWV0YSB4bWxuczp4PSJhZG9iZTpuczptZXRhLyIgeDp4bXB0az0iWE1QIENvcmUgNS40LjAiPgogICA8cmRmOlJERiB4bWxuczpyZGY9Imh0dHA6Ly93d3cudzMub3JnLzE5OTkvMDIvMjItcmRmLXN5bnRheC1ucyMiPgogICAgICA8cmRmOkRlc2NyaXB0aW9uIHJkZjphYm91dD0iIgogICAgICAgICAgICB4bWxuczpleGlmPSJodHRwOi8vbnMuYWRvYmUuY29tL2V4aWYvMS4wLyIKICAgICAgICAgICAgeG1sbnM6dGlmZj0iaHR0cDovL25zLmFkb2JlLmNvbS90aWZmLzEuMC8iPgogICAgICAgICA8ZXhpZjpQaXhlbFlEaW1lbnNpb24+MjM4PC9leGlmOlBpeGVsWURpbWVuc2lvbj4KICAgICAgICAgPGV4aWY6VXNlckNvbW1lbnQ+U2NyZWVuc2hvdDwvZXhpZjpVc2VyQ29tbWVudD4KICAgICAgICAgPGV4aWY6Q29sb3JTcGFjZT4xPC9leGlmOkNvbG9yU3BhY2U+CiAgICAgICAgIDxleGlmOlBpeGVsWERpbWVuc2lvbj4yNDA8L2V4aWY6UGl4ZWxYRGltZW5zaW9uPgogICAgICAgICA8dGlmZjpPcmllbnRhdGlvbj4xPC90aWZmOk9yaWVudGF0aW9uPgogICAgICAgICA8dGlmZjpSZXNvbHV0aW9uVW5pdD4yPC90aWZmOlJlc29sdXRpb25Vbml0PgogICAgICA8L3JkZjpEZXNjcmlwdGlvbj4KICAgPC9yZGY6UkRGPgo8L3g6eG1wbWV0YT4K+DuxdAAAOC5JREFUeAHtfQeA3MTV/5N2r/p8xb2AsY1tMMQYcAFs3CgOIZAPUj5CS+gk4XMIBNPD34EUSEggISShucaUEEihBgJuGMf0jnHBFfdydz5f213p/96MZle7q7btVtJqwDd686TRvN97P81oNNJKEKSiI7D/lDtGxlRlsqzAMaqkDpUBeioA9RJADebVKJerALIEkoR6/AP4P6CaJ9xQVQlIpapsExQ8rhOPa8X9WjBvRHkP6j9XZHg3JMlLu//nJ5+K44O8OAjEHVic05fOWdVZs+TmJXAaUuYMtHosAj8YOVSLnCFiSeQIzBmjuihHokqdeP5mPN8GPPVb2IBna6fAi9KsWcjVIBUagYB8BUK46eTbx0mKeil2RlMwuAdhr1WF9PIA3qz3bMOGbsKecokqS4/UvXLbmwWCqaSr9UAweMM/TdNuPy4GsWtDsnwCKGp/7MLCCvYtMvZpqbno4lLLhexCfVSW5W0xRVkRgtBv6xbdttIbXnF3KwPyZemfNV+ZUdG3vedVMVDPD0nSEcizSqpKQeYQ4RiBfCqjve1o7ydo5cIdlXvuH/7CfR1ZwljShwXky8D9b425omx47cAbFVAuCcnSoJiiykY9m+jBSiFHHBTEYZMM8uw1zV/cOfbtByMZQFrSuwbkc+D+fdNuuwb7sytxcmI47o6Th0EyQUDBSZw1ONB+oGHR7feY7BMUawgE5DMJhf2T7xgZlWO/A0mZinOQZTQPqeJYi01LsmMC2QaPCA69F4eV6NXdl/4seKxhEGcB+VJAaZx220zs5a7G4gE0Oymm/cVugcwfhzjHA+dMAbZib/i7+kW3/1ocF+TJOJYsHjR50ru95/34oPt8vIer5Fd00bMFeb7wwHvgdnzAv3BX5Z6rgkmaEiff/umz+kQ6YnNAlqfjmDLMxpQ4tAxy7KsKi0MU1+C8VFYRurj7S7N2lupVvySHnUS6aER9ApdiTUamyUaBJuHNHV3xzYgY6POAD6i4kkZaWlYmnVOKJCwp8qkT7+reWNb6KJLqdJw/CWYt3dLlqKDgxez5+kj1edLyG/a7pVmFbkdJkI/WVe5boi7Arux/EdCwmDQJcux3EBC34IBNieJI468NU6QLS2F9qe/Jt2/KbTMUCe5Cx1aZBRrqWAr0xkQsAj5tOM18Q8OS2+8T5/Zj7lvyNU35ybgowFN4JT2Y7ulS79ECOfmezaV4bMZe+Ru9ltzhy4XdviMfLQEb0r3fc3gvfwqfLcFrJltrSYMrLXlMDg2sh7IRAyA0oAeE+tWD3L8BlJY2ULfug9j2Roht2wcdb34urPO8vcn+oiun/J/1+7d/1W9L13xFvj1TbzsHb2Jmq4paLa7kXs2rJh4G4WMH479DQR7SL0Ess63Wdoi+vgqiH2+G9mWfgrLnAJut9ar9ae2WpVa8Ob2k5+LbnzCDwGvlviDf9um/7hbuaH4ZjTnBLZMH2bajfMwQqDprPIQmHZl9LO1ohI5/vQGtT/4XlE6cw8Casm2PC49bEa2oPbXfSzMPZA+QO470PPn2TrntXHyNZw4aUhFfiYHYsoAT93oekOXKMNRcfQaUfeXYvEWG8vl26PzbCjjw/Luew8PGfx0ySBf3WHL7Y3kDqwgVeZp8u6f85F94TcfPMiSWOyeu8QJNce12rxzu3R1qbvkmhI4eKhqZ1zzyj5XQfO9zWp3ux4NfOgUEpu0lxbM4GfM1safXck+Sb/fkW0fiPcFS7Ol6Ee9Ej0ezml6TK0YdBDV/uLLgcaO8uQb2XTffc/jY+RPjYDf6f3IvD7454blVHnun3DoTx1AfcuJhzNLQkmVEPE3W8rjsUn3FuKFdQjw0H+Rxw6Hulq9zvDyCjxP/sTgA+HAXxYXHkqfIhwA/g4sBf4V8C/ErIqKNgcQGJqwH1GRewDpCt+orxh8K3e76bsbhou5qAuWTzaBuwvXIrZl9vSE8/RiouewkDRcaMXgXvxT/h/ADVb+i+MgY0CIeQNdA16f1U2fV1yjR97Ghg1zfWAcNDPWthfp7LgFpYE8He+Oaq8UfQOdb66D1mXfS9i8b2hsqJx0BZfhPHo6vIDpIHfMXwf5HXnWwpyd32dQih0cPWTyr0e2tdz35dkz6yUQZlJfxSkef3kM8qavDnM2xeFOu/f6pUP7tybaxEV2xCtpxtrL9zXWO7O129jioPPt4kA7pY1m32tQKTVc9ANHNe3yBp0E8tCkgn9p32R3LLYEostLV5Ns9+Sffwe+Bzca7ulCceIKAHs3LhvWG2vu/B1JluaXr2+58Eg688AHuo11gHObhPjVQd/fFtgTs/PvrOAP6Qsb1Z9qeYu2Pg+oY3ule0mvpHTjL5M7k2ns+HL/frqjKXCIezWZSj+eHvJp6Jjvi3fU0I1429kZ3tsDuC38PygfrLSOu7GvHQ/nh/X2Da2p8UNxQ/FAcWQJRRKUrybdr8q0LcYnYTygyKABphMkDkedelaWwDOEJIy3d3T5/ET4Ufydnexv/3+NAD9nNkhSSoeL4w9h5vIon2WYTHxLFEcWTGQ7FLHcd+RAoen53HrulQ2R4YNAGh0nIXtRXHDMYpB7dTf2trNkKLY+8ggHF7aYdhb2Z2q/sPcCWmJmeDBXhY4dmXb+38FfP24lxZYVFMXSuIt/OSbe8hcSbRECwkaYuZ7c8OtmL+vIxw8g009TxHP5WCY2wMaXm2djf8vc3QFm7lVdo8Dc0eghI1RVcY3Je0Y5szk8Vu+d4dRLFlwEMRStyDfl2Trr1AyTeGOYwzdM0pPCTXHbUIeaObjwALc+8nV978RO2kRWfmZ8TNRWjByHaGs4+w9sgfsZQnFkC0oXKopOPPvGAV6RV+BmPUfHXSGhyBf/zmww17OccDN3bufRDgAj+8gMSAB8Y583+ln++YXg+USj3a8jr+fLd/vzXp4xi8YZxJzAoVl70Bux6JbIKAT6MBRwFHt5MxAH3mSzV4KNKk6Q04utqBbBX2bkf1P2tJmfF+z58OdeveFvgeRjFnSkoXaQoKvl2Trr5bQSIfv+ABQBegnnuV9mi52MjvwLZr+7ZbxpOEpKPEgWq7/FPxnc4xZ8pMF2gKBr5dky65RX8gvGxcRt1wLAyH8pQFo6bm7ZRQHvVts6004kCqVobChfw/OxcLqyf4o/iUGDR1XlRyLfjxJufwkvtSfzeRjOZXXjpXse/MjRZvHxdQPvlXrUC1bQ8tnkXLyvg+dkJ3Fo/xiGLxzRkCl/Q5eTbeeLN9+IQB99t4UMdvCAmhpo0yaKX6R5IL3td32x+74VmonUp9ubJfql3HVVvmGK4vpMNOVFbqPN7oP6vU1waAlTAwi4l3/aJt16Kn3z4IT3ZZdPb8VwQMLVcyP7Q04Jms1Q+hb7ZIuxNzbO3v/s5E8xOycojm3bo7vVSzyvk7M/P/ez+43EI+kOKT0uw8qzsMvLtmHDTCQCxB7D96FEaXLKbAC2njIqpHJNP9Z3vr+f2GfyVB/eFqsmHc00e7S87js1nGZwRi6Ix6Hh3E+KN2yWAv018YUDGHuBxagxXvku7hHw7p87qhz/SRi+QhbijcUtPND62ZENMP+sjn2629F/1meM0IuQHn6qpR0B43AjTc0Y/2AAqPltkwKM/yA1+xt/OPrQ+RHFK8WoKWh4VXUK+WKT9A/RsZdIQBJFg/RzlREQma3lcRkt9pO/47AtL14WPPxy6TT9Kh0du9lefMdbyfJEPN/oK3zzFVyWLV0vk8qMsOPm2TbxpEXq4N+/otBEnMorLRDwyRMipub/0MXzdp+MfKyw9V3Pbt6F8WN+c8am9/BQgMpsmHHK2vvJeSeGfHmem8dWbx60penlRFJR8W0+48SZs5VQ0kTowfC+WMQ03SldueXIFqPipd6vUY87VUHZwj6zxarjpLKj6zklWp4DIog8gslZ7zFDC/uAgGcbjVC1+LXHMRYlviBcmbZtw4zi8h3+U+ZUxD89DuUI5bfAhJpdRpFQCemVfK4S7lUMZvlFgmhCf6m9OAKl5P3R+jENVwoWSDT5lg3tCw/VnQfmpibUL/MD0vy0Pv4Sfkdit+UPT29Rvd36/6RGOadcdfOILv9n8mvmrIenQOi4RbnV8gJMd6TfOa5q74fcUoSa+VhPPREPMQEYg8KXa3n+6AkIjB9nCGVn2EbQ8vhw63t9gih99kKl62peg+rwplu8LipO1PvAiNC9YYlof3YPT9THwF4vXlpball6F+A15i/VOwlWZ590bu72Cv4lXg7+xhv0bOpLlaEggczw6Y9AybzHU3YmfqLFJZZO+BA34T23vhNiqLRDDTwfS5wOlblUg966F0KDeIB/Uy6aWhLrzGfx69TwkHpIr8Iej+KyheEYET0ygmJ8tdEF+0/YJN12ugPJgvIdDL6vo5UCmySS6ECXwqMNJkarvnpxfB1jUFsXnjHtmPAxKLBb4A7v2VH9YyTLIV/R7/ZcPWcCbsSqv5Ns69ce9oDOE42O5LNES7O7iNy1UGsh6POqv6CIC4su6e2Y8AJ2f48d2A39QIGrJaTyqESiPDhiw+Dd4o5yflNfZTqU9/DoRDz9aw1rHc7zCBLIpHo0P/gda5xZ2Yb2ydQ803f0UdKzlxAv8kU18SmU8vvNDPKolbz3f1uNvuBlk+Lm4jqg4qykhtQOZg2yHR+WEw6D28lMhNOKg/HkXa+r450pomvcKRLc1B/7IQzwiY24ZsPyuX+TDSXkh3/qjf1RfUV2xEwOsjBGOEY/3eAkZiSgIGeiRCOn4SN0qoe78SVB5xjiQepq/BuTE8ZG318KBp16HtiWfpOAu/JB+/sA/WodhHZ+RjtaOPkPeuzfnz9HnhXxbjr/hDawIFyZqiQazaIBpCvSW+IT61UL3/zkOKqcfDfIAZ7/nILCOfroJWvFXaVv+YfGhrgB/S/xxBGepV2V486DX7xovMM82z5l8WyZc/01JgSe1wRXe8mGV7B6PqsZBZyDnhEfVccPYM7yyKUeBXN/N0M8KPnpow16udcmHENm0N6fzBf5yFr84cf2tg1b+6m+GDnFYSBzPKSHx5sSJR7eQeuIFcs54tK1cC3vu/CcoG/C9O5OkbNmN93WLIbIhhXgB/jnjbxbP+KQC4z63lBP5vhh/PT73kGroOR4RkJ6TGOaB3hgXgZcjfOwcHeDfxfFXw+Pfzi/m+qzJR5Ms+HbeRfzBJA4wKYCwNgYA5TqZNvUy2y/Qx/Fygo+5C7kmwLcI8Yfxz3hg5xwTfdbkK68q/yfOjoU54bTaaZKFahSTLZrMLvC0S6DPDR/C0CoF+OaGb4b4UfwTD6xcYqXLinxbxt8wGk88iVVMDaYU5IXFgddu/jfAv7D4m+BLPCA+mDvGXJMV+VQp9jfs4XC0RPd4OKRks5paHsiFwYMhbfyHeQE9GfijKPGIy3WRD1mkjMm3+YSZUySQh8WXKKHL2fc3xRKyQC4MHoirWWIPdQL8GTzsLRqa/OtSPORhxAsz/5iVZ0w+SZFms0kWNJDiIf4bC4FceDxMvEi0JD8E/ihiPCIvTNxjWkwXTcdpy3HXT8Mry6vsAO5x5nDyO7sw62vrYn3Nl0dD5cSREOpj/oFYx4YWeEc9TE5PRXCWHX2o4e6R99YZlrupMFubo59shqYnl0N0axMxK5G6OL6cxDe+NncSPnhflGik9ZbeHOs9Ubtx/I/Xy5I8mGYv+ZvO4j294soN35sO3S46xbb9wQ7eRWD72T+HyNZG7T3E4sabWfzjb8BvOOSN3wxxirLjYeem8TMn4QuFSDy6x8NEBMT/ii1XTRgREM+ptz28X49rznJFvFnFO/GDeOIUZsfkw6nN++M3s6wPJv5pky1FlMsG4Fe+guR7BMonHwmh/rWcgEWMN9bhWJ0feeLUGY7It2ni9QNUSfkSVUqEc1Me6tmdtSf4438EyvF7NW6Lv7T2IE+IL0684Yh80Kk8jEsHpPhKFcY/GnJqpyi27MTSYB/PI+CaeLOMd5wNYXyxh9uWfG+NuaIM+/pTqc/jkyxYqXbT5wrZ3sZgD58g4Ip4I+LZx/+pjDc2uNt+OrCPXPsrvMkMx78+hgiwm0635DYGsml4AViQ88BxMQ5lxxg/TiE387gTucviMJkP4T6h2juxyT+2Ck9b8uGY9kLyGBnuytzKOtRtu+JPrN3Uc7s+8tgltXTbWY0/Z9brPnPyuTL+zHnxXQw4S/JZDjs3jfsxfhpCwu8Y8Od5SQFMb6jrApp6Rr3M3ojuEj2e1jLxdhWvfcH5M4sfK2fqLkyuiT9T//bk/DG3x5J8aOrdnFD4N/luV3tDmComQIqpZ6e3+FPs9gXnzyw+LFzJVBxP/Y/uZFZ/1x2PZ0L+mCdr8qmAvyZLxOIVuDU3N8/d7XYrnkVrl40jtTB0fTzq8GP8MTPLlHwbxl17HY4ky1hF2LNSTiNLt8lax2tmn+va6zb8XNUeUy9yBRvgEQNdHI8peJYRj8zMMiUfWng5G2pqFnPiEQOxKjyDq2Qz66jcje11G35uaU/8jWxjh6qk95g/kSmXG1vDX7pP07FnFIo6jCk0KovZTtGVxO8BXaFPMyFR4Ir2JWaL3YmfW9pn0Rcwj6I+yZ9YmCQjM5Pk4usl5JHZMz9Da3tJ3X6EXZvMx9joGG3WMj0nRIqvp1aYp+K3Lx03PnbyCr5d1f7Et0jMvEnfctD7k/bTywJXkbtAjzxifKKmpCRD8mGHeCkBznp4D+QpNiWJXrLDK3gXqp1JjjMRvOhP4pOROWnkU2GWjF33MAYwduE8F0Ntd8pGhokyL7SfRkpewrtQ7eVDRuE5g9wj8ZiKD/GJ8SrFpDTybRzbdDH+fmOIKqBZFZ6LobQL5RSDUkXXt5+PkDScXYhvF7cv1X9Jshfi0QAv4hPxKskWFAyWl0kX0WQKWxFCkcsMNpZDDVXQcMkpUDa4L8gV5VgdPzMfGrBrOZbxMTn7xkiB9KlG6eWBD/0Az0o9dte1R5wvuqcJopt2w+4/vugIT8ZAC7xLQq93Xuo2i0fqCIzj0c344Iqv76I5j+hNSiOfoqpHJ4ZAuEWG4hHMYNrS5PIRfWHAwuv1dbly22qhbqEbLH6et/sl02H92Gv5BcAEz1R8S1E2mXzXuQkHah7FT1HUY3SGsM2kYefacdcejD1EDe+/eI9FeyXLVA7Qa8aZrILgjzMEev3gNNYD85EA/bXGtzT1NJtpnthzPoab9/DDz9zWEL/01iWRT1ZgJg2ZKCVyvntC5vrwsIFcEfx1hED5of3Yfqk4cjT1eDvDP1EPP31C9vbxdmCm2+kd+4lfevuSyIdd+nSmxK7dONcORb3cK7dfTtVqKplMqq3mQwiy2AG+DJi0/TS40sqFv7yupxsci4QzFyx51n6NX5qJyeST4BDW8eFNf3qODibbyc+kD1LmCOjxEzjG8xR84+V4GuaPUtCT0RaJ/ZwT6p3EpzvxO0RvXZx868fN7IeTLZVEMMwZ0ZJzKblcX0uw7QiBZDxTcU7BN80P/teromczQZPp03AROHoCn8q1R13XR5gXn+2MxqKX0IWZAgRvDjnRLGRRgVHe+e5ao+ISKJOg3OIzCASAU3wZUUtwf7sg8Tp+ajh2Gdr4C7IzTj6ce/sKFTDisbElSfYy3yv5b/s762AXPtuilGl9Xt7/4If/LxkIA8nL9hXany3/XQOtY67FdxcSw0+/4RXiPGPkiw87scM7gsDVG+5Epn2sUqb1eX1/KyxI53X7gvYnLgzZ+DOm8YyOjZMP72Hr6MEuJS3D3FpmO1v8sTveb3o+G2UOiN/sDeyx5ocRPsQzESGMfGvGzDgUeRZKfB5QEBAHo6iIT7bhhpBFBWY5521if5Izqd+Lx7NZKlNA/G+/3/2bJ/tCxDcKE0Y+SZW/zgnG18wlCJYs83JOKLMYE+VUH/UEyQ1Olv2mt+z5EA89fqWIT2A/j3/iG7GDkQ+ncCcRMJSc5mxniz9O6/HbfqaQcHgd4+s3XAJ7EvwivlGcaPd8Kk62YI+WtLTOTjYNM01hd7z/9HaIZIav//AJ7BcRQnwTjxok6IOXZJCQisRPNmKkIaOlLCoyy+2O95/eDAlRbo1n1+BRPqQ3lPWtF00KcocIqK3t0LlpD0QaWx3yw8KfKvINE3vOp8aUaknGF9jxR+Ql/BKwk9yqzfEhRgb1OT2vm/ezwoR0TnAtpH0Df3MRVE072q6Zgd4CgbZX34Mt185xzBNDf6oKLvTFYefmE66pAlkOUWDQJ96d5hbto2k9x/U4PZ8n9rMEhdAuEi4hCQb/4+aAeHb+caCvOulo6HHOhBzjWw4R7+TW9tgEXPPEAiM1Zz0YBkxqOZOtGkqTNxRoWm54vB/1VpiQLgXnrsKn7rRjIDwovqTQrpWB3gaB2m+dmHN8E+/CoErHsTs9CgxKupw/LUgv5zta/+2DL48GyQABp/jifpb4Z6CvGNLXoCFBUbYIlNG7rBngz86j8zuTkXdIPnUULSZnb2tkkFs1vO6ygHhG+GSDc6Z+MdrfqC1BWe4I5ORPRT2S1q2y348Wb3M4zXNvemnVoI0fcKDB7e7qvLTQLry1OftPhoOQfFID60IpOnRdI11BreTCm+evMzDOZYCvHf4Z6f0FpSusyQh/GqKm8ElWpYYwPmaoE9Oh7JE7BUh8Vg7tNJGVtg6QqypcAYQXGqF0dCKu5njy2dwC6a0AwkmxrVf9gZY28Qe8FCS09q3E5W5jhkHdpewtO0P0+GRZ9v6KKUpdGInWjRwvCOg0j6zdChWjhhg2LChMR6Bz/Q6cnsa41i5sXZqnNyepZP/yNcVpVxZx11W4dRszIgmjNCFHPxLvZOzZKmlIxAiYQb7/mZVp7QkKzBHY9eC/2exlpjjna3/zlmkdHhEBd8rX+Txfj+6FXiPscrWPeBfGUUY5Vc6ApyVl+B8beZAj2NBDJ+v0e594HTo27YJeV50BZcMGBENQAw/FdjdBZPUW2PG7f0JsXyui5xxf5g8L/DPVGzQvXhT3dxHbl2n8ZWp/5vUTKuYp1/NjzeVhpBbeiXCCJXIkHp2XvffCXcObIvbj+pYVa6BlxW9pR9rbJPHjTZRYnJu+74zToP6y002r/2z0DNQVr33J9iXjZ4dv/vSm8MQVRv7N3/mF3SJ3Fl/FPb9VzOTefgQeF3SihayHQ8k4R8DoCuxaPc1iWCW3t7/w7WOTJxYQudu/hcfHzH4LyJiKH5d1+3CdPRKLT25RjmxPkjkh3a63AokAcnv7C90+Ps9tjlKhz+/F+vnQzxyz5LgSPHHOH+IZPWTHno/6P43B/HhNpnLGRxfrea9sBpP72194fONP9k1A8rb/C4Of5Z0K4sj5kj0/qAKZOgbySaLr5R7yiuwksLxsHxEjH+3ntZj/9Yq/84WHnb1Oej7uF46pXX0Genq9k1XBs/gZRW/ilVxrvmnmFTsK1U5TYDzu90LhJeotLG4a+ajzoxOyTlDLvSTbgeR1+3Jrv30o5VY/jxsvxYsTe5O+qWIQYLnbS+TDHpFXlOgavSUbIJNU5HX7cm1/EhgGQq71+/P4TGfRU2c9bWWVXimiu76kxw3xyRd0FAMWLxQcYJ4LffeJw6H3VWfiQ/aBrn3IfvgH9xmEW9cUxXY1QSd7yP53aPt0Ozspg1tMbtngSwdY4e9YTztaJRP/0iF5Ob8X64/fghkDp+cDDRj1suCHFX50QJi9GiF6UJYnZj3jI1EDfc9zJ0Cfm88zbllQyhAI9a6DKvw3eOKRsGba9RDd3cqmx0RAW+HL7gCScMcqM/BP0vF2/kg6jzP/J9Xvx+PtMEPC5eo/fM7HquAV0Qnj00na2QlYSvGcb9SdeTwvD/46QqDP5doKeYf4JvDWqk/BP2O9XStzrd9vxzvGK2v/qDJihktqOXLxrtOBXDFqqF3zAr0OgYrDDkoMTRzgS4dm4g/r/a0nD7Lxv/X5Mo8nN9ZHbbJKufiHeId3lWqnWExNT9QTi39RnSRjM3SyVaMCnQkCOvxYwCfJyfjmV289eZCN//PbPoq7Qtqfef0mHowX52o/8Q7fSpLaicE0hKUhJ3OElifLyfp4K4IN5whkgC/5wQr/TPVWjczG/5meP9P4Knb9VniRLg/ta8cVLsoB7mfq6cjfznK7xgV6AwQywNepH5ztx/oVgwZpRUVrl/N4c2Zn/urT7gxMMcu9PcqBME6LNuFNH40o6UKbkmNPSEOjtHLTNjHF3gefx4rwIJpKLVKO72pgu/H61IV5Fb79XHnscFNw0nE0x5f7Iz96uyV4NROG03WXxVtyro2EUJdcLmT/6pnBpp7kgBABzfhh5z8ZeUcv0+5jwBLByAFaTp6grlXIqblVu0i3/XdIQExYDa83JScdJT/ph823/vRARvja4Z+BniNt8hejZNADPzJRBsWmCGSAv97vcR4h7/BRg7Ql/ko8UoHtyChBxNBk8YkBIWt604ZpCrvj/ae3RiRur4ZfXDbBN19661YF2mwRyMk/yDt8pUj5mH2tjAUEzQrxvigpp4/FpJTbNThpf4Pj/am3QsUAVxpZEK6FxseqWYEuKwRyjV9FVT7CDyjJK9nnAdkQkweIM9muzTRkzaQ+7+9vjUgR7bNuWKDNCoHc/CmD/Ibc1Fz+uvieJJsbIcLQYyEaCuEmI5CRbNdgu+N9qLeGxAbPAuLR/vk266YF2owQ6FyzxZ4fNv4k3skTttzTpihqjAjHJifxpk8QzlK2aK4KuKIi0/p8sL8FJExliWcB7d/77FsQ2bjDrnmB3iEC+x5fklN8E9+Id+hynI2UpFY2QsRtnlOXyltiJnOt2V/2aRimNDvern6v6s0QEeVFwQNZ/9npP4UDr7wjmhHkWSJw4D/vwK7Hl9vywyp+iW90evbLtEg5vCxK3dm9Ht78o4xDTm1Mq8nsgQF2pTQ5QHrrpOiGrGJ/zHXH29XvSb0tLAn8imHf+v97CCqH94GyfvV8Vpt1xbpG62TmNZ3M/K2TS02vHOiAjg27INrYxuI/R/+xYQgjHz7P+wRnb4axez1GLCQe3fARwjrC6PXW5KMnGNbH+1JPeFklNs6gYLfHt1D4tK/bCe3rdmEbNNLRmuu0CyqjFrck0Bvik4t/iG8ELg+HGLxGAv2WAAsMIhwFiAY8PQeklKxnRcZ/WJ9rd7z/9CKejUFJxc9/9ifHR2CfKX80vjHyQSz2NO1In1NKEA2Hnklyst4swEQ5e3Bvcbwf9WykIABIydnlLAkPa3z9iE9yPJWw/cg3Co/4QOnDI78XVWNqSBQlgOK7pMqjPv1TSngFohUC7W+vhjUXJD6tn4pnIIsLv3G8+Qif2FGr/sxu9/BazBMSr4kTL3mIiZCwHcSQQsjiuCB3hgBHMXEvlYpnIBOOJYEP8oynOPnw+7mfsJtIutfT5kntZFFJkDtDwA7PQM8G547jz4t4Ec9EtGiPGnBSU4q9ICnSiWQQu/5QjliYyaKCIHeOgBWeDGcLvEtBXzvR+q0QQrp5+WpH8elWvBQ59oKImDj5oEN+GL9l9nNGPAwC/jqRRkQDObJpJ5QN6iPqCXIbBCI79rEHs07xtcPfj3paYjX44WtMkdxw2T3a82P7+HQrPsQzYWB82Dl63Z93YiF+UgL/0qycGHqayO3vrxN1BLkDBPa/xkcbTvG1w9+vejsoPY5fu8YzZmacfNxodSMjHnuwTlMryDwiovacj0qEvP6GedD+8Xo7rAI9InBgxcew5+mVuJXAj+GolxlSpa5nD5otYgb1Ih4p9x5+G/XGJYadrFR6EVe0HEZdNq1s0edkqF4m/epv3AUNXz0GKg7pC3IFPqUgZGhRdYa5hPvTYmzKzY4301N5ryvPxOOM0+4HnkGFeb1m58tHeWTXfujcshOaFq9igZKKn142wrfU9NxPxn7kpejHlLgUskfwe1FvXRL5OqKdv6kIl18tDKGhDftGhUY8I3nfc+/GA8tIb3d8rvqB135Nb0/a9tZ7nitq+3K1r6SOZxfuNBfGC9jbMniJziQ+3YQf8StuDG5QlxBP49fN2YwEaqECMhDtTNz7uVRmsxhxC9I36IJAySv2lHR7092XVuJhfFqIX3qDksjHFJJEXRlPlLPpOTfLorFaG1Mz17cfGyxM8ATeBWxvqu+MZM/6E3mVktLIh7bNY/voA4IKXCuTNyySa9uttTloHwdC4GDhSqYS+3ksj/NKZ18a+Y76rP8cHKLF2JBTY1x8yOZSWWeP4abb2x+0D5mE0clwMPQgLxR6D+IVI16lmpZGPglmKTjLtlY/tqZZN5KpjyHDhUyV6eVi6FMNSpWL3b7g/Il4cRIfqf7Ty06O1+NNx+rlIh6/lnilt4W208hHhcizR9g0N7sgCeLRLJN+ZQGa4gI9tdcqiQsFy3FHveyG9uvb40Z8u7p9Vr70Lj7wiJFdhuSL1cK9eMWgB2/sysHy1FlDHrlF1xsZpS+jK5+b2x+0L9k/et8ZbcfxEn4VuUvjk3hEfDKyxZB8Y99+MII7x4eeZJ8+gJmMRWJoWnS9kWX6Mre3P2gfiy8RV3rXJW0TTpS03DXxZ+2/tRqfeNt1fw3Jx/QqPCSGHEQ8MtiVst2DWboiurn9Qfvi/tHFpekmI5yH/Ikd30NmxpiS75g1D92NXWaErRDQAoS6/LjM+KiTtSFql+uNb1vj9sbbU6z24Q+RiIBxJX4ual/caRYbcX+6Jf6s8Yscs+aRu83MSVpelr6TvAJ/v28ylYsuPp6zvl8LrGLqbXq+gdeckW5WvISuPWmTUHFtYk2orihpMzi+sPglgc0E18WfuNdMzRk/5BXpFiRKLMmHv213Hdb5Bt9dm/WkLp8ld8iiNWZ57+9Zr/00Oy4odx8C9HuLieSO+MOOT0vp7SH+CK1RbjrspJ2PWf3Qm4qq7uEH0hATt+IdBZc1wqOiOHp6ATNIpYEA/dCp2+LPLP5xEfge4o+VZyzJRwfiGHtBvKunM+ERepkIqZe7Ws9ebbayMND5BgEWZy6LP7P4x/J5dsDbkk+tla9HCkY5wahrpSp5F2ucd60+ur/VzsZA7xMEIntaXBd/CV4QMeL8iCrdQzfawW5LPv6MQn2ZZploaMkTn+XkMi8vlr5t7XY7GwO9DxDY/+o70PrJF5ol7ok/IhzxICX+XzZ7tqd3hS35aGcppF6Gs54a83gmhpqCkMWSG1/9CHb9+V96m4JtHyKw8WePaVa5K/7S419RiS9OXOCIfMd+NnsrVvaRok22uC3f+Ot/wcbrHoDWtz5zYnOwj1cQQJ7teexV+HDaTOjcvA/cFncm7flI44stytRnOkpvD7lsEoTUpcQ/YiydWMaNQO4aPA5/dCZUjzvM0Fetb66CT759d+APF8Qj/uLT5DGrH15m6KiUQkc9Hx0zZv3Dy/AXNddz4qnc0dpIFMvjcqCnC1MCD8JOL2eLD7u1oMpMErsQ0nlRrz8f7a6XA30yHnnGZ71T4tF5yReOE865XEqOpN9z410udpwkY2SwcpEH+rzjE5/rMvFWgL8uDosUf8QPE/cYFmdEvrHrZi9C4n0uJlfok9xselWfo+GBnnDBW3E9LnhhYnLW+LAqDf/ws+Vaf3B8Tv5Rpc8ZPww9ZFyYEfmoCnxyfwnFFDXUMMcHgYblYv9AnxU+xu7jpWyyO8CX41qs+Aopl1j5yEiXMfnGr52zBEeaaxnBkITJuUa8tHKxX6BPxkvgInJzfIycJ8po4QOv1/z4QI8dhiBmHC+Bm8izw4/4QLwQ/nCaZ0w+reJv4pJKdndPjmdLyujyy4ZUepkM1st4UJIc6JPxMMcHUTRPiD1b4hrgX4z4ooj+prlzzDVZke+49bPfx1uYZWyyhWpgky5ajnL8eTyVB/r84WPmR3I/JQ3vAH8NkK6IvxAsY3zgHsjob1bkozMciCr/gz/aHuXEw0svIyDP6Y13vYydepIc6JPxsMKnftIIGPqL70D5oQNMHVs+qC8M/P5pUD2sL8M5wNc5vkZx6hg/jH/GA1PPWCuwldmnlUMupk9NXMbe0KYhDxKQGh7IiEMOeJQPrIP+502B+jNOgPKDM/sNxLYP1sHOvy6BnY8vD/xR4HjEx20PHb9+9hXZMign8tFJkYD7MavRN4AqFSMhfbnYDvTG+ITrq2DgZV+Gnt+aDOHe9QKurPIW/FmyHQtfhT3Pp32lnMYhgX8sUHWIT8tx6+d0t6jGVpX1sFPUjCS7mN/lYonGOPGcT8iBXgDDUTPCp8cpo+CIBTOh7w++ljPx6Cw1JxwJh/5hBhz6ywugAntSlkQz2CwPlmhy4B8BjAaTA3zwiIv53tn/JZLnnLD3ewMdOY5dUkVtZI+4hOjzQM8R0OFzyMyzGOkENPnOOzfvhM13PZHcC+rOn+QncfJAbxW/b2KvN15AlW2ec89HJ25V1enowIi4orMcCWeY4/6G5WL/EtMXmnjkH7pvPOT2i6D6MJyQwRTgj1cWEW+puT0+ERbvDMnc/tDPyeac5jW+13553dH04yonU2Vi0kVUHMh8EioVj8Ezzy5ojyfOR7lcVQE1hx8MO59eARK+ikKTYiIF/jH2jxE+uFjhthM3zn1Z6HLJkff5S/8dfNFqdORwNtuJ1fKRizb7iZTk5SIvbX3v00bD0D/9yDH4SlsHtH20HiI79kHH9r0Q7lYFZf0aoGJIf6gY3M9xPXv/uhjW3DCPLvyBfxADceFJzw3xWXP8hrkjHINts6PlpwNtjk1Th8vLJ0Q7O+nF2zJxXRVX2PScH55ezo/08/FSeQj6fd/8d+T1wDa9/BZsm/NvaFqxVl+ctF15SA/oOX0M9Lv8qzhZo02uJO2REHr871Q4aPMu2PKH51lhKeJPhmcRXxGK7wSSuW/lZdgpmvHgnrdbL204eju+YXsmffKFPffDDfzJFfbZwUDG53+IxyHXngUN+AzPLm366XzYcMdfoX3TXkv8IvvaYP+7n0Pj4negsk89VA4baFl17YQjoX31RmhdvY21J/CPfXziSq3vH7fukdcsgc1Qmddhpzj3f4dc9BpeWiaSzAhHD5xxmw116MEnyiKVmr5qRB848snbIFTbTUCQnuNU9wen3gBt63Zlhd+Iuy+CHt+aml6vrmTfs6/D6hkPZVV/yfkvJC0/fv3cE3Xw5WUzL7OdqS3ZG+p+Ml5SW+LEYisNdEREmVIp6gd8d7oN8fBjOWfekky8DPFbfd1c2PHHf6S6JUluOO04nP3sp1uJk+yPUvWPWJkUtz8kt7B4TkIvP0Jeh52iSQv3vhG7ovvR/8GV9pdil8e7ucQgm+9WgnLFQfVw6L0/EDAZ5p9f+0fYt2QVMkFTZ5k3Ll8FdccONp+Mwe9OqE37ofE1PBelLM/j8+OUkAKTpm54cBMHKb9/C9LzURPHb577pirDrfHm0tAzMdrkrx+VmNztqMFxOIw2mhe/h48CtJ/GyANe23Fm0yrVjNF9kCkP5/OdfzF+KY6tMMxFVzDyUaMmbJj3S3TIYtZAGjrh1TXuoBKUa0cNZlCY/aEF0fnEZ8+z70Hzax+anQ6qxyL5KrTBTwn6wzIeY+piil9T8PKgKCj5qH0TNs6bhisqdtE2rawQb1SXotx97OFktmHqWPsF7Hr2nbzj07zUnHxyOAQNJwznK16wVaXuH539u07YPG+aoaPyWFhw8lFbwyH5KDSsnb/pjt0fDXFo8WqJ5aEeSS9/JLlx74s4uikAHpv//O+k86QKVUPwAX0Bzuth/7ZTvKbiVAi5S8g3fsPc7Xj/dxK+uBgjR9MLjOzb9pgLOTX3oz5cb/4GCvtylg6PfNofwRUxZqlqKL6kqzuv8EM+z++h+mMUpxSvZnjls7xLyEcNnrhx/gq8obkSHYGM40McypljDHJ25TQoF/t7UR9qMO/5JHGzR0TAlE/7Ijv3sTqN/lRQz0dJO6/I83l+j9SPi32kK1mcsgYX/k+XkY9MmbBl3iM4Nf17Hl4YYJp9JZN3Ri09WigcaFG1WVJa2krPD0Zxh3HJ4tMMqAKUdyn5qP0Ttsz/EQbZ00aBRk8ejMrpOCr3uj7WbP1bgoWyrwyXnJml9i92M5Uf8M0WP7T9aYpLM4wKVd7l5CNDTtw8/xu4xPFVHFtxu2gWFLfiQx1N9ps+1nyA22vwN9yje0HsrxzUAKE68+Fuxxc4EV0i+BvGF8YhxaOBSwpeVBTykVUTNs0/GW/q32YEo8XXRETM/SzHWsx7vh5fHgdyt/K829/v3CmWQdSBbzgQ7qWAf2p8UfxNxDi0BKiAyqKRj2yasHn+WARkjXC83/Pmlea/HxjqWQv9zsG1uzoi5IwHXssaph1jGT6NK9fGiZfz+bQLqEfqWcPizxKdwiqLSj4ybcLmoYdjjHxGDhNDT7/mja+bP/AmLPqcM5URIV/2H3TxNKg6YjBVbZha3vgUIo1tvsfdAM/PKO4MQenCwqKTT4JZysQtCw6XQfqQXuxkQCEAPPeXvO+1zyC6q9HUvdVIlCE3nq2bXMre/op+3aHPuSeZnosUTSs+8TXeRvFEcUbxRnFnCU4XKItOPmEjzjYdhaH2tjYFo8164r2ItgPPvS2rERX2vfKuMNkwH3DV2dD/gkk523/4/TOg6rBBhudghdEY7F38vq/wpUu2VbxQfFGcmYPStRrXkI/MnrRlwVjMlrF7BtxIzVMfAHtRv3XBS6C2dpC5pmnoLy+H/udOzMr+ioPrYcyiX0LNeOtR1Y5HX4amN9ezNggc/YAvGSTsScmXafFlintXKwryPl8uRsxu/mDOpXWjRyBwo8QSJwkvEexeXixN09YielHfua0ZyntVQ82x1t/haTh1LNQdMxii+xqhfeNuR/YfdNnJMHTWd2w/IxHdux/W3DQbYvtw9hVXtvgJX24Pn71NxIf06IlbFjj7aE4uwZvhsXRr5cr02sALbschxK04+SfxSTQBqEZEbVYQMx6YHpIrBvWAUY/eDBWH8O9o2jlg73Mr8KXXj2HrgiW62XKOR82XBkCvL4+BHl8eD3TP6CRtve/vsP5Xf2c9hBfxyyAeaNHez0784i+3OcGlq/dxLfkIiGUDL/gOZrPxn+t6aGpfLqnHtJEwcu4NIIUyM40WSXfu2Ash/HRgeb8eINdUZdQMIt7ndz2d0TEe3TmG7b5k0hd/me/W9ruafATa0gHnT8SrM36kVMIoo9tparLIaQ9KQk7NudateiLgEQtuFo0seL776aWw6ocP6fASp0zFTcie1bdh73jq5K0LlwsL3Ji7nnwE2qLBF9WHI9H3cVM3fZcaIKnwekNfd9xQGPXUT1Mbn3e5aen78OF5d+vq9QY+uganbJq2f1O0LDx62oa55s90UmoqlugJ8glwlvQ/7zlZlk9P+uoZTb6wSQPv5uX9a2Hk738A3fGXhQqRdsx/CdbcvMDzONn5WVGU56dse/SrhcCwEHVmdsNRiBZkUOfclg8fvbj7Ua34ebeT0BEy/8lpHIjSbKiCFdGDE8zjn3+Ly+7WKwc68BMSK6Gqfz1UHzk4A0Ssd237bBNs/PXjsOneZzyNjwP/xlRVunHKtoVXWSPiLq2nej4B3ZL+F46UZGUpEq2XePPajHhe0/c4aSQ+ZD8FeuB3NbNNEXxNaNvCl2Dzgy+D0o7vENKLsvELER8hCNlr+KReWLH9u1VFmjxl24JPs8WrWMd5knwCrGX9LvgXPog4A0PL03YIe/R5r68cBQ0TR0Edftq96nDdra5+J912bH8rNL7yDjS9tRp2v/gWdGxt1mn9t4kOpzfPn520/S9f86p1ng/aZQMuOFdRlTn4OLCCr+XDKzv+l/6rM94trxjaA+pGD4HKQX2g6uB+UHFwL6B3A9s27oJ2/OHLtk07YN+iVb6z28KPHbIkXzxp618e8yrxqN2eJx8Z8X7fC7s1SsrLaA3++oggHmkoBTK/EHE0PI+Hqq6oV0Onjt6xwPzNZGGqy3NfkE9gvKTv+efIsjQbe8JqWlpEa/uC3B84YE/XqijqJVN2LHxC+Nvrua/IR854AK4oG9m/5XnkHf5YC/4nHgcFOR/neA8HFa+jr3y6reb0K+HBiNcJp2+/78gnjFvc7/xxyLynkH4H87WAOOCimRmymAWg6BES5YHeXfigwzbj2OUbU7cvfFP41U+5b8knnLS47/kzJEm9C2W2CFJc+IU+kJNv/F2CRxt+x/SGyTsW3if85Mecnv74Ok1FB67aXlOHPeCjCqgx3vFRiFEHSJMxPA9kV+ARxZHJo5O3j6jxO/Eo3nzf85GRIr3W65Lu0XD7oyifjqGGFx5OvSAvOg60Pun5cLTyvBN3z94v/OX3vKTIJ5y5vO+FfSJS9AlcITMZV0jIfAUI3gNqa0QDGUcGujWzhcID61Vwpc3SMjV8zsQdC3YK/5RKXpLkE85lJIToHOwApyMRw1TO7nm0pVhiv/hSrECfL3yiWNFLZRC+uBRJJ+KqpMknQHh+2Fcquh1ouF+JqedjP1hJi7TFYt4gxwtS/vBol0PSwgPd9l11+toXrD9kI5zj4zwgX4pzF/c5dyb2flcjMAMwD/BJwSdTEQGkJzhbMf/d1J2P/TrT4/28fxBcJt5d0v+ckUpE/j0OOadg/JSx5/Xs7QCCjGZJ+T0ieysgkI3wiGCPuUQuU344ZdsTnnvjwCQs8lockM8BnK/2/fY1yK/v4a7DEDDdLKk4mBNSSInZU1FSGnrs4WjWci0y8c8n7Xj8HmF9kBsjEJDPGBfDUro3rGquuxHHURfJkjQIf+cTM7FSpjRzBACXXKqbEIa5bbVNdwb3coahY1gYkM8QFvtCImJ1c+1Viiqdj3sfgf8qaemaWKKmz0VtPtK3o32fyJK6sLW2+f6AcMLDmeUB+TLDy3RvHJoeh4Oua3F29AS81+mPRAuzLyazD/3iQJQREwdm3pSjsgzbFAVW4KD7tzikXGkKRKBwjEBAPsdQZbbj4p7njFND8qWqqkzB6ZlBCDStLSUK8ixenetk7NSkNmwoDiWlJVJMeWTqnid8ubA57oIibQTk6yLgVZglL+r9yWm4qu0MVVLH4mzpYFxbWot5OebYMeI9I/7XhTmSTO3E8zVjvgEXMr8FkvLstF1HvOiGX/DpIrcU9TQB+YoKPz/5q/3OPRKXtk2SQDkWGTEYCdET+8N6zGuQGNXIyXJkJQ1YJSynEazIUcW7U8zp0+h4OOOwgvsTsVrx+BYsb8R8Dx64QQX5HfwI0bKTtj/2sQtML+km/H/KsWTQHlRuhAAAAABJRU5ErkJggg==;sketch=0;" parent="1" vertex="1">
                    <mxGeometry x="1380.08" y="352.5" width="29.47" height="30" as="geometry"/>
                </mxCell>
                <mxCell id="52" style="edgeStyle=orthogonalEdgeStyle;rounded=0;orthogonalLoop=1;jettySize=auto;html=1;exitX=1;exitY=0.25;exitDx=0;exitDy=0;fontFamily=Ubuntu Mono;fontSource=https%3A%2F%2Ffonts.googleapis.com%2Fcss%3Ffamily%3DUbuntu%2BMono;dashed=1;strokeColor=#333333;" edge="1" parent="1" target="54">
                    <mxGeometry relative="1" as="geometry">
                        <mxPoint x="1642.5900000000001" y="180" as="targetPoint"/>
                        <Array as="points">
                            <mxPoint x="1457.5900000000001" y="190"/>
                        </Array>
                        <mxPoint x="1457.71" y="180" as="sourcePoint"/>
                    </mxGeometry>
                </mxCell>
                <mxCell id="53" style="edgeStyle=orthogonalEdgeStyle;rounded=0;orthogonalLoop=1;jettySize=auto;html=1;fontFamily=Ubuntu Mono;fontSource=https%3A%2F%2Ffonts.googleapis.com%2Fcss%3Ffamily%3DUbuntu%2BMono;entryX=1;entryY=0.5;entryDx=0;entryDy=0;dashed=1;strokeColor=#333333;" edge="1" parent="1">
                    <mxGeometry relative="1" as="geometry">
                        <mxPoint x="1642.5900000000001" y="190" as="sourcePoint"/>
                        <Array as="points"/>
                        <mxPoint x="1457.71" y="190" as="targetPoint"/>
                    </mxGeometry>
                </mxCell>
                <mxCell id="54" value="" style="outlineConnect=0;fontColor=#232F3E;gradientColor=none;fillColor=#277116;strokeColor=none;dashed=0;verticalLabelPosition=bottom;verticalAlign=top;align=center;html=1;fontSize=12;fontStyle=0;aspect=fixed;pointerEvents=1;shape=mxgraph.aws4.bucket;sketch=0;" vertex="1" parent="1">
                    <mxGeometry x="1650.09" y="170" width="38.46" height="40" as="geometry"/>
                </mxCell>
                <mxCell id="55" value="&lt;font style=&quot;font-size: 10px&quot; data-font-src=&quot;https://fonts.googleapis.com/css?family=Roboto+Mono&quot; face=&quot;Lucida Console&quot; color=&quot;#333333&quot;&gt;Receivers data bucket&lt;/font&gt;" style="text;html=1;align=center;verticalAlign=middle;resizable=0;points=[];autosize=1;fontFamily=Ubuntu Mono;" vertex="1" parent="1">
                    <mxGeometry x="1599.32" y="210" width="140" height="20" as="geometry"/>
                </mxCell>
            </root>
        </mxGraphModel>
    </diagram>
</mxfile>